<svg id="Layer_1" data-name="Layer 1" xmlns="http://www.w3.org/2000/svg" viewBox="0 0 335 94"><defs><style>.cls-1{fill:#e6e7e8;}.cls-2{fill:#ff671d;}.cls-3{fill:#fff;}.cls-4{fill:#6e7071;}</style></defs><path class="cls-1" d="M118.24,35h-11a6.49,6.49,0,0,0-6.47,6.49v11A6.5,6.5,0,0,0,107.26,59h11a6.49,6.49,0,0,0,6.47-6.49v-11A6.48,6.48,0,0,0,118.24,35m4.36,17.51a4.37,4.37,0,0,1-4.36,4.37h-11a4.37,4.37,0,0,1-4-2.64l.38-.33.8-2.29L102.9,49V41.49a4.38,4.38,0,0,1,4.36-4.38h11a4.38,4.38,0,0,1,4.36,4.38Z"/><path class="cls-2" d="M120.1,52.09a2.57,2.57,0,0,0,.78.11c1.17,0,1.72-.47,1.72-1s-.88-.65-1-1.22,0-3.88,1.18-5.62l.82.37a1.07,1.07,0,0,0,.51.12.79.79,0,0,0,.55-.29,17.43,17.43,0,0,0,2.14-2.95,11.63,11.63,0,0,0-2.58-3.15,3.85,3.85,0,0,0-6,1.74,18.3,18.3,0,0,1-5.46,2.6c-2.64.7-5.37,0-7.22.14a3.75,3.75,0,0,0-3.75,3.91c.06,2.06,1.48,3.94,1.48,5.87a2.12,2.12,0,0,1-2.08,2.19c-1,0-1.08-.42-1.39-.42a.28.28,0,0,0-.27.27c0,.52,1.25,1,2,1a3.15,3.15,0,0,0,2.7-1.37,2.36,2.36,0,0,0,2.35,1.41c1.5,0,2.14-.71,2.14-1.31s-.29-.69-.5-1a1.63,1.63,0,0,1-.29-.9,6,6,0,0,0,.81,0c1.09,0,1.42-.44,1.42-.87s-.65-.52-.65-1.44c0-.7.39-.93.72-.93s1.75.14,3.43.31c.56.06,2,.6,2,2.78v.78a2.65,2.65,0,0,0,2.87,3c1.59,0,2.48-.89,2.48-1.53,0-.42-.37-.6-.55-.86a2.39,2.39,0,0,1-.27-1.77Z"/><path class="cls-3" d="M124,42.58a.27.27,0,0,0-.27.27.28.28,0,1,0,.55,0,.27.27,0,0,0-.28-.27"/><path class="cls-3" d="M124.92,41.77a.25.25,0,1,0,.24.25.25.25,0,0,0-.24-.25"/><path class="cls-3" d="M125.37,40.84a.2.2,0,0,0-.21.2.21.21,0,0,0,.21.21.2.2,0,0,0,.2-.21.2.2,0,0,0-.2-.2"/><path class="cls-3" d="M117.47,42.15a.3.3,0,1,0,0-.6.3.3,0,0,0,0,.6"/><path class="cls-3" d="M118.62,49.39a.3.3,0,1,0,0,.59.3.3,0,0,0,0-.59"/><path class="cls-3" d="M120.39,49.69a.3.3,0,1,0,.3.29.3.3,0,0,0-.3-.29"/><path class="cls-3" d="M118.86,46.67a.3.3,0,1,0,0,.59.3.3,0,1,0,0-.59"/><path class="cls-3" d="M119.88,44.64a.3.3,0,0,0,.3-.3.31.31,0,0,0-.3-.3.3.3,0,0,0-.3.3.29.29,0,0,0,.3.3"/><path class="cls-3" d="M115.23,43.43a.3.3,0,0,0,.3-.3.3.3,0,0,0-.6,0,.3.3,0,0,0,.3.3"/><path class="cls-3" d="M116.9,48.77a.3.3,0,0,0-.3.3.29.29,0,0,0,.3.3.3.3,0,0,0,.3-.3.31.31,0,0,0-.3-.3"/><path class="cls-3" d="M116.08,44.91a.3.3,0,0,0,.29-.3.3.3,0,1,0-.59,0,.3.3,0,0,0,.3.3"/><path class="cls-3" d="M114.19,46.61a.3.3,0,1,0,.3.3.29.29,0,0,0-.3-.3"/><path class="cls-3" d="M117.27,46.29a.3.3,0,0,0,.3-.3.3.3,0,1,0-.59,0,.3.3,0,0,0,.29.3"/><path class="cls-3" d="M112.57,43.61a.29.29,0,0,0-.3.3.3.3,0,1,0,.59,0,.29.29,0,0,0-.29-.3"/><path class="cls-3" d="M113.21,45.16a.29.29,0,0,0-.29.3.3.3,0,1,0,.59,0,.29.29,0,0,0-.3-.3"/><path class="cls-3" d="M115.4,47.77a.29.29,0,0,0-.3.3.3.3,0,0,0,.3.3.31.31,0,0,0,.3-.3.3.3,0,0,0-.3-.3"/><path class="cls-3" d="M118.46,43.54a.31.31,0,0,0,.3-.3.3.3,0,0,0-.3-.3.29.29,0,0,0-.3.3.3.3,0,0,0,.3.3"/><path class="cls-3" d="M120.65,47.24a.3.3,0,0,0-.3.3.31.31,0,0,0,.3.3.3.3,0,0,0,.3-.3.29.29,0,0,0-.3-.3"/><path class="cls-3" d="M121.4,44.8a.3.3,0,0,0-.3.3.3.3,0,0,0,.6,0,.3.3,0,0,0-.3-.3"/><path class="cls-3" d="M121.21,42.34a.3.3,0,1,0,.29.3.29.29,0,0,0-.29-.3"/><path class="cls-3" d="M122.62,42.8a.3.3,0,0,0-.3.3.3.3,0,0,0,.6,0,.3.3,0,0,0-.3-.3"/><path class="cls-3" d="M120.15,41.42a.3.3,0,1,0,0,.59.3.3,0,0,0,0-.59"/><path class="cls-3" d="M119.56,40.29a.29.29,0,0,0-.3.3.3.3,0,0,0,.3.3.31.31,0,0,0,.3-.3.3.3,0,0,0-.3-.3"/><path class="cls-3" d="M120.79,40.29a.3.3,0,0,0-.3.3.31.31,0,0,0,.3.3.3.3,0,0,0,.3-.3.29.29,0,0,0-.3-.3"/><path class="cls-3" d="M119.38,39.47a.25.25,0,1,1,.25.25.25.25,0,0,1-.25-.25"/><path class="cls-3" d="M120.12,38.56a.18.18,0,0,1,.19-.18.19.19,0,1,1,0,.37.18.18,0,0,1-.19-.19"/><path class="cls-3" d="M121.08,38.13a.17.17,0,0,1,.17-.16.16.16,0,0,1,.16.16.16.16,0,0,1-.16.17.17.17,0,0,1-.17-.17"/><path class="cls-3" d="M125.18,40.2a.15.15,0,1,1,.3,0,.15.15,0,1,1-.3,0"/><path class="cls-3" d="M125,43.19a.17.17,0,0,1,.16-.17.16.16,0,1,1,0,.32.17.17,0,0,1-.18-.15"/><path class="cls-3" d="M125.39,42.61a.16.16,0,1,1,.17.15.15.15,0,0,1-.17-.15"/><path class="cls-3" d="M124.52,43.76a.16.16,0,0,1,.32,0,.16.16,0,0,1-.15.17.15.15,0,0,1-.17-.15"/><path class="cls-3" d="M124,44.29a.17.17,0,1,1,.33,0,.17.17,0,0,1-.16.17.17.17,0,0,1-.17-.16"/><path class="cls-3" d="M125.77,42a.17.17,0,0,1,.33,0,.17.17,0,1,1-.33,0"/><path class="cls-3" d="M126.07,41.53a.17.17,0,0,1,.16-.17.17.17,0,1,1-.16.17"/><path class="cls-3" d="M107.47,54.16a4.85,4.85,0,0,1-.33-3.83,3.13,3.13,0,0,1,3.22-1.86,2.68,2.68,0,0,0-1.26-.25,3.16,3.16,0,0,0-2.88,3.4,3.4,3.4,0,0,0,1.25,2.54"/><path class="cls-3" d="M103.45,48.14a2.59,2.59,0,0,1-.76-1.84,2.65,2.65,0,0,1,2.59-2.6c1.47-.08,4.17.37,5.89.14.6,2.67,3.24,5.26,5.31,6.44-2.46-1.1-4.81-3.6-6.87-4.74s-4.31-1.38-5.44-.33a3,3,0,0,0-.72,2.93"/><path class="cls-3" d="M109.54,50.83c.13.77-1.25,1-1.25,1a1.65,1.65,0,0,0,1.72-.46Z"/><path class="cls-3" d="M119.56,51.25h0a4.09,4.09,0,0,0-.26,3.29,3.74,3.74,0,0,1-1.46.74s1.9.25,2.49-.77c-1.14-.89-.8-3.1-.77-3.25"/><path class="cls-3" d="M123.34,39.08a1.15,1.15,0,1,0,1.14,1.36,1.26,1.26,0,0,0-1.14-1.36m.93,1.31a1,1,0,1,1-.81-1,.9.9,0,0,1,.81,1"/><path class="cls-3" d="M123.28,40.2a.54.54,0,1,1,.44.53.48.48,0,0,1-.44-.53"/><path class="cls-3" d="M121.73,50.19h0c.45.85-1,1.16-1,1.16a1.3,1.3,0,0,0,1.59-.75c-.22-.91-.46-.22-.59-.41"/><path class="cls-3" d="M124.77,39.75a2.14,2.14,0,0,0-1.85-1.08,2.17,2.17,0,0,0-1.75.91.35.35,0,1,1-.54-.44,2.56,2.56,0,0,1,1.88-.83,2.47,2.47,0,0,1,2.26,1.44"/><path class="cls-3" d="M122.46,44.17a5.09,5.09,0,0,1-2.66-1.08,5.45,5.45,0,0,1-1.65-1.88.23.23,0,1,1,.39-.23,6.1,6.1,0,0,0,1.57,2,5.4,5.4,0,0,0,2.35,1.17"/><path class="cls-3" d="M121.44,46.26a6.65,6.65,0,0,1-4.16-2.06,7,7,0,0,1-1.3-1.85.23.23,0,0,1,.09-.31.23.23,0,0,1,.31.09,8,8,0,0,0,1.54,2.31,6.14,6.14,0,0,0,3.52,1.82"/><path class="cls-3" d="M113.71,43.12a.24.24,0,0,1,.29.15,8.26,8.26,0,0,0,2,3.25A7.51,7.51,0,0,0,121,48.74a7.47,7.47,0,0,1-5.34-2.24,8.54,8.54,0,0,1-2-3.09.23.23,0,0,1,.14-.29"/><path class="cls-3" d="M121.79,41.35a2.48,2.48,0,0,0,1.32.41,1.61,1.61,0,0,0,1.71-1.33A1.84,1.84,0,0,1,123,42.1a2.61,2.61,0,0,1-1.37-.33.24.24,0,0,1-.1-.32.22.22,0,0,1,.31-.1"/><path class="cls-4" d="M130.68,47.6V44h1.2v3.54c0,1,.47,1.46,1.21,1.46a1.07,1.07,0,0,0,1.21-1.07c0-.79-.86-.94-.86-1.89h1.2c0,.52.9.74.9,2a2.19,2.19,0,0,1-2.45,2.06,2.25,2.25,0,0,1-2.41-2.51"/><path class="cls-4" d="M136.28,47.6v-.39h1.2v.33c0,1,.47,1.46,1.21,1.46a1.1,1.1,0,0,0,1.2-1.18c0-1.38-1.88-1.79-1.88-3.45V44h1.2v.28c0,1.32,1.92,1.42,1.92,3.52a2.22,2.22,0,0,1-2.44,2.31,2.25,2.25,0,0,1-2.41-2.51"/><path class="cls-4" d="M141.92,47.86v-.39h1.19v.33a1.11,1.11,0,0,0,1.17,1.2c.7,0,1.17-.44,1.17-1.46v-.91a1,1,0,0,0-1-1.1.87.87,0,0,0-1,.9v.11h-1.2v-.11a1.89,1.89,0,0,1,1.94-1.94,1.47,1.47,0,0,1,1.28.67V44h1.19v3.6a2.24,2.24,0,0,1-2.36,2.51,2.17,2.17,0,0,1-2.36-2.25"/><path class="cls-4" d="M147.47,47.6v-.39h1.2v.33c0,1,.48,1.46,1.21,1.46a1.11,1.11,0,0,0,1.21-1.18c0-1.38-1.88-1.79-1.88-3.45V44h1.19v.28c0,1.32,1.93,1.42,1.93,3.52a2.23,2.23,0,0,1-2.45,2.31,2.26,2.26,0,0,1-2.41-2.51"/><path class="cls-4" d="M160.27,48v2H159V48.13c0-.67-.3-1-.8-1a.88.88,0,0,0-.88,1v1.24h-1.23V48.06c0-.6-.3-1-.81-1s-.88.34-.88,1.06V50H153.2V47.3c0-2.69,1.94-3.3,3.5-3.3h1.78v1.11h-1.61c-1.32,0-2.33.41-2.51,1.38a1.39,1.39,0,0,1,1.07-.5,1.41,1.41,0,0,1,1.3.94,1.75,1.75,0,0,1,1.62-.94,1.91,1.91,0,0,1,1.92,2"/><path class="cls-4" d="M161.14,47.6V46.4a2.22,2.22,0,0,1,2.27-2.51,1.75,1.75,0,0,1,1.76,1,1.76,1.76,0,0,1,1.69-1,2.09,2.09,0,0,1,2,2.25V50h-1.19V46.17c0-.73-.4-1.17-1-1.17s-.95.44-.95,1.17V47.6a2.33,2.33,0,1,1-4.64,0m3.44-.06V46.43c0-1-.47-1.43-1.12-1.43s-1.12.44-1.12,1.43v1.11c0,1,.47,1.46,1.12,1.46s1.12-.44,1.12-1.46"/><path class="cls-4" d="M170,47.94v-.3h1.19v.24A1.14,1.14,0,0,0,172.42,49c.78,0,1.24-.31,1.24-.79s-.46-.71-1-.71h-.62V46.43h.62c.51,0,.89-.14.89-.63s-.43-.81-1.16-.81a1.12,1.12,0,0,0-1.26,1v.15H170V46a2.23,2.23,0,0,1,2.47-2.08c1.39,0,2.38.84,2.38,1.87a1.2,1.2,0,0,1-.95,1.2,1.23,1.23,0,0,1,1,1.33c0,1.06-1,1.82-2.48,1.82A2.18,2.18,0,0,1,170,47.94"/><path class="cls-4" d="M175.77,47.86v-.39H177v.36A1.1,1.1,0,0,0,178.14,49c.69,0,1.16-.44,1.16-1.43V46.43c0-1-.47-1.43-1.16-1.43A1.1,1.1,0,0,0,177,46.17v.1h-1.2v-.13a2.17,2.17,0,0,1,2.37-2.25,2.24,2.24,0,0,1,2.36,2.51v1.2a2.24,2.24,0,0,1-2.36,2.51,2.17,2.17,0,0,1-2.37-2.25"/><path class="cls-4" d="M181.37,46.7v-.76a1.93,1.93,0,0,1,1.91-2,1.67,1.67,0,0,1,1.52.94,1.6,1.6,0,0,1,1.45-.94,1.52,1.52,0,0,1,1.38.94,1.7,1.7,0,0,1,1.59-.94,1.87,1.87,0,0,1,1.84,2v1.57h-1.2V46c0-.67-.31-1-.77-1a.89.89,0,0,0-.86,1v1.44H187V45.89a.84.84,0,1,0-1.65,0v1.44H184.2V45.89c0-.6-.32-1-.79-1s-.83.35-.83,1.06v.59c0,1.56.66,2.31,2.8,2.31h3.92V50h-4.09c-1.75,0-3.84-.61-3.84-3.3"/><path class="cls-4" d="M199.14,45.94V50H197.9V46c0-.67-.3-1-.8-1a.88.88,0,0,0-.88,1v2.49H195V46c0-.6-.3-1-.81-1s-.88.35-.88,1.06V50h-1.23V45.94a2,2,0,0,1,2-2,1.67,1.67,0,0,1,1.55.94,1.72,1.72,0,0,1,1.63-.94,1.9,1.9,0,0,1,1.91,2"/><path class="cls-4" d="M200.36,47.6V44h1.2v3.54c0,1,.47,1.46,1.2,1.46s1.22-.4,1.22-1.07-.86-.94-.86-1.89h1.2c0,.52.9.74.9,2a2.2,2.2,0,0,1-2.46,2.06,2.25,2.25,0,0,1-2.4-2.51"/><path class="cls-4" d="M212.94,48a2.44,2.44,0,0,1-4.82,0,2,2,0,0,1,1.95-2v-.43c0-.65-.76-.65-.76-1.57h1.2c0,.55.75.65.75,1.39v.67a2,2,0,0,1,1.68,2m-1.24,0a1.17,1.17,0,1,0-1.18,1.08A1.07,1.07,0,0,0,211.7,48"/><path class="cls-4" d="M213.68,47.6v-.39h1.2v.33c0,1,.47,1.46,1.21,1.46a1.11,1.11,0,0,0,1.21-1.18c0-1.38-1.89-1.79-1.89-3.45V44h1.2v.28c0,1.32,1.92,1.42,1.92,3.52a2.22,2.22,0,0,1-2.44,2.31,2.25,2.25,0,0,1-2.41-2.51"/><path class="cls-4" d="M219.4,48v-2.3a1.86,1.86,0,0,1,2-1.73h2.35v1h-2.17c-.53,0-1,.25-1,.82v.79a1.56,1.56,0,0,1,1.46-.66A2.05,2.05,0,0,1,224.18,48a2.17,2.17,0,0,1-2.4,2.07A2.13,2.13,0,0,1,219.4,48m3.54,0a1.18,1.18,0,0,0-2.34,0,1.17,1.17,0,0,0,2.34,0"/><path class="cls-4" d="M224.91,47.89v-.25h1.19v.19A1.15,1.15,0,0,0,227.36,49c.78,0,1.25-.31,1.25-1s-.47-.91-1.26-.91h-.51V46h.62c.72,0,1-.28,1-.92V44h1.19v1.26a1.28,1.28,0,0,1-1,1.29,1.51,1.51,0,0,1,1.2,1.62c0,1.09-1,1.94-2.47,1.94a2.19,2.19,0,0,1-2.46-2.22"/><path class="cls-4" d="M230.85,46.36a2.32,2.32,0,1,1,4.64,0V50H234.3V46.38c0-.94-.48-1.38-1.13-1.38s-1.12.44-1.12,1.38V50h-1.2Z"/></svg>