<?xml version="1.0" encoding="utf-8"?>
<!-- Generator: Adobe Illustrator 26.0.3, SVG Export Plug-In . SVG Version: 6.00 Build 0)  -->
<svg version="1.1" id="Layer_1" xmlns="http://www.w3.org/2000/svg" xmlns:xlink="http://www.w3.org/1999/xlink" x="0px" y="0px"
	 viewBox="0 0 335 94" style="enable-background:new 0 0 335 94;" xml:space="preserve">
<style type="text/css">
	.st0{fill:#756C66;}
</style>
<g>
	<g>
		<path class="st0" d="M161.6,38c0.2-0.8,0.7-1.1,1.4-1.1s1.1,0.5,1.4,1.1c0.1-0.1,0.1-0.2,0.2-0.3c0.4-0.6,0.9-0.9,1.6-0.8
			c0.7,0.1,1.2,0.5,1.4,1.1c0.4,1.2,0.2,2.3-0.6,3.2c0,0.1-0.1,0.1-0.2,0.1c-0.3,0-0.5,0-0.9,0c0.1-0.1,0.1-0.2,0.2-0.2
			c0.3-0.4,0.6-0.8,0.8-1.2c0.2-0.5,0.2-1.1,0-1.7c-0.1-0.3-0.3-0.5-0.5-0.7c-0.4-0.3-1.1-0.1-1.4,0.3c-0.2,0.3-0.2,0.6-0.3,1
			c0,0.3,0,0.7,0,1c0,0.1,0,0.2,0,0.3c-0.3,0.1-0.5,0.1-0.7,0c0-0.4,0-0.8,0-1.3c0-0.2,0-0.4-0.1-0.7c-0.1-0.2-0.1-0.4-0.3-0.6
			c-0.4-0.5-1.2-0.5-1.5,0.1c-0.2,0.3-0.2,0.7-0.2,1.1c0,0.3,0,0.7,0,1c0,0.1,0,0.2,0,0.3c-0.2,0-0.4,0-0.7,0c0-0.1,0-0.2,0-0.3
			c0-0.4,0-0.7,0-1.1c0-0.4-0.1-0.8-0.5-1.2c-0.3-0.3-0.8-0.4-1.2-0.1c-0.3,0.2-0.4,0.5-0.5,0.8c-0.1,0.6-0.1,1.2,0,1.7
			c0.2,1.1,0.9,1.9,2,2.3c0.8,0.3,1.6,0.4,2.5,0.4c0.5,0,1,0,1.4,0c0.1,0,0.2,0,0.3,0c0,0.2,0,0.4,0,0.6c-0.1,0-0.1,0-0.2,0
			c-0.8,0-1.6,0-2.3,0c-1.2-0.1-2.3-0.4-3.3-1.2c-0.7-0.6-1.1-1.3-1.2-2.2c-0.1-0.7-0.1-1.4,0.2-2c0.3-0.9,1.3-1.4,2.1-1.1
			c0.3,0.1,0.6,0.3,0.8,0.6C161.4,37.7,161.5,37.8,161.6,38z"/>
		<path class="st0" d="M153.5,38.2c0.1-0.1,0.1-0.2,0.2-0.3c0.1-0.2,0.3-0.4,0.5-0.6c0.6-0.7,2.2-0.5,2.6,0.5
			c0.2,0.4,0.3,0.7,0.4,1.1c0.1,1,0.1,2-0.2,3c-0.2,0.6-0.5,1.1-0.9,1.5c-0.1,0.2-0.3,0.2-0.5,0.2c-0.2,0-0.3,0-0.6,0
			c0.1-0.1,0.2-0.2,0.3-0.3c0.8-0.7,1.1-1.6,1.2-2.6c0.1-0.8,0-1.5-0.1-2.3c0-0.2-0.1-0.3-0.2-0.5c-0.3-0.7-1.2-0.8-1.7-0.2
			c-0.3,0.3-0.4,0.7-0.6,1c-0.1,0.1,0,0.2,0,0.3c0.1,0.5,0.1,1.1,0.1,1.6c0,0.7-0.1,1.3-0.4,1.9c-0.4,0.8-1.2,1.1-2,1
			c-0.9-0.1-1.4-0.5-1.7-1.4c-0.2-0.5-0.3-1-0.3-1.4c0-0.9-0.1-1.7,0.2-2.5c0.1-0.2,0.2-0.4,0.3-0.6c0.2-0.4,0.6-0.6,1-0.8
			c0.3-0.1,0.6-0.1,1-0.1c0.5,0.1,0.8,0.3,1.1,0.7C153.3,37.7,153.4,37.9,153.5,38.2z M150.3,40.2c0,0.2,0,0.5,0,0.7
			c0.1,0.5,0.1,1,0.4,1.5c0.2,0.4,0.6,0.6,1.1,0.6c0.5,0,0.9-0.2,1.1-0.6c0.1-0.3,0.2-0.5,0.3-0.8c0.2-0.8,0.2-1.6,0.1-2.4
			c-0.1-0.4-0.1-0.8-0.3-1.1c-0.2-0.4-0.6-0.6-1-0.6c-0.5,0-0.9,0.2-1.1,0.6c-0.1,0.2-0.2,0.3-0.2,0.5
			C150.3,39.1,150.3,39.6,150.3,40.2z"/>
		<path class="st0" d="M214.6,38.2c0.1-0.1,0.1-0.2,0.2-0.3c0.1-0.2,0.3-0.4,0.5-0.6c0.6-0.7,2.2-0.5,2.6,0.4
			c0.2,0.4,0.3,0.8,0.4,1.2c0.1,1,0.1,2.1-0.2,3.1c-0.2,0.5-0.5,1-0.9,1.4c-0.1,0.1-0.2,0.2-0.4,0.2c-0.2,0-0.4,0-0.6,0
			c0,0,0,0,0-0.1c0.1-0.1,0.2-0.1,0.2-0.2c0.7-0.7,1.1-1.6,1.2-2.6c0.1-0.8,0-1.5-0.1-2.3c0-0.2-0.1-0.3-0.2-0.5
			c-0.3-0.7-1.2-0.8-1.6-0.2c-0.3,0.3-0.4,0.7-0.6,1.1c-0.1,0.1,0,0.2,0,0.3c0.1,0.5,0.1,1.1,0.1,1.6c0,0.7-0.1,1.3-0.4,1.9
			c-0.4,0.8-1.2,1.1-2,1c-0.9-0.1-1.4-0.6-1.7-1.4c-0.2-0.5-0.3-1-0.3-1.4c0-0.8-0.1-1.7,0.2-2.5c0.1-0.2,0.2-0.4,0.3-0.6
			c0.2-0.4,0.6-0.7,1-0.8c0.3-0.1,0.7-0.1,1-0.1c0.5,0.1,0.8,0.4,1.1,0.7C214.3,37.7,214.4,37.9,214.6,38.2z M211.3,40.2
			c0,0.1,0,0.3,0,0.4c0,0.6,0.1,1.2,0.4,1.8c0.2,0.4,0.6,0.6,1.1,0.6c0.5,0,0.9-0.2,1.1-0.7c0.1-0.2,0.2-0.5,0.3-0.8
			c0.2-0.8,0.2-1.6,0.1-2.5c-0.1-0.4-0.1-0.8-0.3-1.1c-0.2-0.4-0.6-0.6-1-0.6c-0.5,0-0.9,0.2-1.1,0.6c-0.1,0.2-0.2,0.3-0.2,0.5
			C211.4,39.1,211.3,39.6,211.3,40.2z"/>
		<path class="st0" d="M155,53.7c0.1,0.1,0.1,0.1,0.2,0.2c0.5,0.4,0.7,0.9,0.6,1.5c-0.1,0.9-0.6,1.5-1.5,1.7
			c-1.2,0.3-2.3,0.2-3.4-0.4c-0.1-0.1-0.2-0.1-0.3-0.2c-0.1-0.1-0.2-0.1-0.3-0.2c0.1-0.1,0.3-0.3,0.4-0.5c0.1,0.1,0.2,0.1,0.3,0.2
			c1,0.8,2.2,0.8,3.4,0.3c0.7-0.3,0.8-1.2,0.6-1.7c-0.1-0.2-0.2-0.3-0.5-0.4c-0.1,0-0.2-0.1-0.3-0.1c0-0.2,0-0.3,0-0.5
			c0.1,0,0.1-0.1,0.2-0.1c0.3-0.1,0.5-0.3,0.6-0.6c0.1-0.3,0.1-0.7,0-1c-0.1-0.3-0.3-0.5-0.6-0.6c-0.5-0.2-1,0-1.3,0.4
			c-0.1,0.1-0.1,0.3-0.1,0.4c0.1,0.4,0.1,0.8,0.1,1.2c-0.1,0.7-0.3,1.3-1,1.7c-1.3,0.8-3,0-3.2-1.6c-0.1-0.5-0.1-1,0.1-1.6
			c0.3-0.8,0.9-1.3,1.8-1.3c0.8,0,1.1,0.1,1.8,0.7c0.3-0.3,0.6-0.6,1-0.7c0.4,0,0.7,0,1.1,0.1c0.2,0.1,0.4,0.2,0.6,0.4
			c0.4,0.4,0.5,0.9,0.4,1.5C155.8,53,155.4,53.4,155,53.7z M149.7,52.8c0,0.5,0.1,0.9,0.4,1.3c0.3,0.4,0.7,0.5,1.2,0.4
			c0.5-0.1,0.8-0.5,1-0.9c0.2-0.6,0.2-1.2,0-1.8c-0.1-0.3-0.3-0.5-0.5-0.7c-0.7-0.3-1.6-0.3-1.9,0.8
			C149.8,52.2,149.8,52.5,149.7,52.8z"/>
		<path class="st0" d="M160.7,54.4c-0.3,0-0.5,0-0.7,0c0-0.1,0-0.2,0-0.3c0-0.5,0-1.1,0-1.6c0-0.5-0.3-1-0.7-1.3
			c-0.5-0.4-1.3-0.1-1.5,0.5c-0.1,0.2-0.1,0.4-0.1,0.6c-0.1,0.8-0.2,1.6,0,2.4c0.2,0.9,0.7,1.6,1.4,2.2c0.1,0.1,0.1,0.1,0.2,0.2
			c0,0,0.1,0.1,0.1,0.1c-0.3,0-0.6,0-0.9,0c-0.1,0-0.1-0.1-0.2-0.1c-0.7-0.7-1.2-1.6-1.3-2.6c-0.1-0.9-0.1-1.8,0.1-2.7
			c0.2-0.8,0.7-1.2,1.4-1.3c0.8-0.1,1.3,0.1,1.8,0.8c0.1,0.1,0.1,0.2,0.2,0.3c0.1-0.1,0.2-0.2,0.3-0.3c0.2-0.3,0.5-0.6,0.9-0.8
			c1-0.4,2.1,0.2,2.3,1.3c0.2,1.1,0.3,2.1,0,3.2c-0.2,0.8-0.6,1.4-1.2,2c-0.1,0.1-0.2,0.2-0.4,0.2c-0.2,0-0.5,0-0.7,0c0,0,0,0,0-0.1
			c0.1-0.1,0.1-0.1,0.2-0.2c0.8-0.8,1.4-1.6,1.5-2.7c0.1-0.8,0.1-1.6-0.1-2.3c-0.1-0.2-0.2-0.5-0.3-0.6c-0.5-0.4-1.2-0.3-1.6,0.1
			c-0.3,0.4-0.5,0.8-0.5,1.2c0,0.5,0,1,0,1.4C160.7,54.2,160.7,54.3,160.7,54.4z"/>
		<path class="st0" d="M199.5,57.1c0.3-0.3,0.5-0.5,0.7-0.8c0.9-1,1.2-2.2,1-3.5c0-0.3,0-0.5-0.1-0.8c0-0.2-0.1-0.4-0.2-0.6
			c-0.4-0.7-1.3-0.7-1.8-0.1c-0.3,0.4-0.5,0.8-0.5,1.3c0,0.4,0,0.9,0,1.3c0,0.1,0,0.2,0,0.3c-0.2,0.1-0.4,0.1-0.7,0
			c0-0.1,0-0.2,0-0.3c0-0.5,0-1,0-1.5c0-0.5-0.2-1-0.6-1.3c-0.6-0.5-1.4-0.3-1.7,0.4c-0.1,0.2-0.1,0.5-0.2,0.7c-0.1,0.7-0.1,1.4,0,2
			c0.2,1,0.7,1.7,1.4,2.4c0.1,0.1,0.1,0.1,0.2,0.2c0,0,0,0.1,0.1,0.1c-0.3,0-0.6,0-0.9,0c-0.1,0-0.2-0.1-0.3-0.2
			c-0.8-0.7-1.2-1.6-1.3-2.6c-0.1-0.8-0.1-1.6,0.1-2.5c0.2-1.1,1.2-1.5,2-1.4c0.5,0.1,0.8,0.3,1.1,0.7c0.1,0.2,0.2,0.3,0.4,0.5
			c0.1-0.1,0.2-0.3,0.2-0.4c0.6-0.9,1.7-1.1,2.6-0.5c0.2,0.2,0.4,0.4,0.5,0.6s0.2,0.5,0.2,0.8c0.1,1,0.2,1.9-0.1,2.8
			c-0.2,0.8-0.6,1.4-1.2,2c-0.1,0.1-0.2,0.1-0.3,0.1C200.1,57.2,199.9,57.1,199.5,57.1z"/>
		<path class="st0" d="M166.2,52.5c1.1-0.3,1.6-0.1,2.3,1c0.1-0.1,0.1-0.2,0.2-0.3c0.3-0.4,0.6-0.8,1.2-0.9c0.9-0.1,1.7,0.4,2,1.2
			c0.5,1.3,0.1,2.6-1.1,3.4c-0.1,0.1-0.2,0.1-0.3,0.1c-0.3,0-0.5,0-0.9,0c0.2-0.2,0.4-0.4,0.6-0.5c0.4-0.4,0.8-0.8,1-1.3
			c0.3-0.7,0.1-1.4-0.3-2c-0.4-0.5-1.2-0.5-1.6-0.1c-0.4,0.4-0.5,0.9-0.5,1.4c0,0.3,0,0.5,0,0.8c-0.2,0-0.4,0-0.7,0
			c0-0.1,0-0.3,0-0.4c0-0.3,0-0.7-0.1-1.1c-0.1-0.4-0.3-0.7-0.5-0.9c-0.5-0.4-1.4-0.3-1.6,0.3c-0.4,0.8-0.4,1.7,0.2,2.4
			c0.3,0.4,0.6,0.7,1,1c0.1,0.1,0.2,0.1,0.3,0.2c-0.4,0-0.7,0-1,0c-0.1,0-0.2-0.1-0.2-0.1c-1.1-0.8-1.4-1.8-1.1-3.2
			c0.2-1,0.8-1.8,1.5-2.5c0.5-0.5,1.2-0.7,1.8-0.8c0.4-0.1,0.8-0.1,1.2-0.1c0,0.2,0,0.3,0,0.5c-0.3,0.1-0.7,0.1-1,0.1
			c-0.8,0.1-1.4,0.4-2,0.9C166.4,52.1,166.3,52.3,166.2,52.5C166.2,52.4,166.2,52.4,166.2,52.5z"/>
		<path class="st0" d="M206.4,41.9c-0.2,0-0.3,0-0.5,0c-0.1,0-0.1,0-0.2,0c0-0.1,0-0.2,0-0.4c0-0.3,0-0.7-0.1-1.1
			c-0.1-0.4-0.2-0.7-0.5-0.9c-0.5-0.4-1.4-0.3-1.7,0.3c-0.4,0.8-0.3,1.6,0.2,2.4c0.3,0.4,0.6,0.7,1,1c0.1,0.1,0.2,0.1,0.3,0.2
			c-0.4,0-0.7,0-1,0c-0.1,0-0.2-0.1-0.2-0.1c-1.1-0.8-1.4-1.8-1.1-3.2c0.2-1,0.8-1.8,1.5-2.5c0.5-0.5,1.2-0.7,1.8-0.8
			c0.4-0.1,0.8-0.1,1.2-0.1c0,0.2,0,0.3,0,0.5c-0.2,0-0.4,0.1-0.7,0.1c-0.9,0.1-1.7,0.4-2.4,1c-0.1,0.1-0.3,0.2-0.3,0.5
			c0.5-0.2,1-0.3,1.4,0c0.4,0.2,0.7,0.6,0.9,1.1c0.1-0.2,0.2-0.3,0.3-0.5c0.3-0.4,0.6-0.7,1.1-0.7c1-0.1,1.7,0.4,2,1.2
			c0.5,1.3,0.1,2.6-1.1,3.4c-0.1,0.1-0.1,0.1-0.2,0.1c-0.2,0-0.4,0-0.6,0c-0.1,0-0.2,0-0.3,0c0.2-0.2,0.4-0.4,0.6-0.5
			c0.4-0.3,0.8-0.8,0.9-1.3c0.3-0.7,0.2-1.4-0.3-2c-0.4-0.5-1.2-0.5-1.6-0.1c-0.4,0.4-0.5,0.9-0.5,1.4
			C206.4,41.3,206.4,41.6,206.4,41.9z"/>
		<path class="st0" d="M223.4,50.7c0-0.1,0-0.2,0-0.3c0.2,0,0.3,0,0.5,0c0,0.3,0.2,0.3,0.4,0.3c1.2,0.3,1.9,1,2.2,2.2
			c0.1,0.7,0.1,1.4-0.1,2.1c-0.3,1-0.9,1.7-1.9,2c-1,0.2-1.9,0.1-2.7-0.6c-0.5-0.5-0.8-1.1-0.9-1.8c-0.1-0.6-0.1-1.2,0.1-1.8
			c0.3-1.2,1.1-1.9,2.3-2.1C223.3,50.7,223.4,50.7,223.4,50.7z M223.5,51.3c-0.4,0.1-0.7,0.2-1,0.5c-0.5,0.4-0.7,1-0.8,1.6
			c-0.1,0.8,0,1.5,0.3,2.2c0.6,1.1,1.9,1.3,2.7,0.8c0.6-0.3,0.9-0.9,1-1.5c0.1-0.5,0.1-1,0.1-1.5c-0.1-0.6-0.3-1.2-0.8-1.6
			c-0.3-0.2-0.6-0.4-1-0.4c-0.1,0.9,0.1,1.8,0,2.7c-0.3,0-0.5,0-0.7,0C223.4,53.1,223.5,52.2,223.5,51.3z"/>
		<path class="st0" d="M142.9,36.9c0,0.2,0,0.4,0,0.6c-0.1,0-0.3,0-0.4,0c-0.7,0-1.4,0-2.1,0c-0.5,0-0.7,0.3-0.7,0.7
			c0,0.4,0,0.7,0,1.1c0,0.1,0,0.1,0,0.2c0.1-0.1,0.2-0.1,0.2-0.2c0.9-1,2.8-0.7,3.3,0.7c0.3,0.8,0.3,1.6-0.1,2.5
			c-0.2,0.5-0.7,0.9-1.3,1.1c-0.5,0.1-1,0.1-1.5,0c-0.8-0.2-1.3-0.8-1.4-1.7c0-0.4-0.1-0.7-0.1-1.1c0-0.8,0-1.6,0-2.4
			c0-0.2,0-0.4,0.1-0.6c0.1-0.4,0.3-0.7,0.7-0.8c0.2-0.1,0.4-0.1,0.5-0.1c0.8,0,1.6,0,2.4,0C142.8,36.9,142.8,36.9,142.9,36.9z
			 M139.7,41.4c0,0.2,0.1,0.4,0.1,0.7c0.2,0.6,0.7,1,1.3,1c0.7,0,1.2-0.3,1.4-0.9c0.1-0.3,0.1-0.5,0.2-0.8c0.1-0.4,0-0.9-0.2-1.3
			c-0.4-1-1.8-1-2.3-0.3C139.8,40.2,139.7,40.8,139.7,41.4z"/>
		<path class="st0" d="M144.4,53c0.1-0.1,0.2-0.1,0.2-0.2c0.9-0.9,2.8-0.6,3.3,0.8c0.3,0.8,0.3,1.6-0.1,2.3c-0.2,0.6-0.7,1-1.3,1.2
			c-0.5,0.1-0.9,0.1-1.4,0c-0.8-0.2-1.2-0.7-1.4-1.5c-0.1-0.3-0.1-0.6-0.1-0.9c0-1,0-1.9,0-2.9c0-0.2,0-0.4,0.1-0.6
			c0.1-0.3,0.3-0.6,0.6-0.7c0.2-0.1,0.4-0.1,0.6-0.1c0.8,0,1.7,0,2.5,0c0,0,0.1,0,0.1,0c0,0.2,0,0.4,0,0.6c-0.1,0-0.2,0-0.3,0
			c-0.7,0-1.4,0-2.1,0c-0.4,0-0.8,0.2-0.7,0.7c0,0.3,0,0.7,0,1C144.3,52.9,144.4,52.9,144.4,53z M144.3,54.9
			c0.1,0.3,0.1,0.6,0.2,0.9c0.2,0.6,0.7,0.9,1.3,0.9c0.7,0,1.1-0.3,1.4-0.9c0.2-0.6,0.2-1.3,0-1.9c-0.2-0.6-0.6-1-1.3-1
			c-0.7,0-1.2,0.4-1.4,1C144.4,54.2,144.4,54.5,144.3,54.9z"/>
		<path class="st0" d="M195.5,39.3c0-0.5,0.1-0.9-0.1-1.3c-0.1-0.3-0.3-0.4-0.5-0.5c-0.5-0.2-1.1-0.2-1.6,0
			c-0.2,0.1-0.3,0.2-0.4,0.5c-0.3,0-0.5,0-0.8,0c0-0.4,0.1-0.6,0.4-0.8c0.3-0.1,0.5-0.2,0.8-0.3c0.5-0.1,1-0.1,1.6,0
			c0.8,0.2,1.3,0.8,1.3,1.7c0,0.9,0,1.8,0,2.7c0,0.4-0.1,0.8-0.2,1.2c-0.2,0.5-0.5,0.8-1,1c-0.7,0.3-1.5,0.3-2.2-0.1
			c-0.4-0.2-0.7-0.5-0.8-0.9c-0.3-0.8-0.4-1.6-0.1-2.5c0.3-0.8,1-1.2,1.8-1.3c0.5,0,1,0.1,1.4,0.5C195.4,39.2,195.4,39.3,195.5,39.3
			z M192.6,41.1c0,0.4,0,0.8,0.2,1.1c0.3,0.6,0.8,0.8,1.5,0.8c0.6,0,1-0.4,1.2-1c0.1-0.5,0.1-1,0.1-1.5c-0.1-0.8-0.5-1.2-1.4-1.3
			c-0.5,0-0.9,0.1-1.2,0.6C192.7,40.2,192.6,40.7,192.6,41.1z"/>
		<path class="st0" d="M176.7,52.9c0-0.4,0-0.8,0-1.2c0-0.3-0.2-0.5-0.5-0.6c-0.6-0.3-1.2-0.3-1.8,0c-0.2,0.1-0.3,0.3-0.4,0.4
			c-0.2,0-0.4,0-0.7,0c0-0.4,0.1-0.7,0.5-0.8c0.2-0.1,0.5-0.2,0.8-0.3c0.5-0.1,1.1-0.1,1.6,0c0.7,0.2,1.3,0.8,1.3,1.6c0,1,0,2,0,3.1
			c0,0.3-0.1,0.6-0.2,0.9c-0.2,0.5-0.6,0.8-1.1,1c-0.6,0.2-1.2,0.2-1.7,0c-0.5-0.2-1-0.5-1.2-1.1c-0.3-0.7-0.3-1.5-0.1-2.3
			c0.3-0.9,1-1.4,1.9-1.4c0.5,0,1,0.1,1.4,0.5C176.5,52.8,176.6,52.8,176.7,52.9z M176.7,54.8c0-0.2,0-0.3,0-0.5
			c-0.1-0.7-0.3-1.4-1.4-1.4c-0.7,0-1.3,0.3-1.5,1.2c-0.1,0.5-0.1,1,0.1,1.5c0.2,0.9,1,1.3,1.8,1c0.4-0.1,0.7-0.3,0.8-0.7
			C176.7,55.5,176.7,55.1,176.7,54.8z"/>
		<path class="st0" d="M236.3,52.9c0-0.4,0-0.8,0-1.1c0-0.3-0.2-0.6-0.5-0.7c-0.6-0.3-1.2-0.2-1.7,0c-0.2,0.1-0.3,0.3-0.5,0.4
			c-0.2,0-0.4,0-0.6,0c-0.1-0.3,0.1-0.6,0.4-0.8c0.3-0.2,0.7-0.3,1.1-0.3c0.4,0,0.8,0,1.3,0.1c0.7,0.2,1.4,0.7,1.3,1.6c0,1,0,2,0,3
			c0,0.3-0.1,0.6-0.2,0.9c-0.2,0.5-0.5,0.8-1.1,1c-0.6,0.2-1.2,0.2-1.8,0c-0.5-0.2-0.9-0.5-1.1-1.1c-0.3-0.8-0.3-1.5-0.1-2.3
			c0.3-0.8,1-1.3,1.9-1.4c0.5,0,1,0.1,1.4,0.5C236.2,52.8,236.2,52.8,236.3,52.9z M236.3,54.8c0-0.2,0-0.3,0-0.5
			c-0.1-0.7-0.4-1.4-1.4-1.4c-0.7,0-1.3,0.3-1.5,1.2c-0.1,0.5-0.1,1,0,1.4c0.2,0.9,1,1.3,1.8,1c0.4-0.1,0.6-0.3,0.8-0.7
			C236.3,55.5,236.4,55.1,236.3,54.8z"/>
		<path class="st0" d="M186.5,50.4c0.2,0,0.4,0,0.6,0c0.1,0.4,0.4,0.6,0.8,0.8c0.6,0.3,0.8,0.7,0.5,1.5c-0.1,0.2-0.3,0.3-0.4,0.4
			c-0.1,0.1-0.2,0.1-0.3,0.2c0.1,0.1,0.2,0.1,0.3,0.2c0.5,0.3,0.7,0.7,0.7,1.2c0,0.2,0,0.4-0.1,0.7c-0.2,1-0.8,1.4-1.7,1.6
			c-0.7,0.2-1.4,0.1-2-0.4c-0.5-0.3-0.8-0.8-1-1.3c-0.3-0.8-0.3-1.6-0.3-2.5c0.1-0.8,0.3-1.5,0.6-2.3c0.1-0.2,0.2-0.3,0.5-0.3
			c0.1,0,0.3,0,0.5,0c-0.1,0.1-0.1,0.2-0.1,0.3c-0.3,0.6-0.5,1.3-0.6,1.9c-0.1,0.9-0.1,1.7,0.2,2.5c0.1,0.4,0.3,0.7,0.7,1
			c0.8,0.8,2.3,0.4,2.6-0.7c0.1-0.3,0.1-0.5,0.1-0.8c0-0.6-0.4-0.9-1-0.9c-0.2,0-0.3,0-0.5,0c0-0.2,0-0.3,0-0.5c0.1,0,0.3,0,0.4,0
			c0.6,0,0.8-0.3,0.8-0.9c0-0.3-0.2-0.4-0.4-0.6c-0.1-0.1-0.2-0.1-0.3-0.2C186.7,51.3,186.5,50.9,186.5,50.4z"/>
		<path class="st0" d="M131.5,39.2c0.2,0.2,0.4,0.4,0.6,0.5c1,0.9,0.7,3-0.5,3.6c-0.5,0.2-1,0.3-1.5,0.3c-0.3,0-0.6-0.1-0.9-0.2
			c-0.9-0.4-1.3-1.1-1.3-2c0-0.3,0-0.7,0.1-1c0.2-0.7,0.7-1.1,1.4-1.3c0.4-0.1,0.8-0.2,1.2-0.1c0.2,0,0.3,0,0.3-0.2
			c0.1-0.2,0.1-0.4,0.1-0.5c0-0.3-0.1-0.5-0.4-0.7c-0.4-0.2-0.8-0.2-1.2,0c-0.3,0.1-0.4,0.3-0.4,0.7c0,0.1,0,0.1,0,0.2
			c-0.2,0-0.4,0.1-0.6,0.1c-0.3-0.5-0.1-1,0.4-1.3c0.7-0.4,1.4-0.4,2.1-0.1c0.6,0.3,0.8,0.9,0.6,1.5C131.7,38.8,131.6,39,131.5,39.2
			z M132.1,41.3L132.1,41.3c0-0.1,0-0.2,0-0.3c-0.1-0.6-0.3-1.2-1.1-1.4c-0.4-0.1-0.8-0.1-1.2,0c-0.4,0.1-0.7,0.4-0.9,0.8
			c-0.2,0.5-0.2,1,0,1.6c0.1,0.4,0.4,0.7,0.8,0.9c0.5,0.2,1,0.2,1.4,0.1c0.5-0.1,0.9-0.5,1-1C132,41.7,132,41.5,132.1,41.3z"/>
		<path class="st0" d="M220.2,39c-0.2,0.1-0.4,0.1-0.6,0.2c-0.4-0.5-0.3-1.1,0.1-1.5c0.4-0.5,0.8-0.8,1.4-0.8
			c0.6-0.1,1.2,0.1,1.8,0.5c0.9,0.7,0.7,1.8,0.1,2.3c-0.1,0.1-0.2,0.1-0.2,0.2c-0.1,0.1-0.1,0.1-0.2,0.2c0.1,0.1,0.2,0.1,0.3,0.2
			c0.5,0.2,0.7,0.6,0.7,1.1c0,0.3,0,0.5,0,0.8c-0.1,0.7-0.7,1.2-1.5,1.4c-0.5,0.1-1,0.1-1.4-0.1c-0.8-0.2-1.3-0.9-1.3-1.7
			c0-0.5,0.1-0.8,0.3-1.2c0.2,0.1,0.4,0.1,0.6,0.2c0,0.3-0.1,0.5-0.1,0.7c0,0.2,0,0.4,0,0.5c0.1,0.5,0.6,0.9,1.1,1
			c0.2,0,0.5,0,0.7,0c0.6-0.2,0.9-0.6,0.9-1.2c0-0.3,0-0.5-0.1-0.8c-0.1-0.5-0.5-0.8-1-0.8c-0.1,0-0.3,0-0.4,0
			c-0.1-0.2-0.1-0.4,0-0.6c0.1,0,0.3,0,0.4,0c0.4,0,0.6-0.2,0.8-0.5c0.1-0.2,0.1-0.4,0.1-0.6c0-0.4-0.2-0.8-0.6-0.9
			c-0.4-0.2-0.8-0.2-1.2,0c-0.5,0.1-0.7,0.5-0.7,1C220.1,38.6,220.2,38.8,220.2,39z"/>
		<path class="st0" d="M180.7,43.5C180.7,43.5,180.7,43.5,180.7,43.5c-1,0-0.8,0.1-1.1-0.6c-0.4-1.1-0.6-2.2-0.5-3.3
			c0-0.8,0.2-1.5,0.8-2.1c0.7-0.8,2.1-0.8,2.7,0c0.4,0.5,0.6,1,0.7,1.6c0.2,1.5,0,2.9-0.6,4.2c-0.1,0.2-0.2,0.3-0.4,0.3
			c-0.1,0-0.3,0-0.5,0c0-0.1,0-0.2,0.1-0.2c0.3-0.8,0.6-1.7,0.8-2.6c0.1-0.7,0.1-1.4-0.1-2.1c-0.1-0.2-0.2-0.5-0.3-0.7
			c-0.5-0.8-1.4-0.7-1.8,0c-0.2,0.4-0.3,0.8-0.4,1.2c-0.1,0.9,0,1.8,0.3,2.7c0.1,0.5,0.3,0.9,0.5,1.4
			C180.7,43.3,180.7,43.4,180.7,43.5z"/>
		<path class="st0" d="M140,57.1c-0.3,0-0.5,0-0.7,0c-0.1,0-0.1-0.1-0.2-0.2c-0.3-0.6-0.5-1.3-0.6-2c-0.1-0.7-0.1-1.3-0.1-2
			c0.1-0.7,0.3-1.3,0.7-1.8c0.7-0.9,2.2-0.9,2.8,0c0.4,0.5,0.6,1.2,0.7,1.9c0.1,1.3-0.1,2.6-0.6,3.8c0,0.1-0.1,0.2-0.1,0.2
			c0,0.1-0.1,0.1-0.1,0.1c-0.2,0-0.5,0-0.7,0c0.1-0.4,0.3-0.7,0.4-1c0.3-0.9,0.5-1.8,0.5-2.8c0-0.6-0.1-1.1-0.4-1.6
			c-0.1-0.3-0.3-0.5-0.7-0.6c-0.5-0.2-1,0.1-1.3,0.6c-0.3,0.5-0.4,1-0.4,1.5c0,1.2,0.3,2.3,0.7,3.4C139.9,56.7,139.9,56.8,140,57.1z
			"/>
		<path class="st0" d="M192.3,57.1c0.1-0.4,0.3-0.7,0.4-1c0.3-0.9,0.5-1.8,0.5-2.8c0-0.6-0.1-1.1-0.4-1.6c-0.2-0.3-0.4-0.5-0.7-0.6
			c-0.5-0.1-1,0.1-1.3,0.6c-0.3,0.5-0.4,1-0.4,1.5c0,1.2,0.3,2.3,0.7,3.4c0.1,0.2,0.1,0.3,0.2,0.5c0,0,0,0,0,0.1
			c-0.2,0.1-0.5,0.1-0.7,0c-0.1,0-0.1-0.1-0.2-0.2c-0.3-0.6-0.5-1.3-0.6-2.1c-0.1-0.6-0.1-1.3-0.1-1.9c0.1-0.7,0.3-1.3,0.7-1.8
			c0.7-0.9,2.1-0.9,2.8,0c0.4,0.6,0.6,1.2,0.7,1.9c0.1,1.3-0.1,2.6-0.6,3.8c0,0.1-0.1,0.1-0.1,0.2c0,0.1-0.1,0.1-0.2,0.1
			C192.8,57.1,192.6,57.1,192.3,57.1z"/>
		<path class="st0" d="M212.2,57.1c-0.3,0-0.5,0-0.7,0c-0.1,0-0.2-0.1-0.2-0.2c-0.3-0.7-0.5-1.3-0.6-2.1c-0.1-0.7-0.1-1.3-0.1-2
			c0.1-0.7,0.3-1.3,0.7-1.8c0.7-0.8,2.1-0.9,2.8,0c0.4,0.6,0.6,1.2,0.7,1.9c0.1,1.3-0.1,2.6-0.6,3.8c0,0.1-0.1,0.2-0.1,0.2
			c0,0-0.1,0.1-0.1,0.1c-0.2,0-0.5,0-0.7,0c0.1-0.2,0.1-0.3,0.1-0.4c0.4-1,0.7-2,0.8-3c0-0.7,0-1.4-0.4-2.1
			c-0.1-0.3-0.3-0.5-0.7-0.6c-0.5-0.2-1,0.1-1.3,0.6c-0.3,0.5-0.4,1-0.4,1.5c0,1.2,0.3,2.3,0.7,3.4C212,56.7,212.1,56.8,212.2,57.1z
			"/>
		<path class="st0" d="M227.1,43.5c0.1-0.1,0.1-0.2,0.1-0.3c0.4-1,0.7-2,0.8-3c0-0.7,0-1.4-0.4-2.1c-0.1-0.3-0.3-0.5-0.7-0.6
			c-0.5-0.2-1,0.1-1.3,0.6c-0.3,0.5-0.4,1-0.4,1.5c0,1.2,0.3,2.3,0.7,3.4c0.1,0.2,0.1,0.3,0.2,0.5c-0.3,0.1-0.5,0.1-0.8,0
			c-0.1,0-0.1-0.1-0.1-0.2c-0.3-0.7-0.5-1.3-0.6-2.1c-0.1-0.7-0.1-1.3-0.1-2c0.1-0.7,0.3-1.3,0.7-1.8c0.7-0.8,2.1-0.9,2.8,0
			c0.4,0.6,0.7,1.2,0.7,1.9c0.1,1.3-0.1,2.6-0.6,3.8c0,0.1-0.1,0.2-0.1,0.2c0,0-0.1,0.1-0.1,0.1C227.6,43.5,227.4,43.5,227.1,43.5z"
			/>
		<path class="st0" d="M227.9,54c0.2,0.1,0.4,0.2,0.6,0.2c0,0.1-0.1,0.2-0.1,0.3c-0.2,0.5-0.1,1.5,0.6,1.9c0.7,0.5,1.7,0.2,1.9-0.6
			c0.1-0.2,0.1-0.5,0.1-0.7c0-0.9,0-1.8,0-2.7c0-0.4-0.1-0.8-0.4-1.1c-0.4-0.3-1.3-0.5-1.7,0c-0.3,0.3-0.3,0.7-0.2,1.1
			c0,0.1,0,0.2,0.1,0.3c-0.2,0.1-0.4,0.1-0.6,0.2c-0.6-1,0.1-2,0.8-2.3c0.6-0.2,1.2-0.2,1.8,0c0.5,0.2,0.9,0.6,1,1.2
			c0.1,0.2,0.1,0.5,0.1,0.7c0,0.8,0,1.7,0,2.5c0,0.3-0.1,0.6-0.1,0.9c-0.2,0.6-0.7,1-1.3,1.2c-0.4,0.1-0.8,0.1-1.2,0
			c-0.8-0.2-1.2-0.7-1.4-1.5C227.5,55.1,227.5,54.5,227.9,54z"/>
		<path class="st0" d="M169,40.4c0.2,0.1,0.3,0.1,0.6,0.2c0,0.1-0.1,0.2-0.1,0.2c-0.2,0.5-0.1,1.5,0.6,1.9c0.7,0.4,1.6,0.1,1.9-0.6
			c0.1-0.2,0.1-0.5,0.1-0.7c0-0.9,0-1.9,0-2.8c0-0.2,0-0.4-0.1-0.6c-0.3-0.7-1.4-0.9-2-0.3c-0.3,0.3-0.3,0.7-0.2,1
			c0,0.1,0,0.2,0.1,0.3c-0.2,0.1-0.4,0.1-0.6,0.2c-0.6-1.1,0.1-2.2,1-2.3c0.5-0.1,1-0.1,1.5,0c0.7,0.2,1.1,0.7,1.2,1.4
			c0,0.3,0.1,0.6,0.1,0.8c0,0.7,0,1.5,0,2.2c0,0.3-0.1,0.6-0.1,0.9c-0.2,0.6-0.7,1-1.3,1.2c-0.4,0.1-0.9,0.1-1.3,0
			c-0.6-0.2-1-0.5-1.2-1.1c-0.2-0.6-0.3-1.2,0-1.8C168.9,40.6,168.9,40.5,169,40.4C169,40.5,169,40.5,169,40.4z"/>
		<path class="st0" d="M175.8,38.8c0.1-0.4,0-0.7-0.3-0.9s-0.5-0.5-0.5-1c0.2-0.1,0.5-0.1,0.7,0c0.1,0,0.1,0.1,0.1,0.1
			c0.1,0.2,0.2,0.4,0.3,0.5c0.3,0.3,0.3,0.6,0.3,1c0,0.3,0,0.3,0.2,0.3c0.8,0.3,1.5,1,1.5,2c0,0.4,0,0.9-0.1,1.3
			c-0.3,0.8-0.8,1.3-1.6,1.4c-0.4,0.1-0.7,0.1-1.1,0c-0.7-0.2-1.2-0.6-1.4-1.3c-0.2-0.6-0.2-1.3-0.1-2c0.2-0.8,0.7-1.2,1.5-1.4
			C175.5,38.8,175.6,38.8,175.8,38.8z M174.5,41.2c0.1,0.3,0.1,0.6,0.2,0.9c0.2,0.6,0.7,0.9,1.2,1c0.6,0,1.1-0.2,1.4-0.8
			c0.1-0.2,0.1-0.4,0.2-0.6c0.1-0.6,0-1.1-0.3-1.6c-0.7-1-2-0.6-2.4,0.2C174.6,40.5,174.5,40.8,174.5,41.2z"/>
		<path class="st0" d="M184.4,36.9c0.2,0,0.4,0,0.7,0c0,0.1,0,0.2,0,0.4c0,1.3,0,2.6,0,3.9c0,0.4,0.1,0.7,0.2,1.1
			c0.3,0.6,0.7,0.8,1.3,0.8c0.5-0.1,1-0.5,1.1-1c0.2-0.7,0-1.4-0.5-1.9c-0.1-0.1-0.2-0.2-0.3-0.4c-0.3-0.4-0.4-0.9-0.3-1.4
			c0.1,0,0.2,0,0.3,0c0.1,0,0.2,0,0.3,0c0,0.1,0,0.3,0,0.4c0,0.2,0,0.3,0.1,0.5c0.2,0.2,0.3,0.4,0.5,0.5c0.8,0.7,0.9,1.9,0.5,2.8
			c-0.2,0.5-0.7,0.9-1.2,1c-0.3,0.1-0.7,0.1-1,0.1c-0.7-0.1-1.2-0.5-1.5-1.2c-0.2-0.4-0.2-0.8-0.2-1.3c0-1.3,0-2.7,0-4
			C184.3,37.1,184.4,37,184.4,36.9z"/>
		<path class="st0" d="M207.7,51.9c0.2,0,0.4,0,0.6,0c0,0.1,0,0.3,0,0.4c0,0.2,0,0.4,0.2,0.5c0.2,0.2,0.3,0.4,0.5,0.5
			c0.8,0.7,0.9,2,0.5,2.8c-0.2,0.5-0.7,0.8-1.2,1c-0.3,0.1-0.7,0.1-1,0.1c-0.8-0.1-1.2-0.6-1.5-1.3c-0.1-0.4-0.2-0.8-0.2-1.2
			c0-1.3,0-2.7,0-4c0-0.1,0-0.1,0-0.2c0.2-0.1,0.4,0,0.7-0.1c0,0.1,0,0.3,0,0.4c0,1.3,0,2.6,0,3.9c0,0.4,0.1,0.7,0.2,1
			c0.3,0.6,0.7,0.8,1.3,0.8c0.5-0.1,1-0.5,1.1-1c0.2-0.7,0-1.4-0.5-1.9c-0.1-0.1-0.2-0.2-0.3-0.3C207.6,52.9,207.5,52.5,207.7,51.9z
			"/>
		<path class="st0" d="M130.3,51.9c0.2,0,0.4,0,0.6,0c0,0.1,0,0.2,0,0.3c0,0.2,0,0.4,0.2,0.6c0.1,0.2,0.3,0.3,0.5,0.5
			c0.8,0.7,0.9,2,0.5,2.8c-0.2,0.5-0.7,0.8-1.2,1c-0.3,0.1-0.7,0.1-1,0.1c-0.7-0.1-1.2-0.5-1.5-1.2c-0.2-0.4-0.2-0.8-0.2-1.3
			c0-1.3,0-2.7,0-4c0-0.1,0-0.1,0-0.2c0.2-0.1,0.4,0,0.7,0c0,0.1,0,0.3,0,0.4c0,1.3,0,2.6,0,3.9c0,0.4,0.1,0.7,0.2,1.1
			c0.3,0.6,0.7,0.8,1.3,0.8c0.5-0.1,1-0.5,1.1-1c0.2-0.7,0-1.4-0.5-1.9c-0.1-0.1-0.2-0.2-0.3-0.3C130.2,52.9,130.1,52.4,130.3,51.9z
			"/>
		<path class="st0" d="M231.9,38.3c0.2,0,0.4,0,0.7,0c0,0.1,0,0.2,0,0.3c-0.1,0.3,0,0.5,0.2,0.7c0.1,0.2,0.3,0.3,0.4,0.5
			c0.8,0.7,0.8,2,0.5,2.8c-0.2,0.5-0.6,0.8-1.1,1c-0.4,0.1-0.8,0.2-1.2,0.1c-0.8-0.1-1.2-0.6-1.5-1.2c-0.2-0.4-0.2-0.8-0.2-1.2
			c0-1.3,0-2.6,0-3.9c0-0.1,0-0.2,0-0.3c0.2,0,0.4,0,0.6,0c0,0.1,0,0.3,0,0.4c0,1.3,0,2.5,0,3.8c0,0.4,0.1,0.8,0.3,1.2
			c0.3,0.5,0.7,0.7,1.2,0.7c0.5-0.1,0.9-0.3,1.1-0.9c0.3-0.8,0.1-1.5-0.5-2.1c-0.1-0.1-0.1-0.1-0.2-0.2
			C231.9,39.5,231.8,38.9,231.9,38.3z"/>
		<path class="st0" d="M218,51.9c0.2,0,0.4,0,0.7,0c0,0.1,0,0.2,0,0.3c-0.1,0.2,0,0.4,0.2,0.6c0.1,0.2,0.3,0.4,0.5,0.5
			c0.8,0.7,0.9,2,0.5,2.8c-0.2,0.6-0.7,0.9-1.3,1c-0.3,0.1-0.7,0.1-1,0c-0.6-0.1-1.1-0.4-1.4-1c-0.2-0.4-0.3-0.9-0.3-1.4
			c0-1.3,0-2.7,0-4c0-0.1,0-0.1,0-0.2c0.2-0.1,0.4,0,0.6,0c0,0.1,0,0.3,0,0.4c0,1.3,0,2.5,0,3.8c0,0.4,0.1,0.8,0.3,1.2
			c0.3,0.5,0.7,0.7,1.2,0.7c0.5-0.1,0.9-0.3,1.1-0.8c0.3-0.8,0.1-1.5-0.5-2.1c-0.1-0.1-0.1-0.1-0.2-0.2
			C217.9,53,217.9,52.5,218,51.9z"/>
		<path class="st0" d="M135.4,36.9c0.3,0,0.5,0,0.7,0c0,0.1,0,0.3,0.1,0.4c0.1,0.4,0.3,0.8,0.6,1.1c0.2,0.2,0.4,0.4,0.6,0.7
			c0.5,0.5,0.7,1.2,0.7,1.9c0,0.5-0.1,1-0.3,1.4c-0.3,0.7-0.8,1.1-1.5,1.2c-0.7,0.1-1.3-0.1-1.8-0.6c-0.4-0.4-0.6-0.9-0.6-1.5
			c-0.1-0.5-0.1-1,0-1.5c0-0.1,0.1-0.3,0.2-0.5c0.3,0.1,0.5,0.2,0.7,0.3c-0.2,0.5-0.2,0.9-0.2,1.4c0,0.6,0.2,1.1,0.6,1.5
			c0.5,0.5,1.2,0.5,1.7-0.1c0.5-0.5,0.5-1.2,0.5-1.9c-0.1-0.7-0.5-1.3-1-1.8c-0.6-0.5-0.8-1.2-0.9-1.9
			C135.3,37,135.3,36.9,135.4,36.9z"/>
		<path class="st0" d="M178.7,53c0.3,0.1,0.5,0.2,0.7,0.3c0,0.1-0.1,0.2-0.1,0.3c-0.2,0.8-0.2,1.5,0.2,2.2c0,0.1,0.1,0.2,0.1,0.2
			c0.6,0.7,1.4,0.7,2-0.1c0.5-0.8,0.5-1.6,0.1-2.5c-0.2-0.4-0.5-0.8-0.8-1c-0.6-0.5-0.8-1.1-0.9-1.9c0,0,0-0.1,0-0.1c0,0,0,0,0-0.1
			c0.2,0,0.5,0,0.7,0c0,0.2,0,0.3,0.1,0.4c0.1,0.4,0.3,0.8,0.6,1.1c0.2,0.2,0.4,0.4,0.6,0.6c0.5,0.5,0.7,1.2,0.7,1.9
			c0,0.5-0.1,1-0.3,1.4c-0.3,0.7-0.8,1.1-1.5,1.2c-0.7,0.1-1.3-0.1-1.8-0.6c-0.4-0.4-0.6-0.9-0.6-1.5c-0.1-0.5-0.1-1,0-1.5
			C178.6,53.4,178.6,53.2,178.7,53z"/>
		<path class="st0" d="M238.3,53c0.3,0.1,0.5,0.2,0.7,0.3c0,0.1-0.1,0.2-0.1,0.3c-0.2,0.8-0.2,1.5,0.2,2.2c0.1,0.2,0.3,0.4,0.4,0.5
			c0.5,0.4,1.1,0.3,1.6-0.2c0.3-0.4,0.5-0.9,0.5-1.4c0.1-1-0.3-1.7-1-2.3c-0.6-0.5-0.8-1.1-0.9-1.8c0-0.1,0-0.1,0-0.2
			c0.2,0,0.5,0,0.7,0c0,0.2,0,0.3,0.1,0.5c0.1,0.4,0.3,0.8,0.6,1.1c0.2,0.2,0.5,0.4,0.6,0.7c0.4,0.5,0.6,1.1,0.6,1.8
			c0,0.5,0,1-0.3,1.4c-0.3,0.7-0.8,1.2-1.6,1.3c-0.7,0.1-1.3-0.1-1.8-0.6c-0.4-0.4-0.6-1-0.7-1.5c-0.1-0.5-0.1-1,0-1.5
			C238.2,53.4,238.3,53.2,238.3,53z"/>
		<path class="st0" d="M144.6,39.5c0.3,0.1,0.5,0.2,0.7,0.3c0,0.1-0.1,0.2-0.1,0.3c-0.2,0.8-0.2,1.5,0.2,2.2
			c0.1,0.2,0.2,0.3,0.4,0.5c0.4,0.4,1,0.4,1.4,0c0.4-0.4,0.6-0.8,0.7-1.4c0.1-1-0.3-1.8-1-2.5c-0.5-0.4-0.8-1-0.9-1.7
			c0-0.1,0-0.1,0-0.2c0,0,0-0.1,0-0.1c0.2,0,0.4,0,0.7,0c0,0.1,0,0.1,0.1,0.2c0.1,0.5,0.3,1,0.7,1.4c0.2,0.2,0.4,0.4,0.6,0.7
			c0.4,0.5,0.6,1.1,0.6,1.7c0,0.5,0,1.1-0.2,1.5c-0.3,0.7-0.8,1.2-1.6,1.3c-0.7,0.1-1.3-0.1-1.8-0.7c-0.5-0.5-0.6-1.2-0.7-1.8
			c0-0.3,0-0.7,0.1-1C144.4,39.9,144.5,39.7,144.6,39.5z"/>
		<path class="st0" d="M134.8,50.4c0.3,0,0.5,0,0.7,0c0,0.1,0,0.1,0.1,0.2c0.1,0.5,0.3,1,0.7,1.4c0.2,0.2,0.4,0.4,0.6,0.7
			c0.4,0.5,0.6,1,0.6,1.7c0,0.5,0,1.1-0.2,1.5c-0.3,0.7-0.8,1.2-1.6,1.3c-0.7,0.1-1.3-0.1-1.8-0.7c-0.5-0.5-0.7-1.2-0.7-1.9
			c0-0.3,0-0.7,0.1-1c0-0.2,0.1-0.4,0.2-0.5c0.2,0.1,0.4,0.1,0.6,0.2c0,0.1-0.1,0.2-0.1,0.3c-0.2,0.8-0.2,1.5,0.2,2.3
			c0.1,0.2,0.3,0.4,0.5,0.5c0.5,0.3,1,0.3,1.4-0.1c0.3-0.3,0.4-0.5,0.5-0.9c0.2-1.1-0.1-2.1-1-2.9c-0.5-0.5-0.8-1-0.9-1.7
			C134.8,50.7,134.8,50.6,134.8,50.4z"/>
		<path class="st0" d="M197.5,39.5c0.3,0.1,0.5,0.2,0.7,0.3c0,0.2-0.1,0.3-0.1,0.4c-0.2,0.7-0.1,1.4,0.2,2.1
			c0.1,0.2,0.2,0.3,0.3,0.4c0.5,0.4,1.1,0.4,1.6,0c0.4-0.4,0.5-0.8,0.6-1.3c0.1-1-0.3-1.8-1-2.5c-0.5-0.4-0.8-1-0.9-1.7
			c0-0.1,0-0.2,0-0.3c0.3,0,0.5,0,0.7,0c0,0.1,0,0.2,0.1,0.2c0.1,0.5,0.3,0.9,0.6,1.3c0.2,0.2,0.5,0.4,0.6,0.7
			c0.4,0.5,0.6,1.1,0.6,1.7c0,0.5,0,1-0.2,1.5c-0.3,0.7-0.8,1.2-1.6,1.3c-0.7,0.1-1.3-0.1-1.8-0.7c-0.5-0.5-0.6-1.2-0.7-1.9
			c0-0.3,0-0.7,0.1-1C197.4,39.9,197.5,39.7,197.5,39.5z"/>
	</g>
	<g>
		<path class="st0" d="M100.3,45.9c0-0.4,0-0.7,0-1.1c0-0.4,0.1-0.8,0.1-1.1c0.1-1.5,0.4-3.1,1-4.5c0.7-1.7,1.8-3.1,3.4-4.1
			c1.9-1.2,3.9-1.3,6-0.5c1.3,0.5,2.4,1.2,3.5,2.1c1.5,1.2,2.7,2.6,3.8,4.2c0.9,1.3,1.8,2.7,2.5,4.1c1,2.1,1.8,4.3,2.4,6.6
			c0.3,1.2,0.5,2.5,0.6,3.7c0,0.4,0.1,0.7,0.1,1.1c-0.3-0.6-0.5-1.2-0.8-1.7c-0.8-1.7-1.7-3.4-2.8-5c-0.9-1.2-1.8-2.4-2.9-3.5
			c-1.7-1.7-3.7-3-5.9-3.9c-0.9-0.3-1.8-0.6-2.8-0.7c-1.9-0.1-3.6,0.3-5.2,1.3c-1.1,0.8-2.1,1.7-2.7,2.9
			C100.5,45.8,100.4,45.9,100.3,45.9z"/>
		<path class="st0" d="M92.8,59.3c0.4,0,0.8,0.1,1.1,0.1c0.6,0.1,1.1,0.1,1.7,0.2c1.1,0.1,2.2,0.1,3.3,0.1c2.8-0.1,5.6-0.5,8.3-1.6
			c1.8-0.7,3.4-1.6,4.8-2.9c1.5-1.3,2.5-2.9,2.8-4.9c0.3-1.7,0-3.3-0.8-4.9c-0.1-0.3-0.3-0.6-0.5-0.9c0.3,0.1,0.5,0.3,0.7,0.4
			c1,0.6,2,1.3,2.9,2.1c1.2,1,2.2,2.1,2.9,3.6c0.5,0.9,0.7,1.9,0.8,2.9c0.1,0.9,0,1.8-0.3,2.7c-0.4,1.1-1,2-1.9,2.7
			c-1.1,1-2.4,1.7-3.8,2.2c-1.5,0.5-3,0.9-4.5,1c-0.8,0.1-1.6,0.1-2.4,0.2c-0.8,0.1-1.6,0.1-2.4,0c-1.2,0-2.4-0.1-3.5-0.3
			c-1.4-0.2-2.7-0.5-4-0.9c-1.4-0.4-2.7-0.8-4-1.4C93.6,59.7,93.2,59.6,92.8,59.3z"/>
		<path class="st0" d="M92.6,52.4c0-0.4,0-0.9,0-1.3c0-0.3,0.1-0.5,0.1-0.7c0.2-1.5,0.5-2.9,1-4.3c1-2.9,2.7-5.6,4.6-8
			c0.6-0.8,1.3-1.6,2.1-2.3c1.5-1.5,3.1-2.9,4.8-4.1c0.1,0,0.1-0.1,0.2-0.1c0,0.1-0.1,0.2-0.1,0.2c-1.1,1.3-2,2.7-2.9,4.2
			c-0.9,1.5-1.6,3-2.2,4.7c-0.4,1.2-0.8,2.4-1,3.7c-0.1,0.8-0.2,1.5-0.2,2.3c0,1,0,2,0.3,3c0.4,1.6,1,3.1,2.2,4.3
			c0.6,0.6,1.2,1.1,1.9,1.5c1.2,0.6,2.4,1,3.7,1.1c0.1,0,0.3,0,0.4,0s0.3,0,0.4,0.1c-0.1,0.1-0.3,0.2-0.4,0.2
			c-1.7,0.9-3.4,1.6-5.3,1.9c-1,0.2-2.1,0.3-3.2,0.2c-1.2-0.1-2.4-0.4-3.5-1.1c-0.8-0.5-1.5-1.3-2-2.2c-0.5-1-0.9-2.1-1-3.2
			C92.7,52.4,92.6,52.4,92.6,52.4z"/>
	</g>
</g>
</svg>
