<?xml version="1.0" encoding="utf-8"?>
<!-- Generator: Adobe Illustrator 26.0.3, SVG Export Plug-In . SVG Version: 6.00 Build 0)  -->
<svg version="1.1" id="Layer_1" xmlns="http://www.w3.org/2000/svg" xmlns:xlink="http://www.w3.org/1999/xlink" x="0px" y="0px"
	 viewBox="0 0 335 94" style="enable-background:new 0 0 335 94;" xml:space="preserve">
<style type="text/css">
	.st0{fill:#756C66;}
</style>
<g>
	<path class="st0" d="M190.4,52.7c0-1.6,0-3.1,0-4.7c-0.1,0-0.2,0-0.3-0.1c-0.5,0.8-1.1,1.7-1.5,2.5c-0.4,0.7-0.7,0.6-1,0
		c-0.5-0.8-1-1.7-1.5-2.5c-0.1,0-0.2,0-0.3,0c0,1.6,0,3.1,0,4.7c-0.5-0.2-0.5-0.5-0.5-0.7c0-1.6,0-3.2,0-4.7c0-0.2-0.1-0.5,0.2-0.7
		c0.4-0.1,0.5,0.2,0.6,0.4c0.6,1,1.2,2,2,3.2c0.7-1.1,1.3-2.1,1.9-3.1c0.2-0.3,0.3-0.7,0.7-0.5c0.3,0.1,0.2,0.5,0.2,0.8
		c0,1.5,0,2.9,0,4.4C190.9,52.2,191,52.5,190.4,52.7z"/>
	<path class="st0" d="M223.5,48.2c0,1.2,0,2.5,0,3.7c0,0.3,0.1,0.7-0.3,0.7c-0.4,0-0.3-0.4-0.3-0.7c0-1.5,0-3,0-4.4
		c0-0.3-0.2-0.7,0.2-0.8c0.4-0.1,0.5,0.3,0.7,0.6c0.8,1.3,1.7,2.6,2.7,3.9c0-1.3,0-2.6,0-3.9c0-0.2-0.1-0.6,0.3-0.6
		c0.3,0,0.3,0.3,0.3,0.6c0,1.6,0,3.2,0,4.9c0,0.2,0,0.5-0.2,0.6c-0.3,0.1-0.4-0.2-0.5-0.4c-0.9-1.4-1.7-2.7-2.6-4.1
		C223.7,48.2,223.6,48.2,223.5,48.2z"/>
	<path class="st0" d="M197.5,48.2c-0.4,1.5-0.1,3-0.5,4.5c-0.4-0.5-0.3-1.1-0.3-1.6c0-1.2,0-2.5,0-3.7c0-0.3-0.2-0.6,0.2-0.7
		c0.3-0.1,0.4,0.3,0.5,0.5c0.8,1.2,1.6,2.4,2.3,3.7c0.1,0.1,0.2,0.3,0.5,0.7c0-1.5,0-2.7,0-3.9c0-0.3-0.2-0.8,0.3-0.8
		c0.4,0,0.3,0.5,0.3,0.8c0,1.5,0,3,0,4.4c0,0.3,0.1,0.6-0.3,0.7c-0.3,0.1-0.4-0.3-0.5-0.5C199.2,50.9,198.4,49.5,197.5,48.2z"/>
	<path class="st0" d="M144.5,33.9c0,7.7,0,15.4,0,23.2c-0.1,0-0.1,0-0.2,0c0-7.7,0-15.4,0-23.2C144.4,33.9,144.4,33.9,144.5,33.9z"
		/>
	<path class="st0" d="M165.2,41.6c-0.2-0.3-0.3-0.4-0.1-0.7c0.4-0.8,0.5-1.6-0.2-2.2c-0.4-0.4-2.4-0.6-2.9-0.4
		c-0.4,0.1-0.3,0.5-0.3,0.7c0,0.8,0,1.6,0,2.4v1.1c0,2,0,2,2.1,1.9C165.5,44.3,166.1,43,165.2,41.6z M163.1,38.6
		c0.8,0.1,1.7,0,1.7,1.2c0,0.9-0.4,1.1-1.7,1.2c-1.1,0.1-1.2-0.5-1-1.2C162,38.9,162.3,38.5,163.1,38.6z M163.1,43.9
		c-1.2,0.1-0.9-0.6-1-1.3c-0.1-1.1,0.4-1.2,1.1-1.1c1.4,0,1.9,0.3,1.8,1.2C165.1,43.6,164.6,43.8,163.1,43.9z"/>
	<path class="st0" d="M217,51c-0.2,0.5,0.4,1.4-0.7,1.7c-1.3,0.3-2.5,0-2.9-1c-0.6-1.3-0.6-2.7,0-4.1c0.5-1.1,2.1-1.6,3.2-1
		c0.1,0.1,0.3,0.2,0.3,0.3c0,0.2-0.2,0.2-0.4,0.2c-0.3,0-0.6-0.1-0.8-0.1c-0.2,0-0.5,0-0.7,0c-1.2,0.2-1.7,1.8-1.2,3.7
		c0.3,1.3,1.1,1.7,2.3,1.4c0.9-0.2,0.4-1,0.5-1.5c0.1-0.5-0.1-0.8-0.7-0.8c-0.2,0-0.4,0-0.5,0s-0.4-0.1-0.4-0.3
		c0-0.2,0.2-0.2,0.4-0.2C216.8,49.1,217,49.3,217,51z"/>
	<path class="st0" d="M179.3,48.2c-0.3-1.5-1.8-2.2-3.1-1.5c-1.2,0.6-1.3,1.8-1.3,3.1c0,0.1,0,0.5,0,0.8c0.2,1.4,0.9,2.1,2.2,2.1
		c1.3,0,1.9-0.6,2.2-2.1C179.5,49.9,179.4,49,179.3,48.2z M178.8,50.7c-0.2,1.1-0.9,1.7-1.8,1.6c-1-0.1-1.4-0.7-1.6-1.7
		c-0.1-0.7-0.1-1.4,0-2.1c0.2-0.9,0.6-1.5,1.6-1.6c1.1,0,1.5,0.5,1.7,1.5c0.1,0.4,0.1,0.8,0.1,1.2C178.9,50.1,178.9,50.4,178.8,50.7
		z"/>
	<path class="st0" d="M221.4,49.6c-0.5,0.4-1,0.3-1.4,0.2c-1-0.1-1.2,0.3-1.2,1.2c0,0.8,0.1,1.3,1.1,1.2c0.6,0,1.6-0.4,1.7,0.3
		c0.1,0.4-1.1,0.2-1.7,0.2c-2,0-1.7,0.3-1.7-1.7c0-1.2,0-2.5,0-3.7c0-0.2-0.1-0.5,0.1-0.7c0.2-0.1,2.9-0.2,3.1,0
		c0.1,0,0.1,0.2,0.1,0.2c0,0.2-0.2,0.2-0.3,0.2c-0.6,0-1.3,0-1.9,0c-0.4,0-0.6,0.2-0.6,0.6c-0.1,1.6-0.1,1.7,1.6,1.7
		C220.7,49.4,221,49.3,221.4,49.6z"/>
	<path class="st0" d="M187.5,44.1c-1,0.3-1.9,0.2-2.9,0.2c-0.4,0-0.5-0.3-0.5-0.6c0-1.6,0-3.2,0-4.9c0-0.2,0.1-0.4,0.2-0.6
		c0.1-0.1,3-0.2,3.1,0c0.1,0.1,0.1,0.2,0.1,0.2c-0.1,0.1-0.2,0.2-0.3,0.2c-0.6,0-1.3,0-1.9,0c-1,0-0.6,0.8-0.6,1.2
		c0,0.4-0.2,1.1,0.6,1c0.4,0,0.9,0,1.4,0c0.2,0,0.5,0,0.4,0.3c0,0.2-0.2,0.2-0.4,0.2c-0.3,0-0.6,0-0.8,0c-0.9-0.1-1.3,0.2-1.2,1.2
		c0,1,0.3,1.3,1.2,1.2C186.4,43.8,187,43.8,187.5,44.1z"/>
	<path class="st0" d="M170,47c-0.7,0.2-1.5,0.1-2.2,0.1c-1,0-0.6,0.8-0.6,1.2c0,0.5-0.3,1.1,0.7,1.1c0.6,0,1.2-0.1,1.9,0.1
		c-0.4,0.6-1,0.4-1.4,0.4c-0.9-0.1-1.1,0.3-1.1,1.2c0,0.8,0.1,1.3,1.1,1.2c0.6,0,1.3-0.2,1.9,0.3c-1.1,0.2-2.2,0.2-3.3,0.1
		c-0.3,0-0.3-0.3-0.3-0.5c0-1.7,0-3.4,0-5.1c0-0.3,0.1-0.5,0.4-0.5c1,0,2,0,3,0C170,46.7,170,46.8,170,47z"/>
	<path class="st0" d="M192.3,43.4c-0.4-0.9-1.3-1.7,0-2.6c0.1-0.1,0.1-0.3,0.1-0.5c0.1-0.7,0-1.4-0.6-1.8c-0.8-0.6-1.9-0.4-2.8-0.2
		c-0.6,0.1-0.2,0.9-0.3,1.4c0,0.5,0,1.1,0,1.6c0,1-0.1,2,0.2,3.2c0.4-0.7,0.3-1.2,0.3-1.7c0-1,0.3-1.3,1.3-1.1
		c0.5,0.1,0.5,0.5,0.7,0.8c0.4,0.6,0.5,1.4,1.2,1.8C192.7,43.9,192.5,43.6,192.3,43.4z M190.3,41.2c-1.2,0.1-1.1-0.6-1.1-1.4
		c-0.1-0.7,0-1.3,1-1.2c1.2,0.1,1.8,0.4,1.7,1.3C192,40.8,191.6,41,190.3,41.2z"/>
	<path class="st0" d="M195.5,46.8c-0.7,0.3-1.4,0.2-2.1,0.2c-0.6,0-0.8,0.1-0.8,0.8c0,1.6-0.1,1.5,1.5,1.6c0.3,0,0.7-0.1,1.1,0.3
		c-0.5,0.3-1.1,0.2-1.6,0.2c-0.7,0-0.9,0.1-0.9,0.9c0,1.5,0,1.5,1.5,1.5c0.5,0,1.3-0.3,1.3,0.3c0,0.5-0.8,0.2-1.3,0.2
		c-2.1,0-2.1,0-2.1-2.1c0-1.1,0-2.1,0-3.2c0-0.7,0.2-0.9,0.9-0.8C193.8,46.7,194.6,46.5,195.5,46.8z"/>
	<path class="st0" d="M160.4,38.1c0,1.8,0.1,3.3,0,4.9c-0.1,1-0.9,1.4-1.8,1.4c-0.9,0-1.8-0.3-2-1.3c-0.3-1.5-0.1-3-0.1-4.5
		c0-0.2,0.1-0.4,0.3-0.4c0.3,0,0.3,0.3,0.3,0.5c0,1.1,0,2.2,0,3.4c0,1.2,0.4,1.7,1.4,1.8c1,0,1.5-0.5,1.5-1.7c0-1,0-2,0-2.9
		C160,38.9,159.9,38.5,160.4,38.1z"/>
	<path class="st0" d="M212.3,52.2c-0.7-1.7-1.4-3.4-2.1-5.2c-0.1-0.2-0.2-0.4-0.4-0.3c-0.2,0-0.3,0.3-0.4,0.5
		c-0.6,1.5-1.2,3-1.8,4.5c-0.1,0.3-0.5,0.6-0.2,1.1c0.6-0.2,0.6-0.8,0.8-1.2c0.1-0.3,0.3-0.6,0.7-0.6c1.7-0.2,2,0,2.8,1.4
		c0.1,0.2,0.1,0.4,0.4,0.4C212.6,52.6,212.4,52.3,212.3,52.2z M210.9,50.3c-0.4,0.3-1.3,0.1-2.1,0.1c0.4-0.9,0.7-1.8,1.1-2.9
		c0.2,0.5,0.4,0.8,0.5,1.1C210.5,49.2,211.2,50,210.9,50.3z"/>
	<path class="st0" d="M181.3,38.1c0.1,0,0.1,0,0.2,0c0.4,0.2,1.2-0.2,1.1,0.4c-0.1,0.5-0.7,0-1.1,0c-0.3,0-0.6,0-0.9,0.1
		c-0.5,0.1-0.8,0.5-0.8,1.1c0,0.5,0.3,0.9,0.7,1c0.4,0.1,0.8,0.2,1.2,0.4c0.8,0.3,1.3,0.8,1.3,1.7c-0.1,0.9-0.7,1.3-1.5,1.5
		c-0.6,0.2-1.2,0-1.8-0.1c-0.2,0-0.5-0.1-0.4-0.4c0.1-0.3,0.3-0.2,0.5-0.1c0.5,0.2,1,0.2,1.5,0.1c0.6,0,1-0.3,1.1-0.9
		c0.1-0.7-0.2-1.1-0.8-1.3c-0.3-0.1-0.5-0.2-0.8-0.2c-1.2-0.4-1.7-1-1.6-1.9C179.3,38.6,180.1,38,181.3,38.1z"/>
	<path class="st0" d="M155.8,48.9c-0.1-1.9-2-3-3.8-2.3c-0.3,0.1-0.3,0.4-0.3,0.6c0,0.8,0,1.6,0,2.4v2.4c0,0.3,0,0.6,0.5,0.7
		c2.3,0.4,3.6-0.6,3.6-2.9C155.8,49.6,155.8,49.2,155.8,48.9z M155.1,51.3c-0.3,0.7-2.1,1.3-2.7,0.9c-0.3-0.1-0.2-0.4-0.2-0.6
		c0-0.7,0-1.3,0-2c0-0.4-0.1-0.8,0-1.2c0.1-0.5-0.4-1.2,0.4-1.4c0.9-0.1,1.9-0.2,2.4,0.8C155.6,49,155.5,50.2,155.1,51.3z"/>
	<path class="st0" d="M208.9,44.3c-1.2,0-2.2,0-3.3,0c-0.3,0-0.3-0.4-0.3-0.6c0-1.6,0-3.2,0-4.9c0-0.4,0.1-0.7,0.6-0.7
		c0.8,0,1.6,0,2.3,0c0.2,0,0.4,0,0.4,0.2c0,0.3-0.2,0.3-0.4,0.3c-0.6,0-1.2,0-1.8,0c-0.9,0-0.7,0.7-0.7,1.1c0,0.4-0.3,1.1,0.6,1.1
		c0.6,0,1.6-0.4,1.7,0.3c0.1,0.5-1.1,0.2-1.7,0.2c-0.5,0-0.7,0.1-0.7,0.7c-0.1,1.7-0.1,1.7,1.6,1.7c0.4,0,0.8,0,1.3,0.1
		C208.7,43.9,208.7,44,208.9,44.3z"/>
	<path class="st0" d="M165.8,46.8c-0.7,2-1.5,4-2.2,6c-0.6-0.2-0.5-0.6-0.7-1c-0.6-1.5-1.1-3-1.7-4.5c-0.1-0.2-0.2-0.4,0-0.6
		c0.3-0.1,0.4,0.2,0.5,0.4c0.5,1.4,1.1,2.9,1.7,4.6c0.7-1.8,1.3-3.4,2-5C165.5,46.7,165.7,46.7,165.8,46.8z"/>
	<path class="st0" d="M195.4,43.2c0.7-1.8,1.3-3.4,1.9-5c0.4,0.1,0.4,0.3,0.3,0.4c-0.6,1.7-1.2,3.4-1.9,5.2
		c-0.1,0.2-0.1,0.4-0.4,0.4c-0.2,0-0.3-0.2-0.3-0.4c-0.7-1.8-1.3-3.6-2-5.4c0-0.1,0-0.2,0.1-0.5C194.3,39.7,194.6,41.4,195.4,43.2z"
		/>
	<path class="st0" d="M182.5,46.6c-0.5,0-0.9,0-1.4,0c-0.6,0-0.8,0.2-0.8,0.8c0,1.3,0,2.6,0,3.9c0,0.5-0.2,1,0.2,1.4
		c0.5-0.2,0.4-0.5,0.4-0.8c0.1-1.6,0.1-1.6,1.6-1.7c1.1-0.1,1.7-0.7,1.7-1.9C184.2,47.2,183.6,46.7,182.5,46.6z M181.9,49.8
		c-1.2,0.1-1-0.7-1-1.6c-0.1-0.7,0-1.3,1.1-1.2c1.3,0.1,1.8,0.4,1.8,1.4C183.7,49.4,183.2,49.7,181.9,49.8z"/>
	<path class="st0" d="M154.7,38.4c-0.9-0.4-1.8-0.2-2.7-0.1c-0.1,0-0.2,0.2-0.2,0.3c0,1.9,0,3.8,0,5.9c0.5-0.5,0.4-0.9,0.4-1.2
		c0-1.5,0-1.5,1.6-1.6c1.2,0,1.8-0.6,1.8-1.8C155.6,39.3,155.4,38.7,154.7,38.4z M153.3,41.3c-1.1,0-1.1,0-1.1-1.7
		c0-0.4-0.2-1.1,1-1c1.3,0.1,1.8,0.4,1.8,1.4C155,41,154.6,41.3,153.3,41.3z"/>
	<path class="st0" d="M231.8,52.3c-1.6,1.1-3.2,0.5-3.7-1.1c-0.3-1.1-0.3-2.2,0.1-3.2c0.5-1.3,1.9-1.9,3.1-1.3
		c0.2,0.1,0.4,0.1,0.3,0.3c0,0.2-0.2,0.2-0.4,0.2c-0.2,0-0.5-0.1-0.7-0.1c-1.2-0.1-1.8,0.4-1.9,1.6c-0.1,0.6-0.1,1.3,0,1.9
		c0.1,1.4,0.8,1.9,2.2,1.7C231.1,52.2,231.4,52.1,231.8,52.3z"/>
	<path class="st0" d="M204.1,38.6c-0.3,0.3-0.5,0.1-0.8,0.1c-1.4-0.3-2.2,0.3-2.4,1.7c0,0.4,0,0.8,0,1.3c0.1,1.8,0.7,2.4,2.5,2.1
		c0.2,0,0.5-0.3,0.6,0.1c0.1,0.3-0.3,0.3-0.5,0.4c-1.5,0.5-2.7-0.2-3.1-1.8c-0.2-0.9-0.1-1.9,0.1-2.8
		C200.9,38.2,202.7,37.6,204.1,38.6z"/>
	<path class="st0" d="M176.1,38.6c-0.3,0.3-0.5,0.2-0.7,0.1c-1.5-0.3-2.3,0.3-2.4,1.8c0,0.4,0,0.8,0,1.2c0,1.9,0.7,2.4,2.6,2.2
		c0.2,0,0.5-0.3,0.6,0.1c0,0.3-0.3,0.3-0.5,0.4c-1.5,0.5-2.7-0.2-3.1-1.8c-0.2-0.9-0.2-1.9,0.1-2.8C173,38.1,174.6,37.6,176.1,38.6z
		"/>
	<path class="st0" d="M232.5,46.6c0.7,0.2,0.8,0.8,1.1,1.2c1.3,1.9,1,2,2.3,0.1c0.3-0.5,0.5-1.1,1.2-1.3c0,0.7-0.4,1-0.7,1.4
		c-0.9,1.2-1.7,2.5-1.4,4.1c0,0.2,0.1,0.5-0.2,0.5c-0.2,0.1-0.4-0.2-0.3-0.3c0.4-2.2-1.1-3.7-2-5.4
		C232.4,46.9,232.5,46.8,232.5,46.6z"/>
	<path class="st0" d="M160.4,46.8c-0.7,0.3-1.4,0.2-2.1,0.2c-0.6,0-0.8,0.1-0.8,0.8c0,1.6,0,1.5,1.5,1.6c0.3,0,0.7-0.1,1.1,0.2
		c-0.6,0.4-1.2,0.2-1.7,0.2c-0.7,0-0.9,0.2-0.8,0.8c0,0.1,0,0.3,0,0.4c-0.1,0.9,0.2,1.4,1.2,1.2c0.6-0.1,1.2-0.1,1.7,0.2
		c-1,0.3-2,0.2-3,0.2c-0.3,0-0.3-0.3-0.3-0.6c0-1.7,0-3.3,0-5c0-0.2,0-0.5,0.3-0.5C158.4,46.6,159.4,46.5,160.4,46.8z"/>
	<path class="st0" d="M174.8,52.6c-1.2,0.3-2.1,0.1-3,0.1c-0.5,0-0.4-0.4-0.4-0.7c0-1.6,0-3.2,0-4.7c0-0.2-0.1-0.6,0.2-0.6
		c0.4,0,0.3,0.4,0.3,0.6c0,1.4,0,2.7,0,4.1c0,0.6,0.2,0.8,0.8,0.8C173.3,52.2,174,52,174.8,52.6z"/>
	<path class="st0" d="M167.2,38.3c0,1.2,0,2.3,0,3.5c0,2.1,0,2.1,2.1,2.1c0.2,0,0.4,0,0.8,0.4c-1.2,0.2-2.2,0.1-3.2,0
		c-0.2,0-0.2-0.2-0.2-0.4c0-1.8,0-3.6,0-5.4c0-0.1,0.1-0.2,0.2-0.2C167,38.3,167.1,38.3,167.2,38.3z"/>
	<path class="st0" d="M201.7,46.7c1.3,0,2.5,0,3.8,0c0,0.4-0.3,0.4-0.4,0.4c-1-0.2-1.2,0.3-1.2,1.2c0.1,1.5,0,2.9,0,4.4
		c-0.6-0.1-0.4-0.4-0.4-0.7c0-1.3-0.1-2.5,0-3.8c0-0.9-0.1-1.4-1.1-1.2C202.1,47.1,201.9,47.1,201.7,46.7z"/>
	<path class="st0" d="M199.4,38.3c0,1.9,0,3.8,0,5.6c0,0.1,0,0.3-0.2,0.3c-0.2,0-0.3-0.1-0.3-0.2c0-1.9-0.1-3.9,0-5.8
		C199.1,38.3,199.2,38.3,199.4,38.3z"/>
	<path class="st0" d="M171.1,38.3c0.3,0.8,0.1,1.6,0.1,2.3c0,1.1,0,2.1,0,3.2c0,0.2,0,0.4-0.3,0.5c-0.1,0-0.3-0.1-0.3-0.3
		c0-1.9,0-3.8,0-5.7C170.9,38.3,171,38.3,171.1,38.3z"/>
	<g>
		<path class="st0" d="M132.4,48.7c0.9,0,1.6-0.7,1.6-1.5h1.3c0.1,0.6,0.6,1.1,1.2,1.1c0.7,0,1.2-0.5,1.2-1.2c0-0.7-0.5-1.2-1.2-1.2
			c-0.6,0-1.1,0.4-1.2,1H134c-0.1-0.8-0.8-1.4-1.6-1.4c-0.2,0-0.3,0-0.5,0.1l-1.6-3.9c0.4-0.2,0.6-0.6,0.7-1l3.4,0.6c0,0,0,0,0,0.1
			c0,0.7,0.5,1.2,1.2,1.2c0.7,0,1.2-0.5,1.2-1.2c0-0.7-0.5-1.2-1.2-1.2c-0.5,0-1,0.4-1.1,0.8l-3.4-0.6c0,0,0-0.1,0-0.1
			c0-0.4-0.2-0.8-0.4-1.1l1.7-2.1c0.2,0.1,0.4,0.2,0.6,0.2c0.7,0,1.2-0.5,1.2-1.2c0-0.7-0.5-1.2-1.2-1.2s-1.2,0.5-1.2,1.2
			c0,0.3,0.1,0.6,0.3,0.8l-1.7,2.1c-0.3-0.2-0.6-0.3-1-0.3c-0.3,0-0.5,0.1-0.8,0.2l-2.1-2.9c0.3-0.3,0.5-0.7,0.5-1.2
			c0-0.4-0.1-0.7-0.3-1l1.2-0.9c0.2,0.2,0.5,0.3,0.8,0.3c0.7,0,1.2-0.5,1.2-1.2c0-0.7-0.5-1.2-1.2-1.2s-1.2,0.5-1.2,1.2
			c0,0.2,0.1,0.4,0.2,0.6l-1.2,0.9c-0.3-0.3-0.7-0.4-1.1-0.4c-0.1,0-0.2,0-0.4,0l-0.9-2.8c0.4-0.2,0.6-0.6,0.6-1
			c0-0.7-0.5-1.2-1.2-1.2s-1.2,0.5-1.2,1.2c0,0.2,0,0.4,0.1,0.6l-3.3,2.5c-0.3-0.4-0.8-0.6-1.3-0.6v-2.2c0.6-0.1,1-0.6,1-1.2
			c0-0.7-0.5-1.2-1.2-1.2s-1.2,0.5-1.2,1.2c0,0.6,0.4,1.1,1,1.2v2.2c-0.5,0-0.9,0.3-1.3,0.6l-3.3-2.5c0.1-0.2,0.1-0.4,0.1-0.6
			c0-0.7-0.5-1.2-1.2-1.2s-1.2,0.5-1.2,1.2c0,0.4,0.2,0.8,0.6,1l-0.9,2.8c-0.1,0-0.2,0-0.4,0c-0.4,0-0.8,0.2-1.1,0.4l-1.2-0.9
			c0.1-0.2,0.2-0.4,0.2-0.6c0-0.7-0.5-1.2-1.2-1.2s-1.2,0.5-1.2,1.2c0,0.7,0.5,1.2,1.2,1.2c0.3,0,0.6-0.1,0.8-0.3l1.2,0.9
			c-0.2,0.3-0.3,0.6-0.3,1c0,0.5,0.2,0.9,0.5,1.2l-2.1,2.9c-0.2-0.1-0.5-0.2-0.8-0.2c-0.4,0-0.7,0.1-1,0.3l-1.7-2.1
			c0.2-0.2,0.3-0.5,0.3-0.8c0-0.7-0.5-1.2-1.2-1.2s-1.2,0.5-1.2,1.2c0,0.7,0.5,1.2,1.2,1.2c0.2,0,0.4-0.1,0.6-0.2L105,39
			c-0.3,0.3-0.4,0.7-0.4,1.1c0,0,0,0.1,0,0.1l-3.4,0.6c-0.2-0.5-0.6-0.8-1.1-0.8c-0.7,0-1.2,0.5-1.2,1.2c0,0.7,0.5,1.2,1.2,1.2
			s1.2-0.5,1.2-1.2c0,0,0,0,0-0.1l3.4-0.6c0.1,0.4,0.4,0.8,0.7,1l-1.6,3.9c-0.1,0-0.3-0.1-0.5-0.1c-0.8,0-1.5,0.6-1.6,1.4h-1.3
			c-0.1-0.6-0.6-1-1.2-1c-0.7,0-1.2,0.5-1.2,1.2c0,0.7,0.5,1.2,1.2,1.2c0.6,0,1.1-0.5,1.2-1.1h1.3c0.1,0.8,0.8,1.5,1.6,1.5
			c0.2,0,0.3,0,0.5-0.1l1.6,3.8c-0.4,0.2-0.7,0.6-0.8,1l-3.3-0.6c0,0,0,0,0-0.1c0-0.7-0.5-1.2-1.2-1.2c-0.7,0-1.2,0.5-1.2,1.2
			S99.3,54,100,54c0.5,0,1-0.4,1.1-0.8l3.3,0.6c0,0,0,0.1,0,0.1c0,0.4,0.2,0.9,0.5,1.2l-1.7,2c-0.2-0.1-0.4-0.1-0.6-0.1
			c-0.7,0-1.2,0.5-1.2,1.2c0,0.7,0.5,1.2,1.2,1.2s1.2-0.5,1.2-1.2c0-0.4-0.1-0.7-0.4-0.9l1.7-2c0.3,0.2,0.6,0.3,0.9,0.3
			c0.3,0,0.6-0.1,0.8-0.2l2.2,3c-0.4,0.3-0.6,0.8-0.6,1.3c0,0.3,0.1,0.6,0.2,0.8l-1.1,0.9c-0.2-0.2-0.5-0.3-0.8-0.3
			c-0.7,0-1.2,0.5-1.2,1.2c0,0.7,0.5,1.2,1.2,1.2s1.2-0.5,1.2-1.2c0-0.3-0.1-0.5-0.2-0.7l1.1-0.9c0.3,0.3,0.7,0.5,1.2,0.5
			c0.2,0,0.3,0,0.4-0.1l0.9,2.6c-0.4,0.2-0.7,0.6-0.7,1.1c0,0.7,0.5,1.2,1.2,1.2s1.2-0.5,1.2-1.2c0-0.2-0.1-0.4-0.2-0.6l3.3-2.4
			c0.3,0.4,0.8,0.6,1.3,0.6v2.2c-0.6,0.1-1,0.6-1,1.2c0,0.7,0.5,1.2,1.2,1.2s1.2-0.5,1.2-1.2c0-0.6-0.4-1.1-1-1.2v-2.2
			c0.5,0,0.9-0.3,1.3-0.6l3.3,2.4c-0.1,0.2-0.2,0.4-0.2,0.6c0,0.7,0.5,1.2,1.2,1.2s1.2-0.5,1.2-1.2c0-0.5-0.3-0.9-0.7-1.1l0.9-2.6
			c0.1,0,0.3,0.1,0.4,0.1c0.5,0,0.9-0.2,1.2-0.5l1.1,0.9c-0.1,0.2-0.2,0.4-0.2,0.7c0,0.7,0.5,1.2,1.2,1.2s1.2-0.5,1.2-1.2
			c0-0.7-0.5-1.2-1.2-1.2c-0.3,0-0.5,0.1-0.8,0.3l-1.1-0.9c0.1-0.2,0.2-0.5,0.2-0.8c0-0.5-0.2-1-0.6-1.3l2.2-3
			c0.2,0.1,0.5,0.2,0.8,0.2c0.3,0,0.7-0.1,0.9-0.3l1.7,2c-0.2,0.2-0.4,0.5-0.4,0.9c0,0.7,0.5,1.2,1.2,1.2s1.2-0.5,1.2-1.2
			c0-0.7-0.5-1.2-1.2-1.2c-0.2,0-0.4,0-0.6,0.1l-1.7-2c0.3-0.3,0.5-0.7,0.5-1.2c0,0,0-0.1,0-0.1l3.3-0.6c0.2,0.5,0.6,0.8,1.1,0.8
			c0.7,0,1.2-0.5,1.2-1.2c0-0.7-0.5-1.2-1.2-1.2c-0.7,0-1.2,0.5-1.2,1.2c0,0,0,0,0,0.1l-3.3,0.6c-0.1-0.4-0.4-0.8-0.8-1l1.6-3.8
			C132,48.7,132.2,48.7,132.4,48.7z M125.5,36.2c0.3,0,0.6-0.1,0.9-0.3l2.1,2.9c-0.4,0.3-0.6,0.8-0.6,1.3c0,0.7,0.4,1.3,1,1.5
			l-1.2,3.5c-0.2,0-0.3-0.1-0.5-0.1c-0.2,0-0.4,0-0.7,0.1l-2.2-4.6c0.6-0.3,1-1,1-1.7c0-0.7-0.4-1.3-1-1.7l0.5-1.2
			C125,36.1,125.2,36.2,125.5,36.2z M126.1,48.7l-2.1,4.5c-0.2-0.1-0.3-0.1-0.5-0.1V40.8c0.2,0,0.4,0,0.5-0.1l2.2,4.6
			c-0.6,0.3-1,1-1,1.7C125.2,47.7,125.6,48.4,126.1,48.7z M119.4,32.5l3.3-2.5c0.2,0.2,0.5,0.4,0.9,0.4c0.1,0,0.2,0,0.3,0l0.9,2.8
			c-0.6,0.3-1,0.8-1,1.5c0,0.6,0.3,1.1,0.7,1.4l-0.6,1.2c-0.2-0.1-0.4-0.1-0.7-0.1c-0.5,0-0.9,0.2-1.3,0.5l-2.8-2.7
			c0.3-0.3,0.4-0.8,0.4-1.2C119.7,33.1,119.6,32.8,119.4,32.5z M123.2,40.8v12.2c-0.9,0.1-1.7,0.8-1.8,1.8h-7.3
			c-0.1-0.9-0.8-1.7-1.8-1.8V40.8c0.9-0.1,1.7-0.8,1.8-1.8h7.3C121.5,40,122.3,40.8,123.2,40.8z M116.5,34.9
			c0.3,0.3,0.8,0.5,1.3,0.5s0.9-0.2,1.3-0.5l2.8,2.7c-0.2,0.3-0.4,0.7-0.4,1.1h-7.3c0-0.4-0.2-0.8-0.4-1.1L116.5,34.9z M111.6,30.3
			c0.1,0,0.2,0,0.3,0c0.4,0,0.7-0.1,0.9-0.4l3.3,2.5c-0.2,0.3-0.3,0.7-0.3,1.1c0,0.5,0.2,0.9,0.4,1.2l-2.8,2.7
			c-0.3-0.3-0.8-0.5-1.3-0.5c-0.2,0-0.5,0-0.7,0.1l-0.6-1.2c0.4-0.3,0.7-0.8,0.7-1.4c0-0.7-0.4-1.2-1-1.5L111.6,30.3z M109.4,45.4
			l2.2-4.6c0.2,0.1,0.3,0.1,0.5,0.1v12.2c-0.2,0-0.4,0-0.5,0.1l-2.1-4.5c0.6-0.3,0.9-0.9,0.9-1.7C110.3,46.3,109.9,45.7,109.4,45.4z
			 M107.7,40.1c0-0.5-0.2-1-0.6-1.3l2.1-2.9c0.3,0.2,0.5,0.3,0.9,0.3c0.2,0,0.4,0,0.6-0.1l0.5,1.2c-0.6,0.3-1,1-1,1.7
			c0,0.7,0.4,1.3,1,1.7l-2.2,4.6c-0.2-0.1-0.4-0.1-0.7-0.1c-0.2,0-0.3,0-0.5,0.1l-1.2-3.5C107.3,41.4,107.7,40.8,107.7,40.1z
			 M105.5,41.7c0.2,0.1,0.4,0.1,0.6,0.1c0.1,0,0.2,0,0.3,0l1.2,3.5c-0.6,0.3-1.1,0.9-1.1,1.6h-1.7c-0.1-0.5-0.4-1-0.9-1.2
			L105.5,41.7z M106,52.2c-0.2,0-0.3,0-0.5,0.1l-1.6-3.8c0.5-0.3,0.8-0.8,0.8-1.3h1.7c0,0.7,0.5,1.3,1.1,1.6l-1.2,3.5
			C106.3,52.2,106.1,52.2,106,52.2z M110.1,57.9c-0.3,0-0.5,0.1-0.8,0.2l-2.2-3c0.3-0.3,0.6-0.7,0.6-1.2c0-0.7-0.4-1.2-0.9-1.5
			l1.2-3.5c0.2,0,0.3,0.1,0.5,0.1c0.2,0,0.5,0,0.7-0.1l2.1,4.5c-0.6,0.3-1,1-1,1.7c0,0.7,0.4,1.3,1,1.7l-0.6,1.4
			C110.4,58,110.2,57.9,110.1,57.9z M116.1,61.6l-3.3,2.4c-0.2-0.2-0.5-0.4-0.8-0.4c-0.1,0-0.1,0-0.2,0l-0.9-2.7
			c0.5-0.3,0.9-0.8,0.9-1.5c0-0.6-0.3-1.1-0.8-1.4l0.6-1.3c0.2,0.1,0.4,0.1,0.7,0.1c0.5,0,0.9-0.2,1.2-0.4l2.8,2.9
			c-0.3,0.3-0.4,0.8-0.4,1.2C115.8,60.9,116,61.3,116.1,61.6z M119,59.1c-0.3-0.3-0.8-0.5-1.3-0.5s-0.9,0.2-1.3,0.5l-2.8-2.9
			c0.3-0.3,0.4-0.7,0.4-1.1h7.3c0,0.4,0.2,0.8,0.4,1.1L119,59.1z M123.8,63.7c-0.1,0-0.1,0-0.2,0c-0.3,0-0.6,0.1-0.8,0.4l-3.3-2.5
			c0.2-0.3,0.3-0.7,0.3-1c0-0.5-0.2-0.9-0.4-1.2l2.8-2.9c0.3,0.3,0.8,0.4,1.2,0.4c0.2,0,0.5,0,0.7-0.1l0.6,1.3
			c-0.5,0.3-0.8,0.8-0.8,1.4c0,0.6,0.4,1.2,0.9,1.5L123.8,63.7z M127.9,53.9c0,0.5,0.2,0.9,0.6,1.2l-2.2,3c-0.2-0.1-0.5-0.2-0.8-0.2
			c-0.2,0-0.4,0-0.5,0.1l-0.6-1.4c0.6-0.3,1-1,1-1.7c0-0.7-0.4-1.3-1-1.7l2.1-4.5c0.2,0.1,0.4,0.1,0.7,0.1c0.2,0,0.3,0,0.5-0.1
			l1.2,3.5C128.3,52.6,127.9,53.2,127.9,53.9z M130,52.3c-0.2,0-0.3-0.1-0.5-0.1c-0.1,0-0.3,0-0.4,0l-1.2-3.5
			c0.6-0.3,1.1-0.9,1.1-1.6h1.7c0,0.6,0.4,1.1,0.8,1.3L130,52.3z M130.8,46.8H129c-0.1-0.7-0.5-1.3-1.1-1.6l1.2-3.5
			c0.1,0,0.2,0,0.3,0c0.2,0,0.4,0,0.6-0.1l1.6,3.9C131.2,45.8,130.8,46.3,130.8,46.8z"/>
	</g>
</g>
</svg>
