<svg width="320" height="321" viewBox="0 0 320 321" fill="none" xmlns="http://www.w3.org/2000/svg">
<g filter="url(#filter0_d_385_3946)">
<rect x="37" y="25" width="196.408" height="246.58" rx="6.11862" fill="white"/>
<g opacity="0.9">
<path d="M112.156 96H63.3733C62.6645 96 62.0898 96.453 62.0898 97.0119V97.0125C62.0898 97.5713 62.6645 98.0244 63.3733 98.0244H112.156C112.865 98.0244 113.44 97.5713 113.44 97.0125V97.0119C113.44 96.453 112.865 96 112.156 96Z" fill="#A2B1C7"/>
<path d="M205.818 103.843H63.3733C62.6645 103.843 62.0898 104.296 62.0898 104.855V104.855C62.0898 105.414 62.6645 105.867 63.3733 105.867H205.818C206.526 105.867 207.101 105.414 207.101 104.855V104.855C207.101 104.296 206.526 103.843 205.818 103.843Z" fill="#A2B1C7"/>
<path d="M205.818 118.771H63.3733C62.6645 118.771 62.0898 119.224 62.0898 119.783V119.783C62.0898 120.342 62.6645 120.795 63.3733 120.795H205.818C206.526 120.795 207.101 120.342 207.101 119.783V119.783C207.101 119.224 206.526 118.771 205.818 118.771Z" fill="#A2B1C7"/>
<path d="M205.818 133.699H63.3733C62.6645 133.699 62.0898 134.152 62.0898 134.711V134.711C62.0898 135.27 62.6645 135.723 63.3733 135.723H205.818C206.526 135.723 207.101 135.27 207.101 134.711V134.711C207.101 134.152 206.526 133.699 205.818 133.699Z" fill="#A2B1C7"/>
<path d="M205.818 148.629H63.3733C62.6645 148.629 62.0898 149.082 62.0898 149.64V149.641C62.0898 150.2 62.6645 150.653 63.3733 150.653H205.818C206.526 150.653 207.101 150.2 207.101 149.641V149.64C207.101 149.082 206.526 148.629 205.818 148.629Z" fill="#A2B1C7"/>
<path d="M205.818 111.265H100.55C99.8413 111.265 99.2667 111.718 99.2667 112.277V112.278C99.2667 112.837 99.8413 113.29 100.55 113.29H205.818C206.527 113.29 207.101 112.837 207.101 112.278V112.277C207.101 111.718 206.527 111.265 205.818 111.265Z" fill="#A2B1C7"/>
<path d="M110.445 111.265H63.3733C62.6645 111.265 62.0898 111.718 62.0898 112.277V112.278C62.0898 112.837 62.6645 113.29 63.3733 113.29H110.445C111.154 113.29 111.728 112.837 111.728 112.278V112.277C111.728 111.718 111.154 111.265 110.445 111.265Z" fill="#A2B1C7"/>
<path d="M205.818 126.195H100.55C99.8413 126.195 99.2667 126.648 99.2667 127.207V127.207C99.2667 127.766 99.8413 128.219 100.55 128.219H205.818C206.527 128.219 207.101 127.766 207.101 127.207V127.207C207.101 126.648 206.527 126.195 205.818 126.195Z" fill="#A2B1C7"/>
<path d="M205.818 141.123H100.55C99.8413 141.123 99.2667 141.576 99.2667 142.135V142.135C99.2667 142.694 99.8413 143.147 100.55 143.147H205.818C206.527 143.147 207.101 142.694 207.101 142.135V142.135C207.101 141.576 206.527 141.123 205.818 141.123Z" fill="#A2B1C7"/>
<path d="M110.445 126.195H63.3733C62.6645 126.195 62.0898 126.648 62.0898 127.207V127.207C62.0898 127.766 62.6645 128.219 63.3733 128.219H110.445C111.154 128.219 111.728 127.766 111.728 127.207V127.207C111.728 126.648 111.154 126.195 110.445 126.195Z" fill="#A2B1C7"/>
<path d="M110.445 141.123H63.3733C62.6645 141.123 62.0898 141.576 62.0898 142.135V142.135C62.0898 142.694 62.6645 143.147 63.3733 143.147H110.445C111.154 143.147 111.728 142.694 111.728 142.135V142.135C111.728 141.576 111.154 141.123 110.445 141.123Z" fill="#A2B1C7"/>
<path d="M110.445 156.051H63.3733C62.6645 156.051 62.0898 156.504 62.0898 157.063V157.063C62.0898 157.622 62.6645 158.075 63.3733 158.075H110.445C111.154 158.075 111.728 157.622 111.728 157.063V157.063C111.728 156.504 111.154 156.051 110.445 156.051Z" fill="#A2B1C7"/>
</g>
<path d="M91.3197 188H63.2915C62.7627 188 62.334 188.453 62.334 189.012V189.013C62.334 189.571 62.7627 190.024 63.2915 190.024H91.3197C91.8486 190.024 92.2773 189.571 92.2773 189.013V189.012C92.2773 188.453 91.8486 188 91.3197 188Z" fill="#CFD9E8"/>
<path d="M114.642 188H99.8239C99.2951 188 98.8664 188.453 98.8664 189.012V189.013C98.8664 189.571 99.2951 190.024 99.8239 190.024H114.642C115.171 190.024 115.6 189.571 115.6 189.013V189.012C115.6 188.453 115.171 188 114.642 188Z" fill="#CFD9E8"/>
<path d="M87.7972 195.421H63.2915C62.7627 195.421 62.334 195.874 62.334 196.432V196.433C62.334 196.992 62.7627 197.445 63.2915 197.445H87.7972C88.3261 197.445 88.7548 196.992 88.7548 196.433V196.432C88.7548 195.874 88.3261 195.421 87.7972 195.421Z" fill="#CFD9E8"/>
<path d="M114.642 202.843H63.2915C62.7627 202.843 62.334 203.296 62.334 203.855V203.855C62.334 204.414 62.7627 204.867 63.2915 204.867H114.642C115.171 204.867 115.6 204.414 115.6 203.855V203.855C115.6 203.296 115.171 202.843 114.642 202.843Z" fill="#CFD9E8"/>
<path d="M66.2169 54.5251C66.8601 54.5251 67.4336 54.6336 67.9374 54.8506C68.4412 55.0676 68.8326 55.3738 69.1116 55.769C69.3983 56.1565 69.5417 56.5983 69.5417 57.0943V57.1989H67.391V57.1292C67.391 56.8269 67.267 56.5983 67.019 56.4433C66.7788 56.2805 66.4571 56.1992 66.0541 56.1992C65.7363 56.1992 65.4806 56.2612 65.2868 56.3852C65.1008 56.5092 65.0078 56.6835 65.0078 56.9083C65.0078 57.1021 65.1202 57.2648 65.345 57.3966C65.5697 57.5283 65.9495 57.6523 66.4842 57.7686C67.8095 58.0553 68.6969 58.408 69.1465 58.8265C69.596 59.2295 69.8207 59.7526 69.8207 60.3959C69.8207 61.0004 69.6735 61.512 69.379 61.9305C69.0845 62.3412 68.6659 62.6512 68.1234 62.8605C67.5887 63.0698 66.9493 63.1744 66.2052 63.1744C65.4845 63.1744 64.8528 63.062 64.3103 62.8372C63.7678 62.6047 63.3454 62.2676 63.0431 61.8258C62.7486 61.3763 62.6014 60.8377 62.6014 60.2099H64.7637C64.7869 60.6517 64.9226 60.9772 65.1706 61.1864C65.4263 61.3957 65.81 61.5003 66.3215 61.5003C66.7245 61.5003 67.0461 61.4267 67.2864 61.2794C67.5344 61.1244 67.6584 60.9152 67.6584 60.6517C67.6584 60.4657 67.577 60.3068 67.4143 60.175C67.2593 60.0433 67.0539 59.9387 66.7981 59.8611C66.5501 59.7759 66.2285 59.6868 65.8332 59.5938C65.2752 59.4698 64.7947 59.3225 64.3917 59.152C63.9964 58.9737 63.6903 58.78 63.4733 58.5707C63.264 58.3692 63.1051 58.1445 62.9966 57.8965C62.8959 57.6407 62.8455 57.3578 62.8455 57.0478C62.8455 56.4975 63.0044 56.0325 63.3221 55.6528C63.6399 55.273 64.0545 54.9901 64.5661 54.8041C65.0853 54.6181 65.6356 54.5251 66.2169 54.5251ZM78.3885 63H76.1332L75.6217 61.512H72.727L72.2038 63H69.9834L73.0874 54.6995H75.2846L78.3885 63ZM75.1102 59.9076L74.1918 57.0013H74.1685L73.2269 59.9076H75.1102ZM83.6444 60.2332H83.6676L85.0976 54.6995H88.2829V63H86.2485V56.699H86.2252L84.4814 63H82.8306L81.0868 56.699H81.0636V63H79.0291V54.6995H82.2145L83.6444 60.2332ZM93.7443 54.6995C94.3411 54.6995 94.8603 54.8002 95.3021 55.0017C95.7516 55.2032 96.1004 55.5055 96.3484 55.9085C96.5964 56.3115 96.7204 56.8037 96.7204 57.3849C96.7204 59.2838 95.7206 60.2332 93.721 60.2332H91.9424V63H89.78V54.6995H93.7443ZM93.4304 58.5591C93.7869 58.5591 94.0621 58.4739 94.2558 58.3033C94.4573 58.1328 94.5581 57.8732 94.5581 57.5244C94.5581 57.1679 94.4573 56.8967 94.2558 56.7107C94.0543 56.5247 93.7792 56.4317 93.4304 56.4317H91.9424V58.5591H93.4304ZM99.9008 61.1399H103.772V63H97.7384V54.6995H99.9008V61.1399ZM111.46 56.4317H107.008V57.8848H111.077V59.5589H107.008V61.1399H111.576V63H104.845V54.6995H111.46V56.4317ZM66.6586 68.6995C67.4879 68.6995 68.2048 68.8622 68.8093 69.1877C69.4216 69.5133 69.8905 69.986 70.216 70.606C70.5493 71.2183 70.7159 71.9546 70.7159 72.8149C70.7159 73.7061 70.5531 74.4657 70.2276 75.0934C69.9021 75.7212 69.4371 76.1978 68.8326 76.5234C68.2281 76.8411 67.5189 77 66.7051 77H63.078V68.6995H66.6586ZM66.2169 75.1399C66.7594 75.1399 67.2011 75.0663 67.5422 74.9191C67.8832 74.7641 68.135 74.5199 68.2978 74.1867C68.4683 73.8456 68.5536 73.3884 68.5536 72.8149C68.5536 72.0553 68.3559 71.4896 67.9607 71.1176C67.5732 70.7455 67.0229 70.5595 66.3099 70.5595H65.2403V75.1399H66.2169ZM75.6775 68.5251C76.499 68.5251 77.2198 68.7111 77.8398 69.0831C78.4598 69.4551 78.9364 69.9705 79.2697 70.6293C79.603 71.2803 79.7696 72.0205 79.7696 72.8497C79.7696 73.6713 79.603 74.4114 79.2697 75.0702C78.9442 75.7212 78.4714 76.2366 77.8514 76.6164C77.2391 76.9884 76.5145 77.1744 75.6775 77.1744C74.8714 77.1744 74.1584 76.9961 73.5384 76.6396C72.9184 76.2754 72.4379 75.7677 72.0968 75.1167C71.7558 74.4579 71.5853 73.7023 71.5853 72.8497C71.5853 72.036 71.7481 71.2997 72.0736 70.6409C72.3991 69.9821 72.868 69.4668 73.4803 69.0947C74.1003 68.715 74.8327 68.5251 75.6775 68.5251ZM73.7477 72.8497C73.7477 73.338 73.8213 73.7681 73.9685 74.1402C74.1235 74.5122 74.3444 74.8028 74.6312 75.0121C74.9257 75.2136 75.2745 75.3143 75.6775 75.3143C76.0805 75.3143 76.4254 75.2136 76.7121 75.0121C77.0066 74.8028 77.2275 74.5122 77.3748 74.1402C77.5298 73.7681 77.6073 73.338 77.6073 72.8497C77.6073 72.3615 77.5337 71.9352 77.3864 71.5709C77.2391 71.1989 77.0183 70.9083 76.7237 70.699C76.437 70.4898 76.0844 70.3852 75.6658 70.3852C75.2628 70.3852 74.9179 70.4898 74.6312 70.699C74.3444 70.9006 74.1235 71.1873 73.9685 71.5593C73.8213 71.9313 73.7477 72.3615 73.7477 72.8497ZM84.8304 68.5251C85.4504 68.5251 86.0433 68.6491 86.609 68.8971C87.1826 69.1451 87.6553 69.5055 88.0273 69.9783C88.3994 70.451 88.597 71.0129 88.6202 71.664H86.4579C86.3882 71.2454 86.206 70.9277 85.9115 70.7107C85.6248 70.4937 85.2489 70.3852 84.7839 70.3852C84.3808 70.3852 84.0321 70.4898 83.7376 70.699C83.4508 70.9006 83.2299 71.1873 83.0749 71.5593C82.9277 71.9236 82.854 72.3537 82.854 72.8497C82.854 73.3458 82.9277 73.7798 83.0749 74.1518C83.2299 74.516 83.4508 74.8028 83.7376 75.0121C84.0321 75.2136 84.3808 75.3143 84.7839 75.3143C85.2721 75.3143 85.6596 75.1864 85.9464 74.9307C86.2332 74.6749 86.4037 74.2913 86.4579 73.7798H88.6202C88.5815 74.4695 88.3955 75.0702 88.0622 75.5817C87.7367 76.0932 87.2949 76.4885 86.7369 76.7675C86.1789 77.0388 85.5434 77.1744 84.8304 77.1744C84.0476 77.1744 83.3423 76.9922 82.7145 76.628C82.0868 76.2637 81.5908 75.7561 81.2265 75.1051C80.87 74.4463 80.6917 73.6945 80.6917 72.8497C80.6917 72.0515 80.8584 71.3268 81.1916 70.6758C81.5326 70.017 82.017 69.4939 82.6448 69.1064C83.2726 68.7189 84.0011 68.5251 84.8304 68.5251ZM91.8729 73.7449C91.8729 74.2874 91.9891 74.6865 92.2216 74.9423C92.4542 75.1903 92.8223 75.3143 93.3261 75.3143C93.8298 75.3143 94.198 75.1864 94.4305 74.9307C94.663 74.6672 94.7792 74.2719 94.7792 73.7449V68.6995H96.9416V73.6403C96.9416 74.8106 96.647 75.6941 96.058 76.2909C95.4768 76.8799 94.5661 77.1744 93.3261 77.1744C92.086 77.1744 91.1715 76.876 90.5825 76.2792C90.0012 75.6825 89.7106 74.8028 89.7106 73.6403V68.6995H91.8729V73.7449ZM103.012 74.2332H103.036L104.466 68.6995H107.651V77H105.617V70.699H105.593L103.849 77H102.199L100.455 70.699H100.432V77H98.3972V68.6995H101.583L103.012 74.2332ZM115.763 70.4317H111.31V71.8848H115.379V73.5589H111.31V75.1399H115.879V77H109.148V68.6995H115.763V70.4317ZM122.187 73.8146H122.21V68.6995H124.244V77H122.024L119.141 71.8267H119.118V77H117.083V68.6995H119.304L122.187 73.8146ZM132.303 70.5595H129.827V77H127.665V70.5595H125.189V68.6995H132.303V70.5595Z" fill="#334C72"/>
<path opacity="0.999" d="M207.166 57.0971H189.926C189.397 57.0971 188.969 57.5501 188.969 58.1089V58.1096C188.969 58.6684 189.397 59.1214 189.926 59.1214H207.166C207.695 59.1214 208.124 58.6684 208.124 58.1096V58.1089C208.124 57.5501 207.695 57.0971 207.166 57.0971Z" fill="#CFD9E8"/>
<path d="M64.5706 213.001H125.656C126.187 212.985 126.702 213.193 127.088 213.579C127.474 213.964 127.699 214.495 127.715 215.056V241.775C127.699 242.336 127.474 242.867 127.088 243.253C126.702 243.638 126.187 243.846 125.656 243.83H64.5706C64.0396 243.846 63.5245 243.638 63.1385 243.252C62.7525 242.867 62.527 242.335 62.5117 241.774V215.056C62.5272 214.495 62.7528 213.964 63.1388 213.579C63.5248 213.193 64.0397 212.985 64.5706 213.001Z" fill="#FFCD00"/>
<path d="M76.0592 224.69C74.7492 224.69 73.3892 225.4 73.3892 226.84C73.3892 227.75 73.8792 228.36 74.9592 228.72C75.4192 228.87 75.8792 228.97 76.4092 229.11C77.2892 229.33 77.6392 229.61 77.6392 230.06C77.6392 230.71 76.9592 230.95 76.2392 230.95C75.4992 230.95 74.6692 230.64 74.6692 229.63H73.1492V229.68C73.1492 231.45 74.6792 232.17 76.1892 232.17C78.0892 232.17 79.1592 231.23 79.1592 229.88C79.1592 228.37 77.8692 228.01 76.8092 227.74C75.2092 227.34 74.9092 227.24 74.9092 226.72C74.9092 226.16 75.4192 225.91 75.9992 225.91C76.9292 225.91 77.3492 226.27 77.3992 226.99H78.9192C78.9192 225.37 77.5892 224.69 76.0592 224.69ZM81.4033 224.86H79.9833V226.03H81.4033V224.86ZM81.4033 226.83H79.9833V232H81.4033V226.83ZM84.5814 226.69C83.1314 226.69 82.3614 227.93 82.3614 229.25C82.3614 230.76 83.0814 231.85 84.5714 231.85C85.2714 231.85 85.8414 231.55 86.1214 231.05H86.1414V231.76C86.1414 232.55 85.7314 233.01 85.0014 233.01C84.4514 233.01 84.0614 232.8 83.9414 232.3H82.5314C82.5914 233.35 83.6214 233.96 84.8214 233.96C86.7114 233.96 87.4914 233.02 87.4914 231.68V226.83H86.1414V227.52H86.1214C85.8014 226.97 85.3214 226.69 84.5814 226.69ZM83.7814 229.23C83.7814 228.38 84.1914 227.76 84.9214 227.76C85.9214 227.76 86.1414 228.62 86.1414 229.34C86.1414 230.15 85.7014 230.78 84.9314 230.78C84.1114 230.78 83.7814 230.07 83.7814 229.23ZM91.6047 226.69C90.9347 226.69 90.3547 227 90.0147 227.55H89.9847V226.83H88.6347V232H90.0547V229.31C90.0547 228.39 90.2747 227.81 91.1547 227.81C91.8147 227.81 92.0647 228.22 92.0647 229.07V232H93.4847V228.78C93.4847 227.33 92.9147 226.69 91.6047 226.69ZM96.9425 226.69C95.4925 226.69 94.5625 227.29 94.5025 228.42H95.9225C95.9725 227.88 96.2825 227.64 96.8725 227.64C97.3525 227.64 97.7825 227.74 97.7825 228.33C97.7825 228.79 97.3825 228.87 96.4625 228.97C95.6025 229.06 95.1225 229.21 94.7925 229.49C94.5025 229.74 94.3425 230.09 94.3425 230.59C94.3425 231.59 95.0425 232.14 96.1025 232.14C96.8325 232.14 97.4425 231.92 97.8425 231.5C97.8525 231.67 97.8925 231.84 97.9425 232H99.3825C99.2525 231.79 99.2025 231.31 99.2025 230.9V228.16C99.2025 227.2 98.4525 226.69 96.9425 226.69ZM95.7625 230.53C95.7625 229.97 96.1925 229.81 96.9225 229.72C97.4025 229.66 97.6525 229.59 97.7825 229.47V230.02C97.7825 230.78 97.3925 231.19 96.6325 231.19C96.0125 231.19 95.7625 230.94 95.7625 230.53ZM102.105 225.28H100.685V226.83H99.8246V227.78H100.685V230.81C100.685 231.73 101.215 232.06 102.305 232.06C102.585 232.06 102.905 232.05 103.145 232.01V230.9C103.025 230.93 102.865 230.94 102.705 230.94C102.225 230.94 102.105 230.82 102.105 230.34V227.78H103.145V226.83H102.105V225.28ZM105.24 226.83H103.82V230.04C103.82 231.46 104.35 232.14 105.7 232.14C106.33 232.14 106.93 231.86 107.29 231.28H107.32V232H108.67V226.83H107.25V229.55C107.25 230.57 106.93 231.02 106.15 231.02C105.45 231.02 105.24 230.55 105.24 229.76V226.83ZM112.768 226.69C112.058 226.69 111.388 227.14 111.118 227.79H111.098V226.83H109.748V232H111.168V229.67C111.168 228.72 111.538 228.01 112.568 228.01C112.768 228.01 112.938 228.03 113.078 228.06V226.74C113.008 226.72 112.908 226.69 112.768 226.69ZM115.947 226.69C114.387 226.69 113.307 227.86 113.307 229.42C113.307 231.01 114.307 232.14 115.947 232.14C117.187 232.14 117.987 231.57 118.367 230.4H117.117C117.007 230.76 116.527 231.07 115.987 231.07C115.177 231.07 114.767 230.65 114.727 229.76H118.457C118.457 229.76 118.467 229.58 118.467 229.5C118.467 227.97 117.577 226.69 115.947 226.69ZM117.037 228.86H114.727C114.787 228.18 115.207 227.76 115.897 227.76C116.557 227.76 116.897 228.08 117.037 228.86Z" fill="#1C3252"/>
</g>
<g filter="url(#filter1_d_385_3946)">
<rect x="153" y="84" width="140" height="127.781" rx="4.46658" fill="white" shape-rendering="crispEdges"/>
<path d="M190.572 93.1625H178.968C178.859 93.1613 178.751 93.183 178.65 93.2265C178.55 93.2699 178.458 93.3342 178.381 93.4155C178.304 93.4969 178.243 93.5936 178.202 93.7001C178.161 93.8066 178.14 93.9207 178.142 94.0358V102.55C178.142 102.782 178.229 103.004 178.384 103.167C178.539 103.331 178.749 103.423 178.968 103.424H190.572C190.791 103.423 191.001 103.331 191.156 103.167C191.31 103.004 191.398 102.782 191.398 102.55V94.0358C191.398 93.8043 191.31 93.5824 191.156 93.4187C191.001 93.255 190.791 93.1629 190.572 93.1625ZM190.406 102.376H179.133V94.2106H190.406V102.376Z" fill="#AAB7C9"/>
<path d="M187.283 100.243H182.125V101.291H187.283V100.243Z" fill="#AAB7C9"/>
<path d="M182.527 95.4332H180.593V96.4812H182.527V95.4332Z" fill="#AAB7C9"/>
<path d="M185.755 95.4332H183.821V96.4812H185.755V95.4332Z" fill="#AAB7C9"/>
<path d="M188.988 95.4332H187.054V96.4812H188.988V95.4332Z" fill="#AAB7C9"/>
<path d="M182.527 97.6326H180.593V98.6806H182.527V97.6326Z" fill="#AAB7C9"/>
<path d="M185.755 97.6326H183.821V98.6806H185.755V97.6326Z" fill="#AAB7C9"/>
<path d="M188.988 97.6326H187.054V98.6806H188.988V97.6326Z" fill="#AAB7C9"/>
<path d="M220.686 103.653L219.984 102.932C220.03 102.88 220.068 102.836 220.108 102.794C220.298 102.592 220.31 102.562 220.504 102.365C220.535 102.335 220.56 102.299 220.576 102.258C220.593 102.217 220.6 102.173 220.598 102.128C220.594 101.506 220.598 100.778 220.594 100.157C220.592 100.112 220.6 100.068 220.616 100.026C220.632 99.9853 220.656 99.9485 220.687 99.9184C222.836 97.605 223.091 97.372 225.24 95.0579C225.415 94.8682 225.598 94.6857 225.795 94.4808C225.649 94.3189 225.495 94.1659 225.333 94.0228C225.242 93.955 225.13 93.9269 225.02 93.944C224.909 93.9612 224.809 94.0223 224.74 94.1151C224.112 94.7874 223.932 94.9807 223.305 95.6559C223.142 95.8312 222.981 96.0094 222.823 96.1818L222.15 95.4604C222.398 95.1978 222.653 94.9309 222.905 94.6619C223.464 94.0653 223.567 93.9362 224.135 93.349C224.395 93.0794 224.744 92.9301 225.105 92.9332C225.467 92.9363 225.813 93.0916 226.069 93.3656C226.315 93.6217 226.548 93.8922 226.794 94.1641C226.842 94.1201 226.872 94.092 226.899 94.066C227.117 93.833 227.072 93.8749 227.292 93.6455C227.603 93.4021 227.983 93.2812 228.367 93.3033C228.751 93.3253 229.116 93.489 229.401 93.7667C229.655 94.0594 229.8 94.4414 229.81 94.841C229.82 95.2405 229.693 95.6301 229.454 95.9365C229.215 96.1941 229.285 96.1587 229.017 96.4336L229.402 96.7762C229.345 96.8433 229.318 96.8786 229.288 96.9111C226.779 99.6104 226.162 100.225 223.655 102.926C223.619 102.967 223.576 103 223.527 103.022C223.479 103.043 223.427 103.053 223.374 103.051C222.817 103.045 221.967 102.954 221.41 102.95C221.368 102.947 221.326 102.954 221.288 102.971C221.249 102.987 221.214 103.013 221.187 103.047C220.955 103.312 220.905 103.398 220.686 103.653ZM223.432 98.3625C223.42 98.3708 223.408 98.3802 223.397 98.3906C222.46 99.4005 222.522 99.3673 221.589 100.379C221.553 100.426 221.534 100.484 221.535 100.544C221.529 100.816 221.535 101.088 221.535 101.361V101.943C221.597 101.943 221.641 101.95 221.685 101.95C222.028 101.95 222.663 102.044 223.007 102.05C223.052 102.053 223.098 102.045 223.141 102.026C223.183 102.007 223.221 101.979 223.252 101.943C224.153 100.969 224.06 101.039 224.959 100.067C224.989 100.034 225.017 99.9949 225.041 99.9704C224.596 99.4993 223.871 98.8343 223.429 98.3603L223.432 98.3625ZM226.471 95.252C225.39 96.3895 225.201 96.4877 224.129 97.6166C224.569 98.0876 225.296 98.7549 225.707 99.1956C226.778 98.0602 226.964 97.9578 228.035 96.8209C227.597 96.3528 226.871 95.6833 226.467 95.2498L226.471 95.252ZM227.484 94.8473C227.701 95.0839 228.188 95.5015 228.368 95.6978C228.628 95.4316 228.612 95.4453 228.86 95.1654C229.012 94.9937 228.884 94.5703 228.725 94.408C228.617 94.3143 228.486 94.257 228.347 94.2434C228.209 94.2298 228.07 94.2604 227.948 94.3315C227.69 94.5854 227.73 94.5847 227.484 94.8458L227.484 94.8473Z" fill="#2CC400"/>
<path d="M266.739 98.9483V101.492C266.739 101.649 266.679 101.8 266.574 101.911C266.469 102.022 266.327 102.084 266.178 102.085H260.078C259.929 102.084 259.786 102.022 259.681 101.911C259.576 101.8 259.517 101.649 259.517 101.492V98.9483H258.397V101.492C258.397 101.963 258.574 102.415 258.889 102.748C259.204 103.081 259.632 103.268 260.078 103.268H266.177C266.623 103.268 267.051 103.081 267.366 102.748C267.681 102.415 267.858 101.963 267.858 101.492V98.9483H266.739Z" fill="#AAB7C9" stroke="white" stroke-width="0.0893316"/>
<path d="M263.128 93.3177L260.213 96.3979L261.005 97.2357L262.567 95.5858V100.697H263.688V95.585L265.249 97.235L266.042 96.3972L263.128 93.3177Z" fill="#AAB7C9" stroke="white" stroke-width="0.0893316"/>
<path d="M161.933 112.139H284.067" stroke="#DFE9F5" stroke-width="1.78663"/>
<path d="M207.566 112.14H237.264" stroke="#2CC400" stroke-width="1.78663"/>
<path d="M282.74 120.627H163.26C162.705 120.627 162.254 121.246 162.254 122.01V178.649C162.254 179.413 162.705 180.032 163.26 180.032H282.74C283.295 180.032 283.745 179.413 283.745 178.649V122.01C283.745 121.246 283.295 120.627 282.74 120.627Z" stroke="#6C6BFB" stroke-width="0.669987" stroke-dasharray="2.68 3.13"/>
<mask id="path-37-outside-1_385_3946" maskUnits="userSpaceOnUse" x="197.09" y="124.487" width="74" height="48" fill="black">
<rect fill="white" x="197.09" y="124.487" width="74" height="48"/>
<path d="M214.006 158.066C213.928 158.078 213.855 158.112 213.792 158.164C213.73 158.216 213.682 158.284 213.652 158.361C212.855 159.543 211.995 160.676 211.077 161.756C209.682 163.443 208.206 165.053 206.654 166.58C205.449 167.892 204.129 169.081 202.712 170.131C201.931 170.652 201.106 171.095 200.247 171.453C200.008 171.602 199.731 171.671 199.454 171.649C199.177 171.627 198.913 171.515 198.698 171.329C198.463 171.105 198.287 170.821 198.186 170.504C198.086 170.187 198.064 169.848 198.123 169.52C198.183 169.172 198.297 168.836 198.461 168.528C199.12 167.205 199.915 165.962 200.83 164.822C203.196 161.822 205.865 159.123 208.469 156.362C210.564 154.142 212.638 151.903 214.743 149.696C214.945 149.531 215.096 149.309 215.18 149.054C215.263 148.8 215.274 148.526 215.212 148.266C215.148 148.007 215.153 147.731 215.113 147.466C215.101 147.223 215 146.996 214.831 146.831C214.663 146.666 214.44 146.578 214.21 146.585C213.659 146.552 213.107 146.636 212.588 146.834C212.291 146.939 211.997 147.055 211.703 147.153C211.551 147.202 211.371 147.227 211.289 147.039C211.255 146.95 211.254 146.851 211.287 146.762C211.32 146.672 211.384 146.6 211.466 146.559C211.514 146.523 211.566 146.493 211.622 146.471C212.397 146.079 213.244 145.871 214.104 145.86C214.529 145.829 214.953 145.948 215.309 146.197C215.664 146.447 215.932 146.813 216.071 147.24C216.104 147.337 216.141 147.433 216.184 147.526C216.261 147.697 216.38 147.713 216.518 147.604C216.581 147.554 216.641 147.499 216.695 147.438C217.866 146.21 218.965 144.915 220.033 143.586C221.406 141.879 222.687 140.09 224.031 138.365C225.432 136.576 226.861 134.813 228.317 133.075C229.146 132.075 229.984 131.078 230.87 130.151C232.21 128.748 233.557 127.355 234.912 125.972C235.056 125.829 235.215 125.704 235.385 125.597C235.45 125.54 235.528 125.503 235.612 125.491C235.695 125.48 235.78 125.494 235.856 125.532C235.933 125.57 235.997 125.63 236.041 125.706C236.086 125.781 236.109 125.869 236.107 125.958C236.119 126.145 236.093 126.332 236.031 126.508C235.461 128.648 234.747 130.732 234.021 132.817C233.246 135.036 232.583 137.304 231.898 139.547C231.845 139.657 231.833 139.784 231.866 139.903C231.899 140.022 231.974 140.123 232.075 140.184C232.382 140.412 232.635 140.71 232.816 141.056C232.997 141.402 233.101 141.788 233.119 142.183C233.235 143.717 233.073 145.261 232.642 146.731C232.478 147.478 232.251 148.208 231.962 148.912C232.327 148.7 232.663 148.436 232.96 148.127C234.021 146.994 235.125 145.883 236.144 144.719C237.439 143.243 238.681 141.728 239.946 140.218C239.999 140.154 240.05 140.091 240.105 140.031C241.775 138.303 243.29 136.415 244.956 134.688C246.302 133.292 247.501 131.746 248.873 130.389C249.898 129.302 250.998 128.296 252.163 127.379C252.526 127.087 252.951 126.895 253.402 126.818C253.604 126.771 253.816 126.783 254.012 126.854C254.209 126.924 254.384 127.05 254.518 127.218C254.652 127.386 254.739 127.59 254.771 127.806C254.803 128.023 254.779 128.245 254.7 128.448C254.211 129.939 253.647 131.401 253.011 132.829C252.092 134.969 251.316 137.16 250.553 139.362C250.169 140.469 249.78 141.583 249.395 142.692C249.348 142.828 249.304 142.966 249.265 143.107C249.248 143.145 249.239 143.187 249.24 143.229C249.241 143.271 249.252 143.313 249.272 143.35C249.291 143.386 249.319 143.418 249.353 143.441C249.387 143.463 249.425 143.477 249.465 143.481C250.809 143.81 251.321 144.883 251.611 146.162C251.758 146.933 251.865 147.713 251.933 148.496C251.979 148.871 252.007 148.891 252.338 148.781C252.915 148.571 253.459 148.273 253.953 147.895C255.257 146.936 256.55 145.957 257.845 144.992C258.667 144.387 259.553 143.885 260.485 143.496C261.09 143.241 261.733 143.099 262.385 143.078C262.908 143.049 263.428 143.164 263.896 143.413C264.363 143.662 264.761 144.036 265.049 144.497C265.468 145.101 265.859 145.717 266.312 146.295C266.511 146.553 266.757 146.765 267.035 146.921C267.313 147.076 267.618 147.171 267.931 147.2C268.186 147.23 268.439 147.26 268.69 147.308C268.941 147.356 269.19 147.419 269.435 147.495C269.644 147.564 269.866 147.663 269.776 147.97C269.7 148.232 269.497 148.207 269.287 148.168C268.729 148.06 268.17 147.938 267.605 147.867C267.078 147.787 266.573 147.589 266.125 147.286C265.676 146.984 265.293 146.583 265.003 146.112C264.675 145.644 264.352 145.177 264.044 144.695C263.871 144.392 263.621 144.146 263.323 143.985C263.025 143.823 262.69 143.754 262.356 143.783C261.315 143.873 260.308 144.22 259.418 144.798C258.149 145.588 256.931 146.466 255.772 147.426C254.868 148.159 253.901 148.802 252.885 149.345C252.692 149.448 252.494 149.539 252.291 149.616C252.134 149.68 251.966 149.706 251.799 149.693C251.632 149.679 251.469 149.626 251.324 149.538C251.179 149.45 251.054 149.328 250.959 149.182C250.864 149.036 250.801 148.869 250.774 148.694C250.677 148.187 250.659 147.661 250.589 147.152C250.539 146.364 250.354 145.592 250.044 144.873C249.987 144.741 249.916 144.616 249.834 144.499C249.771 144.383 249.677 144.29 249.562 144.232C249.448 144.173 249.32 144.153 249.195 144.173C249.069 144.194 248.953 144.253 248.86 144.345C248.768 144.436 248.703 144.555 248.676 144.686C248.009 146.572 247.349 148.458 246.573 150.294C245.47 152.868 244.084 155.295 242.443 157.526C240.974 159.5 239.378 161.365 237.667 163.107C237.104 163.688 236.459 164.173 235.755 164.545C235.555 164.681 235.321 164.75 235.084 164.744C234.846 164.738 234.616 164.657 234.422 164.511C234.23 164.365 234.081 164.165 233.992 163.933C233.903 163.702 233.877 163.449 233.918 163.203C234.055 162.217 234.268 161.245 234.555 160.296C235.405 157.134 236.81 154.169 238.698 151.557C239.958 149.751 241.38 148.078 242.944 146.562C243.875 145.577 244.945 144.75 246.116 144.112C246.488 143.92 246.874 143.758 247.27 143.628C247.402 143.592 247.523 143.52 247.621 143.419C247.719 143.318 247.79 143.192 247.828 143.053C248.463 141.223 249.123 139.4 249.751 137.566C250.706 134.731 251.822 131.96 253.092 129.266C253.301 128.823 253.506 128.371 253.684 127.911C253.803 127.602 253.704 127.492 253.389 127.536C253.078 127.596 252.787 127.74 252.545 127.955C251.825 128.494 251.144 129.091 250.509 129.74C248.954 131.353 247.385 132.957 245.91 134.651C244.647 136.103 243.286 137.455 242.041 138.92C240.561 140.665 239.023 142.353 237.56 144.113C235.951 146.156 234.162 148.034 232.219 149.721C232.004 149.903 231.818 150.12 231.667 150.364C231.514 150.605 231.329 150.823 231.119 151.011C231.025 151.119 230.898 151.19 230.761 151.212C230.623 151.234 230.483 151.206 230.362 151.133C230.233 151.039 230.131 150.91 230.066 150.759C230.001 150.608 229.976 150.442 229.994 150.277C230.04 150.119 230.099 149.965 230.171 149.817C231.008 147.937 231.581 145.938 231.871 143.882C231.936 143.321 231.97 142.761 231.989 142.2C232.008 141.824 231.92 141.45 231.734 141.128C231.639 140.967 231.515 140.942 231.425 141.128C231.361 141.28 231.306 141.435 231.26 141.594C230.563 143.842 229.741 146.046 228.799 148.192C227.908 150.139 226.802 151.967 225.505 153.638C224.517 154.956 223.443 156.199 222.293 157.36C221.046 158.714 219.657 159.911 218.152 160.929C217.777 161.15 217.393 161.364 217.004 161.563C216.613 161.761 216.195 161.892 215.766 161.953C215.503 162.007 215.233 161.996 214.975 161.921C214.717 161.846 214.479 161.71 214.28 161.522C214.08 161.334 213.925 161.1 213.825 160.838C213.725 160.576 213.684 160.293 213.705 160.011C213.763 159.356 213.863 158.706 214.006 158.066ZM230.23 140.373C229.043 140.598 227.9 141.034 226.85 141.663C223.927 143.503 221.336 145.875 219.196 148.669C217.262 151.241 215.811 154.181 214.923 157.33C214.656 158.155 214.474 159.007 214.378 159.872C214.327 160.458 214.587 160.728 215.137 160.7C215.668 160.661 216.182 160.487 216.636 160.193C217.788 159.484 218.87 158.653 219.863 157.712C221.486 156.209 222.992 154.571 224.367 152.813C226.14 150.533 227.555 147.966 228.557 145.212C228.965 144.09 229.367 142.969 229.765 141.847C229.923 141.389 230.05 140.946 230.231 140.371L230.23 140.373ZM215.194 150.279C214.992 150.354 214.82 150.498 214.705 150.688C214.443 151.051 214.154 151.391 213.84 151.705C211.844 153.786 209.912 155.936 207.858 157.958C205.805 159.981 203.937 162.192 202.056 164.391C200.984 165.658 200.036 167.035 199.226 168.503C199.047 168.8 198.912 169.124 198.822 169.462C198.768 169.598 198.756 169.747 198.785 169.89C198.815 170.033 198.886 170.163 198.988 170.262C199.204 170.449 199.445 170.301 199.652 170.195C200.269 169.877 200.89 169.554 201.492 169.216C201.84 169.025 202.17 168.8 202.477 168.542C203.594 167.595 204.661 166.585 205.674 165.516C206.009 165.137 206.364 164.778 206.735 164.439C207.912 163.282 209.023 162.051 210.062 160.755C210.705 160.032 211.3 159.259 211.882 158.478C213.283 156.496 214.304 154.244 214.89 151.848C215.016 151.369 215.081 150.863 215.194 150.285L215.194 150.279ZM247.177 144.435C246.585 144.607 246.026 144.889 245.526 145.267C244.544 145.989 243.62 146.798 242.767 147.685C241.547 148.947 240.423 150.308 239.406 151.757C237.542 154.308 236.134 157.196 235.249 160.28C235.032 161.077 234.898 161.898 234.851 162.727C234.838 162.913 234.781 163.125 234.961 163.243C235.14 163.361 235.263 163.208 235.398 163.131C235.713 162.961 236.003 162.743 236.26 162.486C238.22 160.543 240.032 158.437 241.677 156.19C243.08 154.215 244.289 152.094 245.287 149.86C245.994 148.219 246.593 146.527 247.195 144.842C247.233 144.782 247.25 144.711 247.246 144.64C247.241 144.568 247.215 144.5 247.171 144.446L247.177 144.435ZM234.329 127.781C232.764 129.105 231.31 130.57 229.984 132.16C228.518 133.86 227.072 135.577 225.688 137.351C224.537 138.822 223.416 140.314 222.284 141.796C221.361 143.006 220.43 144.209 219.453 145.378C218.588 146.423 217.672 147.419 216.766 148.425C216.653 148.539 216.565 148.678 216.51 148.832C216.454 148.986 216.432 149.152 216.444 149.316C216.483 150.042 216.429 150.769 216.285 151.479C216.252 151.666 216.239 151.844 216.215 152.027C216.332 151.926 216.426 151.798 216.49 151.653C217.531 149.65 218.829 147.81 220.349 146.185C220.923 145.562 221.53 144.976 222.15 144.4C223.526 143.135 225.008 142.003 226.577 141.02C227.611 140.373 228.752 139.939 229.938 139.741C230.315 139.675 230.556 139.542 230.637 139.13C230.679 138.909 230.771 138.696 230.835 138.478C231.554 136.021 232.322 133.584 233.172 131.172C233.565 130.041 233.944 128.91 234.329 127.781Z"/>
</mask>
<path d="M214.006 158.066C213.928 158.078 213.855 158.112 213.792 158.164C213.73 158.216 213.682 158.284 213.652 158.361C212.855 159.543 211.995 160.676 211.077 161.756C209.682 163.443 208.206 165.053 206.654 166.58C205.449 167.892 204.129 169.081 202.712 170.131C201.931 170.652 201.106 171.095 200.247 171.453C200.008 171.602 199.731 171.671 199.454 171.649C199.177 171.627 198.913 171.515 198.698 171.329C198.463 171.105 198.287 170.821 198.186 170.504C198.086 170.187 198.064 169.848 198.123 169.52C198.183 169.172 198.297 168.836 198.461 168.528C199.12 167.205 199.915 165.962 200.83 164.822C203.196 161.822 205.865 159.123 208.469 156.362C210.564 154.142 212.638 151.903 214.743 149.696C214.945 149.531 215.096 149.309 215.18 149.054C215.263 148.8 215.274 148.526 215.212 148.266C215.148 148.007 215.153 147.731 215.113 147.466C215.101 147.223 215 146.996 214.831 146.831C214.663 146.666 214.44 146.578 214.21 146.585C213.659 146.552 213.107 146.636 212.588 146.834C212.291 146.939 211.997 147.055 211.703 147.153C211.551 147.202 211.371 147.227 211.289 147.039C211.255 146.95 211.254 146.851 211.287 146.762C211.32 146.672 211.384 146.6 211.466 146.559C211.514 146.523 211.566 146.493 211.622 146.471C212.397 146.079 213.244 145.871 214.104 145.86C214.529 145.829 214.953 145.948 215.309 146.197C215.664 146.447 215.932 146.813 216.071 147.24C216.104 147.337 216.141 147.433 216.184 147.526C216.261 147.697 216.38 147.713 216.518 147.604C216.581 147.554 216.641 147.499 216.695 147.438C217.866 146.21 218.965 144.915 220.033 143.586C221.406 141.879 222.687 140.09 224.031 138.365C225.432 136.576 226.861 134.813 228.317 133.075C229.146 132.075 229.984 131.078 230.87 130.151C232.21 128.748 233.557 127.355 234.912 125.972C235.056 125.829 235.215 125.704 235.385 125.597C235.45 125.54 235.528 125.503 235.612 125.491C235.695 125.48 235.78 125.494 235.856 125.532C235.933 125.57 235.997 125.63 236.041 125.706C236.086 125.781 236.109 125.869 236.107 125.958C236.119 126.145 236.093 126.332 236.031 126.508C235.461 128.648 234.747 130.732 234.021 132.817C233.246 135.036 232.583 137.304 231.898 139.547C231.845 139.657 231.833 139.784 231.866 139.903C231.899 140.022 231.974 140.123 232.075 140.184C232.382 140.412 232.635 140.71 232.816 141.056C232.997 141.402 233.101 141.788 233.119 142.183C233.235 143.717 233.073 145.261 232.642 146.731C232.478 147.478 232.251 148.208 231.962 148.912C232.327 148.7 232.663 148.436 232.96 148.127C234.021 146.994 235.125 145.883 236.144 144.719C237.439 143.243 238.681 141.728 239.946 140.218C239.999 140.154 240.05 140.091 240.105 140.031C241.775 138.303 243.29 136.415 244.956 134.688C246.302 133.292 247.501 131.746 248.873 130.389C249.898 129.302 250.998 128.296 252.163 127.379C252.526 127.087 252.951 126.895 253.402 126.818C253.604 126.771 253.816 126.783 254.012 126.854C254.209 126.924 254.384 127.05 254.518 127.218C254.652 127.386 254.739 127.59 254.771 127.806C254.803 128.023 254.779 128.245 254.7 128.448C254.211 129.939 253.647 131.401 253.011 132.829C252.092 134.969 251.316 137.16 250.553 139.362C250.169 140.469 249.78 141.583 249.395 142.692C249.348 142.828 249.304 142.966 249.265 143.107C249.248 143.145 249.239 143.187 249.24 143.229C249.241 143.271 249.252 143.313 249.272 143.35C249.291 143.386 249.319 143.418 249.353 143.441C249.387 143.463 249.425 143.477 249.465 143.481C250.809 143.81 251.321 144.883 251.611 146.162C251.758 146.933 251.865 147.713 251.933 148.496C251.979 148.871 252.007 148.891 252.338 148.781C252.915 148.571 253.459 148.273 253.953 147.895C255.257 146.936 256.55 145.957 257.845 144.992C258.667 144.387 259.553 143.885 260.485 143.496C261.09 143.241 261.733 143.099 262.385 143.078C262.908 143.049 263.428 143.164 263.896 143.413C264.363 143.662 264.761 144.036 265.049 144.497C265.468 145.101 265.859 145.717 266.312 146.295C266.511 146.553 266.757 146.765 267.035 146.921C267.313 147.076 267.618 147.171 267.931 147.2C268.186 147.23 268.439 147.26 268.69 147.308C268.941 147.356 269.19 147.419 269.435 147.495C269.644 147.564 269.866 147.663 269.776 147.97C269.7 148.232 269.497 148.207 269.287 148.168C268.729 148.06 268.17 147.938 267.605 147.867C267.078 147.787 266.573 147.589 266.125 147.286C265.676 146.984 265.293 146.583 265.003 146.112C264.675 145.644 264.352 145.177 264.044 144.695C263.871 144.392 263.621 144.146 263.323 143.985C263.025 143.823 262.69 143.754 262.356 143.783C261.315 143.873 260.308 144.22 259.418 144.798C258.149 145.588 256.931 146.466 255.772 147.426C254.868 148.159 253.901 148.802 252.885 149.345C252.692 149.448 252.494 149.539 252.291 149.616C252.134 149.68 251.966 149.706 251.799 149.693C251.632 149.679 251.469 149.626 251.324 149.538C251.179 149.45 251.054 149.328 250.959 149.182C250.864 149.036 250.801 148.869 250.774 148.694C250.677 148.187 250.659 147.661 250.589 147.152C250.539 146.364 250.354 145.592 250.044 144.873C249.987 144.741 249.916 144.616 249.834 144.499C249.771 144.383 249.677 144.29 249.562 144.232C249.448 144.173 249.32 144.153 249.195 144.173C249.069 144.194 248.953 144.253 248.86 144.345C248.768 144.436 248.703 144.555 248.676 144.686C248.009 146.572 247.349 148.458 246.573 150.294C245.47 152.868 244.084 155.295 242.443 157.526C240.974 159.5 239.378 161.365 237.667 163.107C237.104 163.688 236.459 164.173 235.755 164.545C235.555 164.681 235.321 164.75 235.084 164.744C234.846 164.738 234.616 164.657 234.422 164.511C234.23 164.365 234.081 164.165 233.992 163.933C233.903 163.702 233.877 163.449 233.918 163.203C234.055 162.217 234.268 161.245 234.555 160.296C235.405 157.134 236.81 154.169 238.698 151.557C239.958 149.751 241.38 148.078 242.944 146.562C243.875 145.577 244.945 144.75 246.116 144.112C246.488 143.92 246.874 143.758 247.27 143.628C247.402 143.592 247.523 143.52 247.621 143.419C247.719 143.318 247.79 143.192 247.828 143.053C248.463 141.223 249.123 139.4 249.751 137.566C250.706 134.731 251.822 131.96 253.092 129.266C253.301 128.823 253.506 128.371 253.684 127.911C253.803 127.602 253.704 127.492 253.389 127.536C253.078 127.596 252.787 127.74 252.545 127.955C251.825 128.494 251.144 129.091 250.509 129.74C248.954 131.353 247.385 132.957 245.91 134.651C244.647 136.103 243.286 137.455 242.041 138.92C240.561 140.665 239.023 142.353 237.56 144.113C235.951 146.156 234.162 148.034 232.219 149.721C232.004 149.903 231.818 150.12 231.667 150.364C231.514 150.605 231.329 150.823 231.119 151.011C231.025 151.119 230.898 151.19 230.761 151.212C230.623 151.234 230.483 151.206 230.362 151.133C230.233 151.039 230.131 150.91 230.066 150.759C230.001 150.608 229.976 150.442 229.994 150.277C230.04 150.119 230.099 149.965 230.171 149.817C231.008 147.937 231.581 145.938 231.871 143.882C231.936 143.321 231.97 142.761 231.989 142.2C232.008 141.824 231.92 141.45 231.734 141.128C231.639 140.967 231.515 140.942 231.425 141.128C231.361 141.28 231.306 141.435 231.26 141.594C230.563 143.842 229.741 146.046 228.799 148.192C227.908 150.139 226.802 151.967 225.505 153.638C224.517 154.956 223.443 156.199 222.293 157.36C221.046 158.714 219.657 159.911 218.152 160.929C217.777 161.15 217.393 161.364 217.004 161.563C216.613 161.761 216.195 161.892 215.766 161.953C215.503 162.007 215.233 161.996 214.975 161.921C214.717 161.846 214.479 161.71 214.28 161.522C214.08 161.334 213.925 161.1 213.825 160.838C213.725 160.576 213.684 160.293 213.705 160.011C213.763 159.356 213.863 158.706 214.006 158.066ZM230.23 140.373C229.043 140.598 227.9 141.034 226.85 141.663C223.927 143.503 221.336 145.875 219.196 148.669C217.262 151.241 215.811 154.181 214.923 157.33C214.656 158.155 214.474 159.007 214.378 159.872C214.327 160.458 214.587 160.728 215.137 160.7C215.668 160.661 216.182 160.487 216.636 160.193C217.788 159.484 218.87 158.653 219.863 157.712C221.486 156.209 222.992 154.571 224.367 152.813C226.14 150.533 227.555 147.966 228.557 145.212C228.965 144.09 229.367 142.969 229.765 141.847C229.923 141.389 230.05 140.946 230.231 140.371L230.23 140.373ZM215.194 150.279C214.992 150.354 214.82 150.498 214.705 150.688C214.443 151.051 214.154 151.391 213.84 151.705C211.844 153.786 209.912 155.936 207.858 157.958C205.805 159.981 203.937 162.192 202.056 164.391C200.984 165.658 200.036 167.035 199.226 168.503C199.047 168.8 198.912 169.124 198.822 169.462C198.768 169.598 198.756 169.747 198.785 169.89C198.815 170.033 198.886 170.163 198.988 170.262C199.204 170.449 199.445 170.301 199.652 170.195C200.269 169.877 200.89 169.554 201.492 169.216C201.84 169.025 202.17 168.8 202.477 168.542C203.594 167.595 204.661 166.585 205.674 165.516C206.009 165.137 206.364 164.778 206.735 164.439C207.912 163.282 209.023 162.051 210.062 160.755C210.705 160.032 211.3 159.259 211.882 158.478C213.283 156.496 214.304 154.244 214.89 151.848C215.016 151.369 215.081 150.863 215.194 150.285L215.194 150.279ZM247.177 144.435C246.585 144.607 246.026 144.889 245.526 145.267C244.544 145.989 243.62 146.798 242.767 147.685C241.547 148.947 240.423 150.308 239.406 151.757C237.542 154.308 236.134 157.196 235.249 160.28C235.032 161.077 234.898 161.898 234.851 162.727C234.838 162.913 234.781 163.125 234.961 163.243C235.14 163.361 235.263 163.208 235.398 163.131C235.713 162.961 236.003 162.743 236.26 162.486C238.22 160.543 240.032 158.437 241.677 156.19C243.08 154.215 244.289 152.094 245.287 149.86C245.994 148.219 246.593 146.527 247.195 144.842C247.233 144.782 247.25 144.711 247.246 144.64C247.241 144.568 247.215 144.5 247.171 144.446L247.177 144.435ZM234.329 127.781C232.764 129.105 231.31 130.57 229.984 132.16C228.518 133.86 227.072 135.577 225.688 137.351C224.537 138.822 223.416 140.314 222.284 141.796C221.361 143.006 220.43 144.209 219.453 145.378C218.588 146.423 217.672 147.419 216.766 148.425C216.653 148.539 216.565 148.678 216.51 148.832C216.454 148.986 216.432 149.152 216.444 149.316C216.483 150.042 216.429 150.769 216.285 151.479C216.252 151.666 216.239 151.844 216.215 152.027C216.332 151.926 216.426 151.798 216.49 151.653C217.531 149.65 218.829 147.81 220.349 146.185C220.923 145.562 221.53 144.976 222.15 144.4C223.526 143.135 225.008 142.003 226.577 141.02C227.611 140.373 228.752 139.939 229.938 139.741C230.315 139.675 230.556 139.542 230.637 139.13C230.679 138.909 230.771 138.696 230.835 138.478C231.554 136.021 232.322 133.584 233.172 131.172C233.565 130.041 233.944 128.91 234.329 127.781Z" fill="#213250"/>
<path d="M214.006 158.066C213.928 158.078 213.855 158.112 213.792 158.164C213.73 158.216 213.682 158.284 213.652 158.361C212.855 159.543 211.995 160.676 211.077 161.756C209.682 163.443 208.206 165.053 206.654 166.58C205.449 167.892 204.129 169.081 202.712 170.131C201.931 170.652 201.106 171.095 200.247 171.453C200.008 171.602 199.731 171.671 199.454 171.649C199.177 171.627 198.913 171.515 198.698 171.329C198.463 171.105 198.287 170.821 198.186 170.504C198.086 170.187 198.064 169.848 198.123 169.52C198.183 169.172 198.297 168.836 198.461 168.528C199.12 167.205 199.915 165.962 200.83 164.822C203.196 161.822 205.865 159.123 208.469 156.362C210.564 154.142 212.638 151.903 214.743 149.696C214.945 149.531 215.096 149.309 215.18 149.054C215.263 148.8 215.274 148.526 215.212 148.266C215.148 148.007 215.153 147.731 215.113 147.466C215.101 147.223 215 146.996 214.831 146.831C214.663 146.666 214.44 146.578 214.21 146.585C213.659 146.552 213.107 146.636 212.588 146.834C212.291 146.939 211.997 147.055 211.703 147.153C211.551 147.202 211.371 147.227 211.289 147.039C211.255 146.95 211.254 146.851 211.287 146.762C211.32 146.672 211.384 146.6 211.466 146.559C211.514 146.523 211.566 146.493 211.622 146.471C212.397 146.079 213.244 145.871 214.104 145.86C214.529 145.829 214.953 145.948 215.309 146.197C215.664 146.447 215.932 146.813 216.071 147.24C216.104 147.337 216.141 147.433 216.184 147.526C216.261 147.697 216.38 147.713 216.518 147.604C216.581 147.554 216.641 147.499 216.695 147.438C217.866 146.21 218.965 144.915 220.033 143.586C221.406 141.879 222.687 140.09 224.031 138.365C225.432 136.576 226.861 134.813 228.317 133.075C229.146 132.075 229.984 131.078 230.87 130.151C232.21 128.748 233.557 127.355 234.912 125.972C235.056 125.829 235.215 125.704 235.385 125.597C235.45 125.54 235.528 125.503 235.612 125.491C235.695 125.48 235.78 125.494 235.856 125.532C235.933 125.57 235.997 125.63 236.041 125.706C236.086 125.781 236.109 125.869 236.107 125.958C236.119 126.145 236.093 126.332 236.031 126.508C235.461 128.648 234.747 130.732 234.021 132.817C233.246 135.036 232.583 137.304 231.898 139.547C231.845 139.657 231.833 139.784 231.866 139.903C231.899 140.022 231.974 140.123 232.075 140.184C232.382 140.412 232.635 140.71 232.816 141.056C232.997 141.402 233.101 141.788 233.119 142.183C233.235 143.717 233.073 145.261 232.642 146.731C232.478 147.478 232.251 148.208 231.962 148.912C232.327 148.7 232.663 148.436 232.96 148.127C234.021 146.994 235.125 145.883 236.144 144.719C237.439 143.243 238.681 141.728 239.946 140.218C239.999 140.154 240.05 140.091 240.105 140.031C241.775 138.303 243.29 136.415 244.956 134.688C246.302 133.292 247.501 131.746 248.873 130.389C249.898 129.302 250.998 128.296 252.163 127.379C252.526 127.087 252.951 126.895 253.402 126.818C253.604 126.771 253.816 126.783 254.012 126.854C254.209 126.924 254.384 127.05 254.518 127.218C254.652 127.386 254.739 127.59 254.771 127.806C254.803 128.023 254.779 128.245 254.7 128.448C254.211 129.939 253.647 131.401 253.011 132.829C252.092 134.969 251.316 137.16 250.553 139.362C250.169 140.469 249.78 141.583 249.395 142.692C249.348 142.828 249.304 142.966 249.265 143.107C249.248 143.145 249.239 143.187 249.24 143.229C249.241 143.271 249.252 143.313 249.272 143.35C249.291 143.386 249.319 143.418 249.353 143.441C249.387 143.463 249.425 143.477 249.465 143.481C250.809 143.81 251.321 144.883 251.611 146.162C251.758 146.933 251.865 147.713 251.933 148.496C251.979 148.871 252.007 148.891 252.338 148.781C252.915 148.571 253.459 148.273 253.953 147.895C255.257 146.936 256.55 145.957 257.845 144.992C258.667 144.387 259.553 143.885 260.485 143.496C261.09 143.241 261.733 143.099 262.385 143.078C262.908 143.049 263.428 143.164 263.896 143.413C264.363 143.662 264.761 144.036 265.049 144.497C265.468 145.101 265.859 145.717 266.312 146.295C266.511 146.553 266.757 146.765 267.035 146.921C267.313 147.076 267.618 147.171 267.931 147.2C268.186 147.23 268.439 147.26 268.69 147.308C268.941 147.356 269.19 147.419 269.435 147.495C269.644 147.564 269.866 147.663 269.776 147.97C269.7 148.232 269.497 148.207 269.287 148.168C268.729 148.06 268.17 147.938 267.605 147.867C267.078 147.787 266.573 147.589 266.125 147.286C265.676 146.984 265.293 146.583 265.003 146.112C264.675 145.644 264.352 145.177 264.044 144.695C263.871 144.392 263.621 144.146 263.323 143.985C263.025 143.823 262.69 143.754 262.356 143.783C261.315 143.873 260.308 144.22 259.418 144.798C258.149 145.588 256.931 146.466 255.772 147.426C254.868 148.159 253.901 148.802 252.885 149.345C252.692 149.448 252.494 149.539 252.291 149.616C252.134 149.68 251.966 149.706 251.799 149.693C251.632 149.679 251.469 149.626 251.324 149.538C251.179 149.45 251.054 149.328 250.959 149.182C250.864 149.036 250.801 148.869 250.774 148.694C250.677 148.187 250.659 147.661 250.589 147.152C250.539 146.364 250.354 145.592 250.044 144.873C249.987 144.741 249.916 144.616 249.834 144.499C249.771 144.383 249.677 144.29 249.562 144.232C249.448 144.173 249.32 144.153 249.195 144.173C249.069 144.194 248.953 144.253 248.86 144.345C248.768 144.436 248.703 144.555 248.676 144.686C248.009 146.572 247.349 148.458 246.573 150.294C245.47 152.868 244.084 155.295 242.443 157.526C240.974 159.5 239.378 161.365 237.667 163.107C237.104 163.688 236.459 164.173 235.755 164.545C235.555 164.681 235.321 164.75 235.084 164.744C234.846 164.738 234.616 164.657 234.422 164.511C234.23 164.365 234.081 164.165 233.992 163.933C233.903 163.702 233.877 163.449 233.918 163.203C234.055 162.217 234.268 161.245 234.555 160.296C235.405 157.134 236.81 154.169 238.698 151.557C239.958 149.751 241.38 148.078 242.944 146.562C243.875 145.577 244.945 144.75 246.116 144.112C246.488 143.92 246.874 143.758 247.27 143.628C247.402 143.592 247.523 143.52 247.621 143.419C247.719 143.318 247.79 143.192 247.828 143.053C248.463 141.223 249.123 139.4 249.751 137.566C250.706 134.731 251.822 131.96 253.092 129.266C253.301 128.823 253.506 128.371 253.684 127.911C253.803 127.602 253.704 127.492 253.389 127.536C253.078 127.596 252.787 127.74 252.545 127.955C251.825 128.494 251.144 129.091 250.509 129.74C248.954 131.353 247.385 132.957 245.91 134.651C244.647 136.103 243.286 137.455 242.041 138.92C240.561 140.665 239.023 142.353 237.56 144.113C235.951 146.156 234.162 148.034 232.219 149.721C232.004 149.903 231.818 150.12 231.667 150.364C231.514 150.605 231.329 150.823 231.119 151.011C231.025 151.119 230.898 151.19 230.761 151.212C230.623 151.234 230.483 151.206 230.362 151.133C230.233 151.039 230.131 150.91 230.066 150.759C230.001 150.608 229.976 150.442 229.994 150.277C230.04 150.119 230.099 149.965 230.171 149.817C231.008 147.937 231.581 145.938 231.871 143.882C231.936 143.321 231.97 142.761 231.989 142.2C232.008 141.824 231.92 141.45 231.734 141.128C231.639 140.967 231.515 140.942 231.425 141.128C231.361 141.28 231.306 141.435 231.26 141.594C230.563 143.842 229.741 146.046 228.799 148.192C227.908 150.139 226.802 151.967 225.505 153.638C224.517 154.956 223.443 156.199 222.293 157.36C221.046 158.714 219.657 159.911 218.152 160.929C217.777 161.15 217.393 161.364 217.004 161.563C216.613 161.761 216.195 161.892 215.766 161.953C215.503 162.007 215.233 161.996 214.975 161.921C214.717 161.846 214.479 161.71 214.28 161.522C214.08 161.334 213.925 161.1 213.825 160.838C213.725 160.576 213.684 160.293 213.705 160.011C213.763 159.356 213.863 158.706 214.006 158.066ZM230.23 140.373C229.043 140.598 227.9 141.034 226.85 141.663C223.927 143.503 221.336 145.875 219.196 148.669C217.262 151.241 215.811 154.181 214.923 157.33C214.656 158.155 214.474 159.007 214.378 159.872C214.327 160.458 214.587 160.728 215.137 160.7C215.668 160.661 216.182 160.487 216.636 160.193C217.788 159.484 218.87 158.653 219.863 157.712C221.486 156.209 222.992 154.571 224.367 152.813C226.14 150.533 227.555 147.966 228.557 145.212C228.965 144.09 229.367 142.969 229.765 141.847C229.923 141.389 230.05 140.946 230.231 140.371L230.23 140.373ZM215.194 150.279C214.992 150.354 214.82 150.498 214.705 150.688C214.443 151.051 214.154 151.391 213.84 151.705C211.844 153.786 209.912 155.936 207.858 157.958C205.805 159.981 203.937 162.192 202.056 164.391C200.984 165.658 200.036 167.035 199.226 168.503C199.047 168.8 198.912 169.124 198.822 169.462C198.768 169.598 198.756 169.747 198.785 169.89C198.815 170.033 198.886 170.163 198.988 170.262C199.204 170.449 199.445 170.301 199.652 170.195C200.269 169.877 200.89 169.554 201.492 169.216C201.84 169.025 202.17 168.8 202.477 168.542C203.594 167.595 204.661 166.585 205.674 165.516C206.009 165.137 206.364 164.778 206.735 164.439C207.912 163.282 209.023 162.051 210.062 160.755C210.705 160.032 211.3 159.259 211.882 158.478C213.283 156.496 214.304 154.244 214.89 151.848C215.016 151.369 215.081 150.863 215.194 150.285L215.194 150.279ZM247.177 144.435C246.585 144.607 246.026 144.889 245.526 145.267C244.544 145.989 243.62 146.798 242.767 147.685C241.547 148.947 240.423 150.308 239.406 151.757C237.542 154.308 236.134 157.196 235.249 160.28C235.032 161.077 234.898 161.898 234.851 162.727C234.838 162.913 234.781 163.125 234.961 163.243C235.14 163.361 235.263 163.208 235.398 163.131C235.713 162.961 236.003 162.743 236.26 162.486C238.22 160.543 240.032 158.437 241.677 156.19C243.08 154.215 244.289 152.094 245.287 149.86C245.994 148.219 246.593 146.527 247.195 144.842C247.233 144.782 247.25 144.711 247.246 144.64C247.241 144.568 247.215 144.5 247.171 144.446L247.177 144.435ZM234.329 127.781C232.764 129.105 231.31 130.57 229.984 132.16C228.518 133.86 227.072 135.577 225.688 137.351C224.537 138.822 223.416 140.314 222.284 141.796C221.361 143.006 220.43 144.209 219.453 145.378C218.588 146.423 217.672 147.419 216.766 148.425C216.653 148.539 216.565 148.678 216.51 148.832C216.454 148.986 216.432 149.152 216.444 149.316C216.483 150.042 216.429 150.769 216.285 151.479C216.252 151.666 216.239 151.844 216.215 152.027C216.332 151.926 216.426 151.798 216.49 151.653C217.531 149.65 218.829 147.81 220.349 146.185C220.923 145.562 221.53 144.976 222.15 144.4C223.526 143.135 225.008 142.003 226.577 141.02C227.611 140.373 228.752 139.939 229.938 139.741C230.315 139.675 230.556 139.542 230.637 139.13C230.679 138.909 230.771 138.696 230.835 138.478C231.554 136.021 232.322 133.584 233.172 131.172C233.565 130.041 233.944 128.91 234.329 127.781Z" stroke="#1C3252" stroke-width="0.893316" mask="url(#path-37-outside-1_385_3946)"/>
<path d="M184.232 157.305L184.232 157.305C182.378 159.965 180.839 162.854 179.648 165.909C178.878 167.942 178.239 170.028 177.737 172.153L177.736 172.157L177.736 172.157C177.689 172.341 177.641 172.525 177.593 172.708C177.42 173.366 177.25 174.018 177.118 174.674C177.116 174.684 177.114 174.696 177.112 174.709C177.093 174.809 177.063 174.97 176.993 175.094C176.95 175.172 176.882 175.254 176.775 175.303C176.667 175.352 176.549 175.354 176.431 175.323L176.431 175.323C176.319 175.294 176.225 175.237 176.156 175.154C176.09 175.073 176.057 174.98 176.041 174.896C176.012 174.735 176.038 174.561 176.057 174.447C176.057 174.447 176.057 174.447 176.057 174.447L176.277 174.483L184.232 157.305ZM184.232 157.305L184.235 157.301M184.232 157.305L184.235 157.301M184.235 157.301C185.704 155.085 187.353 153.009 189.164 151.095M184.235 157.301L183.005 157.128M183.005 157.128L183.005 157.127C183.092 157.002 183.178 156.876 183.265 156.751C184.162 155.454 185.064 154.151 186.045 152.911C187.484 151.024 189.124 149.319 190.932 147.828L190.939 147.822L190.939 147.822C191.4 147.474 191.896 147.181 192.419 146.95C193.196 146.581 194.078 146.539 194.885 146.832C195.224 146.943 195.537 147.127 195.804 147.373C196.07 147.62 196.284 147.922 196.431 148.259C196.954 149.373 197.091 150.645 196.817 151.853L196.816 151.857C196.518 153.083 196.06 154.259 195.455 155.352C194.506 157.081 193.256 158.607 191.77 159.848C191.151 160.405 190.493 160.911 189.801 161.362C188.838 162.005 187.744 162.401 186.609 162.519C185.914 162.604 185.211 162.465 184.595 162.121C184.418 162.034 184.266 161.902 184.153 161.738C184.04 161.573 183.969 161.382 183.946 161.182C183.922 161.027 183.943 160.868 184.007 160.725C184.072 160.581 184.178 160.459 184.313 160.378C184.469 160.283 184.628 160.276 184.771 160.337C184.89 160.388 184.984 160.48 185.049 160.55C185.23 160.711 185.461 160.791 185.693 160.774L185.704 160.774L185.714 160.774C186.638 160.799 187.55 160.546 188.346 160.045L188.354 160.04L188.354 160.04C189.39 159.448 190.337 158.697 191.165 157.81L191.174 157.8L191.174 157.801C191.967 157.05 192.69 156.223 193.335 155.328C194.083 154.16 194.682 152.893 195.117 151.559C195.376 150.684 195.376 149.746 195.116 148.872L195.114 148.864L195.112 148.855C195.071 148.665 194.993 148.486 194.884 148.329C194.776 148.173 194.639 148.042 194.482 147.945C194.326 147.848 194.153 147.785 193.974 147.762C193.795 147.738 193.614 147.753 193.44 147.806L193.432 147.809L193.424 147.811C193.026 147.901 192.644 148.062 192.295 148.287L192.286 148.293L192.286 148.293C191.615 148.682 190.997 149.165 190.449 149.731C190.178 150.012 189.915 150.294 189.668 150.558C189.491 150.748 189.322 150.929 189.164 151.095M183.005 157.128C180.793 160.361 179.054 163.928 177.846 167.708L183.005 157.128ZM189.164 151.095C189.164 151.095 189.164 151.095 189.164 151.095L189.002 150.942L189.164 151.095C189.164 151.095 189.164 151.095 189.164 151.095Z" fill="#213250" stroke="#1C3252" stroke-width="0.446658"/>
<path d="M198.279 157.305L198.279 157.305L198.281 157.308C198.419 157.465 198.613 157.56 198.821 157.57C199.03 157.58 199.232 157.503 199.383 157.359L199.383 157.359L199.385 157.358C199.525 157.223 199.611 157.039 199.629 156.843C199.647 156.648 199.595 156.452 199.482 156.292L199.477 156.286L199.472 156.279C199.402 156.194 199.316 156.125 199.218 156.075C199.12 156.025 199.013 155.997 198.904 155.992C198.795 155.987 198.686 156.005 198.584 156.045C198.482 156.086 198.39 156.147 198.313 156.225L198.313 156.225L198.311 156.227C198.173 156.369 198.094 156.561 198.088 156.76C198.082 156.959 198.15 157.154 198.279 157.305Z" fill="#213250" stroke="#1C3252" stroke-width="0.446658"/>
<path d="M256.061 188.519H189.939C189.199 188.519 188.599 189.153 188.599 189.935V201.432C188.599 202.214 189.199 202.848 189.939 202.848H256.061C256.801 202.848 257.401 202.214 257.401 201.432V189.935C257.401 189.153 256.801 188.519 256.061 188.519Z" fill="#2CC400"/>
</g>
<defs>
<filter id="filter0_d_385_3946" x="0.288284" y="0.525522" width="269.831" height="320.004" filterUnits="userSpaceOnUse" color-interpolation-filters="sRGB">
<feFlood flood-opacity="0" result="BackgroundImageFix"/>
<feColorMatrix in="SourceAlpha" type="matrix" values="0 0 0 0 0 0 0 0 0 0 0 0 0 0 0 0 0 0 127 0" result="hardAlpha"/>
<feOffset dy="12.2372"/>
<feGaussianBlur stdDeviation="18.3559"/>
<feComposite in2="hardAlpha" operator="out"/>
<feColorMatrix type="matrix" values="0 0 0 0 0.129412 0 0 0 0 0.196078 0 0 0 0 0.313726 0 0 0 0.1 0"/>
<feBlend mode="normal" in2="BackgroundImageFix" result="effect1_dropShadow_385_3946"/>
<feBlend mode="normal" in="SourceGraphic" in2="effect1_dropShadow_385_3946" result="shape"/>
</filter>
<filter id="filter1_d_385_3946" x="126.201" y="57.2005" width="193.599" height="181.38" filterUnits="userSpaceOnUse" color-interpolation-filters="sRGB">
<feFlood flood-opacity="0" result="BackgroundImageFix"/>
<feColorMatrix in="SourceAlpha" type="matrix" values="0 0 0 0 0 0 0 0 0 0 0 0 0 0 0 0 0 0 127 0" result="hardAlpha"/>
<feOffset/>
<feGaussianBlur stdDeviation="13.3997"/>
<feComposite in2="hardAlpha" operator="out"/>
<feColorMatrix type="matrix" values="0 0 0 0 0.129412 0 0 0 0 0.196078 0 0 0 0 0.313726 0 0 0 0.1 0"/>
<feBlend mode="normal" in2="BackgroundImageFix" result="effect1_dropShadow_385_3946"/>
<feBlend mode="normal" in="SourceGraphic" in2="effect1_dropShadow_385_3946" result="shape"/>
</filter>
</defs>
</svg>
