<?xml version="1.0" encoding="utf-8"?>
<!-- Generator: Adobe Illustrator 27.5.0, SVG Export Plug-In . SVG Version: 6.00 Build 0)  -->
<svg version="1.1" xmlns="http://www.w3.org/2000/svg" xmlns:xlink="http://www.w3.org/1999/xlink" x="0px" y="0px"
	 viewBox="0 0 1100 800" style="enable-background:new 0 0 1100 800;" xml:space="preserve">
<g id="Background">
	<rect style="fill:#FFFFFF;" width="1100" height="800"/>
</g>
<g id="Shadow">
	<g>
		<path style="fill:#F7F7F7;" d="M517.023,668.118c-29.109,0.084-58.218,0.762-87.276,3.892c-10.956,1.18-21.683,3.776-32.664,4.823
			c-21.934,2.092-43.476,5.993-65.488,7.793c-17.726,1.449-35.526,2.305-53.201,4.143c-16.571,1.724-34.916,1.326-51.359-1.522
			c-12.173-2.109-24.402-3.296-36.371-6.682c-13.389-3.789-27.934-6.498-41.884-6.4c-19.892,0.139-39.265,0.155-58.301,6.845
			c-6.683,2.348-14.863,6.209-19.938,11.137c-11.617,11.282-13.189,39.432-1.59,51.133c19.536,19.693,61.233,27.42,88.617,27.785
			c30.008,0.4,59.159-1.758,89.211-3.026c27.925-1.179,55.779-2.856,83.75-2.797c57.127,0.121,114.262,0,171.286-3.696
			c53.575-3.472,107.285-2.28,160.978-2.28c55.06,0,109.747,0.419,164.41,7.506c23.817,3.088,48.081,4.169,72.018,6.332
			c21.437,1.938,42.038-0.038,63.39-1.829c17.929-1.504,35.741-5.964,52.029-13.503c12.893-5.968,35.879-24.507,39.833-38.752
			c11.085-39.935-156.219-38.975-181.907-38.885c-28.736,0.101-57.701,1.016-86.414-0.045c-12.078-0.446-23.979-2.733-35.767-5.238
			c-11.742-2.495-23.572-1.861-35.479-2.91c-49.655-4.374-99.421-3.734-149.235-3.734
			C549.46,668.209,533.242,668.071,517.023,668.118z"/>
	</g>
</g>
<g id="Object">
	<g>
		<g>
			<g>
				<g>
					<polygon style="fill:#EAC1A4;" points="106.559,317.345 94.176,307.181 98.289,301.7 108.31,306.782 109.052,303.287 
						118.589,313.275 115.082,319.55 					"/>
				</g>
				<g>
					<polygon style="fill:#7DB5DB;" points="237.276,309.965 181.774,339.001 116.493,308.81 110.172,321.618 179.345,374.345 
						255.238,354.085 					"/>
				</g>
			</g>
			<g>
				<polygon style="fill:#EBCEB1;" points="378.494,349.683 390.153,341.72 386.967,336.588 377.775,340.274 377.394,337.147 
					368.247,345.177 370.839,350.959 				"/>
				<path style="fill:#7DB5DB;" d="M370.433,341.42l4.558,11.736c0.625,1.926-43.542,26.856-47.474,28.645
					c-8.659,3.941-24.359,13.239-24.359,13.239c-12.042,0.15-34.717-6.016-42.29-9.274c-3.051-1.313-5.225-8.069-7.076-10.756
					c-2.347-3.408,0.642-9.414,2.654-12.193c4.128-5.7,10.462-9.757,17.366-11.123c2.48-0.49,5.079-0.64,7.514,0.038
					c2.51,0.699,5.721-10.861,7.85-9.36c3.783,2.666,5.879,20.265,10.383,21.798C305.215,366.095,369.097,338.658,370.433,341.42z"
					/>
			</g>
			<path style="fill:#7DB5DB;" d="M238.4,312.76c-0.261,0.008-0.521,0.019-0.78,0.032c-12.39,0.603-27.393,16.868-36.084,26.467
				c-22.434,24.779-38.104,53.175-49.831,84.922c-6.315,17.095-11.891,34.468-17.117,51.939
				c-1.444,4.827-11.584,48.97-14.043,49.284c25.218-3.221,50.607-5.739,75.724-3.996c25.117,1.743,50.096,7.902,71.632,21.148
				c11.026-56.651,19.177-115.315,21.848-172.72c0.319-6.866,1.366-13.949,0.72-20.773c-0.745-7.859-4.618-11.4-9.015-17.367
				c-1.506-2.044-3.024-4.102-4.866-5.792C266.881,316.995,251.38,312.338,238.4,312.76z"/>
			<g>
				<g>
					<polygon style="fill:#EBCEB1;" points="150.417,505.213 176.66,611.728 177.247,690.239 189.989,692.994 194.969,619.976 
						207.477,486.256 					"/>
				</g>
				<polygon style="fill:#3B455A;" points="190.15,695.195 192.209,703.159 190.403,718.782 180.077,718.801 176.21,696.217 
					177.408,692.44 				"/>
			</g>
			<g>
				<polygon style="fill:#EBCEB1;" points="250.616,493.448 252.931,585.487 240.645,715.478 228.066,716.399 223.547,597.229 
					197.93,489.193 				"/>
				<polygon style="fill:#3B455A;" points="240.252,713.306 257.195,722.303 255.851,730.217 225.919,726.551 227.358,715.161 				
					"/>
			</g>
			<polygon style="fill:#3B455A;" points="254.303,505.323 262.829,611.66 254.155,684.587 220.081,682.657 214.008,599.745 
				199.273,509.354 201.562,495.28 250.669,496 			"/>
			<polygon style="fill:#3B455A;" points="202.645,603.923 198.641,680.196 169.023,678.677 169.627,606.341 150.951,515.501 
				155.212,490.108 205.025,493.209 			"/>
			<path style="fill:#FFFFFF;" d="M260.484,514.099c-30.39-5.243-79.632-17.942-110.022-23.184
				c15.904-52.802,41.217-111.458,70.729-157.839c5.353-8.412,12.041-17.189,21.62-19.185c10.264-2.139,28.257,4.626,30.25,16.106
				c2.916,16.794-3.137,39.956-5.005,56.938C263.83,425.357,267.832,476.138,260.484,514.099z"/>
			<g>
				<path style="fill:#EAC1A4;" d="M294.103,284.803c4.098-22.571-23.586-29.033-37.671-14.892
					c-9.279,9.315-8.851,28.557,0.553,37.828c-1.828,2.581-3.547,5.238-5.147,7.966c3.13,1.453,6.259,2.906,9.389,4.359
					c0.969,0.45,2.14,0.892,3.049,0.333c0.551-0.339,0.845-0.964,1.11-1.554c0.892-1.989,1.784-3.979,2.676-5.968
					c0.272,0.025,0.545,0.046,0.823,0.06c6.885,0.341,13.488-3.618,17.689-9.083C290.773,298.385,292.871,291.586,294.103,284.803z"
					/>
				<g>
					<g>
						<path style="fill:#3B455A;" d="M289.202,289.474c0.802,7.608-4.277,14.416-8.698,20.217c-3.92,5.144-5.674,8.711,0.739,11.742
							c3.613,1.708,10.007,4.818,13.985,2.639c3.012-1.652,3.09-8.779,2.457-11.757c-0.484-2.274-2.738-3.87-3.162-6.156
							c-0.174-0.942-0.016-1.912,0.177-2.851c0.788-3.834,2.158-7.547,4.051-10.973c1.285-2.326,2.822-4.551,3.614-7.088
							c1.147-3.679-0.543-8.632-1.179-12.383c-1.183-6.98-8.315-17.563-16.977-14.192c-1.972,0.767-3.4,2.484-4.653,4.19
							c-0.748,1.018-1.483,2.091-1.769,3.323c-1.14,4.908,3.17,6.727,5.758,9.752C286.738,279.666,288.69,284.618,289.202,289.474z"
							/>
						<path style="fill:#3B455A;" d="M253.219,282.771c-1.048,3.422-0.072,7.699-2.63,10.202c-1.139,1.115-2.742,1.582-4.167,2.297
							c-3.893,1.952-6.598,6.086-6.828,10.435c-6.918-1.804-13.837-3.607-20.755-5.411c-1.043-0.272-2.135-0.57-2.916-1.314
							c-1.668-1.589-1.175-4.317-0.556-6.536c1.219-4.371,2.622-9.029,6.141-11.894c1.632-1.328,3.615-2.17,5.243-3.504
							c7.827-6.413,4.835-21.355,13.714-26.209c3.962-2.166,8.83-1.321,13.276-2.111c7.752-1.378,14.039-7.715,21.864-8.587
							c14.777-1.648,24.41,18.048,13.566,28.506C280.328,277.175,257.439,268.988,253.219,282.771z"/>
					</g>
				</g>
			</g>
			<path style="fill:#7DB5DB;" d="M236.752,315.891c0,0-52.557,126.745-40.95,159.074c11.607,32.329,17.007,44.853,17.007,44.853
				l-80.478,3.364C132.331,523.182,183.699,338.02,236.752,315.891z"/>
			<g>
				<g>
					<g>
						<g>
							
								<rect x="68.12" y="290.613" transform="matrix(0.9887 -0.1496 0.1496 0.9887 -58.7385 27.5861)" style="fill:#755635;" width="171.721" height="227.163"/>
							<polygon style="opacity:0.26;fill:#080A0A;" points="97.296,517.776 99.837,517.392 250.476,499.315 214.391,287.497 
								207.723,290.538 							"/>
							
								<rect x="76.591" y="297.862" transform="matrix(0.9887 -0.1496 0.1496 0.9887 -58.5537 27.5437)" style="fill:#FFFDF3;" width="154.401" height="210.169"/>
							<polygon style="opacity:0.05;fill:#040605;" points="60.777,309.928 170.583,293.313 74.47,401.588 							"/>
							<g>
								
									<rect x="104.832" y="297.914" transform="matrix(0.9887 -0.1496 0.1496 0.9887 -43.4793 24.0875)" style="opacity:0.12;fill:#000100;" width="67.057" height="6.24"/>
								<g>
									<path style="fill:#E5EAE9;" d="M154.629,276.326l-1.029,0.156l-0.104-0.687c-0.981-6.478-7.86-10.808-15.366-9.672
										l-9.886,1.496c-7.506,1.136-12.795,7.308-11.814,13.785l0.104,0.687l-1.029,0.156c-7.505,1.136-12.795,7.307-11.814,13.785
										l1.984,13.103l66.302-10.032l-1.984-13.103C169.014,279.521,162.134,275.191,154.629,276.326z M143.843,278.235
										l-17.469,2.643c-1.786,0.27-3.466-0.957-3.734-2.727c-0.268-1.77,0.973-3.439,2.759-3.709l17.468-2.643
										c1.786-0.27,3.466,0.957,3.734,2.727C146.87,276.295,145.628,277.964,143.843,278.235z"/>
								</g>
							</g>
						</g>
						<g style="opacity:0.47;">
							<path style="fill:#899397;" d="M113.177,362.227c-7.471,1.13-14.943,2.261-22.414,3.391
								c-0.631,0.095-1.087,0.707-0.992,1.334c1.121,7.406,2.243,14.812,3.364,22.219c0.095,0.626,0.71,1.076,1.342,0.98
								c7.471-1.13,14.943-2.261,22.414-3.392c0.342-0.052,0.584-0.215,0.743-0.429c0.012-0.013,0.023-0.029,0.034-0.043
								c0.006-0.009,0.013-0.017,0.018-0.026c0.162-0.214,0.249-0.493,0.197-0.836c-1.121-7.406-2.243-14.812-3.364-22.218
								C114.425,362.582,113.809,362.131,113.177,362.227z M115.374,384.622c-6.693,1.013-13.386,2.026-20.079,3.038
								c-1.005-6.635-2.009-13.269-3.014-19.904c6.693-1.013,13.386-2.025,20.079-3.038
								C113.364,371.353,114.369,377.987,115.374,384.622z"/>
							<path style="fill:#899397;" d="M119.397,403.308c-7.472,1.13-14.943,2.261-22.414,3.391
								c-0.631,0.095-1.087,0.707-0.992,1.334c1.121,7.406,2.243,14.812,3.364,22.219c0.095,0.626,0.71,1.076,1.343,0.981
								c7.471-1.131,14.942-2.261,22.414-3.392c0.343-0.052,0.584-0.215,0.743-0.429c0.012-0.014,0.023-0.029,0.034-0.043
								c0.006-0.009,0.013-0.017,0.018-0.026c0.162-0.214,0.25-0.493,0.197-0.836c-1.121-7.406-2.243-14.812-3.364-22.218
								C120.645,403.663,120.029,403.212,119.397,403.308z M121.594,425.703c-6.693,1.013-13.386,2.025-20.079,3.038
								c-1.005-6.635-2.009-13.269-3.014-19.904c6.693-1.013,13.386-2.025,20.079-3.038
								C119.585,412.434,120.589,419.068,121.594,425.703z"/>
							<path style="fill:#899397;" d="M125.617,444.389c-7.471,1.13-14.943,2.261-22.414,3.392
								c-0.631,0.095-1.087,0.707-0.992,1.334c1.122,7.406,2.243,14.812,3.364,22.218c0.095,0.626,0.71,1.076,1.343,0.981
								c7.471-1.131,14.943-2.261,22.414-3.392c0.343-0.052,0.585-0.215,0.743-0.429c0.012-0.014,0.023-0.029,0.034-0.043
								c0.006-0.009,0.013-0.017,0.018-0.026c0.162-0.214,0.249-0.493,0.197-0.836c-1.121-7.406-2.243-14.812-3.364-22.218
								C126.865,444.744,126.25,444.293,125.617,444.389z M127.814,466.784c-6.693,1.013-13.386,2.025-20.079,3.038
								c-1.005-6.635-2.009-13.269-3.014-19.904c6.693-1.013,13.386-2.025,20.079-3.038
								C125.805,453.515,126.809,460.149,127.814,466.784z"/>
						</g>
						<polygon style="fill:#587BC9;" points="99.585,372.883 104.479,370.401 108.114,375.075 130.064,353.761 133.012,353.895 
							107.914,381.489 						"/>
						<polygon style="fill:#587BC9;" points="104.095,415.288 108.989,412.806 112.624,417.48 134.574,396.166 137.522,396.3 
							112.424,423.894 						"/>
						<polygon style="fill:#587BC9;" points="109.515,454.241 114.409,451.759 118.044,456.433 139.994,435.119 142.942,435.253 
							117.845,462.847 						"/>
						
							<rect x="141.773" y="445.191" transform="matrix(0.9887 -0.1496 0.1496 0.9887 -65.3987 32.266)" style="opacity:0.32;fill:#899397;" width="79.971" height="11.236"/>
						
							<rect x="135.185" y="401.68" transform="matrix(0.9887 -0.1496 0.1496 0.9887 -58.964 30.7911)" style="opacity:0.32;fill:#899397;" width="79.971" height="11.236"/>
						
							<rect x="128.596" y="358.169" transform="matrix(0.9887 -0.1496 0.1496 0.9887 -52.5281 29.3155)" style="opacity:0.32;fill:#899397;" width="79.971" height="11.236"/>
					</g>
				</g>
			</g>
		</g>
		<g id="XMLID_273_">
			<polygon id="XMLID_275_" style="fill:#EAC1A4;" points="807.162,339.17 800.846,334.043 800.218,326.898 798.636,326.263 
				797.774,328.178 795.555,322.397 791.174,319.932 785.117,322.767 781.982,328.925 785.435,334.641 792.392,338.472 
				800.732,345.864 			"/>
			<polygon id="XMLID_274_" style="fill:#3B455A;" points="805.952,333.506 841.472,360.128 906.269,326.206 913.718,368.078 
				848.32,395.125 829.869,392.937 791.638,342.155 			"/>
		</g>
		<g id="XMLID_268_">
			<path id="XMLID_272_" style="fill:#3B455A;" d="M952.546,449.282c-2.328-11.581-4.147-22.27-4.313-28.067
				c-0.501-17.435-2.733-75.017-2.733-75.017l-10.822-22.025l-1.998,0.019c0.144-0.017,0.287-0.034,0.431-0.051
				c-0.202-1.88-0.116-3.44,0.172-4.805c18.869,1.135,38.21,11.029,43.624,29.4c0.446,1.513,0.794,3.061,0.92,4.633
				c0.755,9.438-2.128,16.411,0.595,25.891c2.366,8.237,4.511,16.596,6.085,25.025c2.279,12.2,4.383,24.343,6.041,36.454
				c1.835,13.413,3.129,26.787,3.504,40.082c0.042,1.47,0.338,5.58,0.504,10.49c0.348,10.285,0.125,24.043-4.206,24.557
				c-0.811,0.096-1.593-0.263-2.306-0.609c-5.571-2.706-9.96-6.24-14.872-9.328l-0.264-53.653L952.546,449.282z"/>
			<path id="XMLID_271_" style="fill:#3B455A;" d="M853.011,504.424c1.108-11.417,2.258-22.832,3.663-34.218
				c2.802-22.709,6.615-45.363,13.068-67.347c2.465-8.398,5.309-16.679,8.151-24.957c3.462-10.081,6.923-20.161,10.385-30.241
				c4.302-12.529,11.563-21.355,24.278-25.737c2.271-0.783,4.661-1.387,7.124-1.829c0.06,0.259,0.115,0.522,0.149,0.798
				c0.147,1.203,0.491,2.538,1.252,3.41l-8.345,0.079c0,0-23.544,82.279-24.409,96.46c-0.329,5.39-1.423,17.158-2.64,29.555
				l-12.785,1.883l-0.548,47.417c-0.716,0.206-1.428,0.405-2.134,0.592c-4.057,1.077-7.357,4.033-10.727,6.352
				C854.515,510.065,852.333,511.421,853.011,504.424z"/>
			<g>
				<polygon style="fill:#2E4661;" points="1029.595,689.505 1033.983,698.46 1019.557,715.864 1010.546,711.898 1017.43,692.829 
					1026.339,682.782 				"/>
				<g>
					<polygon style="fill:#3B455A;" points="1028.201,685.952 988.049,599.745 966.65,495.348 956.76,474.928 901.573,491.111 
						906.369,507.22 950.24,612.562 1016.156,695.08 					"/>
				</g>
			</g>
			<g>
				<polygon style="fill:#3B455A;" points="882.594,460.397 876.87,583.854 890.385,707.367 904.192,707.866 917.012,594.814 
					940.006,482.13 				"/>
				<polygon style="fill:#2E4661;" points="905.119,719.344 877.566,727.354 876.008,718 891.018,707.395 904.327,707.876 				"/>
			</g>
			<path id="XMLID_270_" style="fill:#3B455A;" d="M885.688,450.397c-1.926,19.618-4.16,40.814-4.16,40.814
				s10.336,0.244,25.29,1.359c-1.106-0.026-2.213-0.055-3.317-0.064c-10.4-0.092-21.188,4.327-31.146,7.191l0.548-47.417
				L885.688,450.397z"/>
			<path id="XMLID_269_" style="fill:#3B455A;" d="M955.478,498.537c7.13,0.372,8.017-0.949,8.017-0.949
				s-6.432-25.834-10.948-48.306l20.36,2.998l0.264,53.653c-1.727-1.085-3.518-2.117-5.449-3.036
				C963.851,501.054,959.718,499.649,955.478,498.537z"/>
			<path style="fill:#FFFFFF;" d="M882.837,453.437c1.324-12.695,2.515-24.746,2.873-30.266
				c0.941-14.522,26.563-98.783,26.563-98.783l9.081-0.081c0.1,0.108,0.203,0.212,0.316,0.304c0.28,0.229,0.604,0.41,0.977,0.525
				c0.742,0.23,1.547,0.146,2.323,0.06c3.002-0.334,6.004-0.669,9.007-1.003l2.174-0.02l11.777,22.555
				c0,0,2.428,58.969,2.974,76.823c0.181,5.937,2.161,16.883,4.694,28.743c4.915,23.013,11.914,49.469,11.914,49.469
				s-0.965,1.352-8.724,0.972c-4.797-0.235-12.185-1.131-23.565-3.423c-0.439-0.05-0.873-0.098-1.31-0.147
				c-8.896-0.999-17.418-1.753-25.002-2.318c-1.044-0.077-2.071-0.152-3.078-0.223c-16.273-1.142-27.521-1.392-27.521-1.392
				S880.741,473.528,882.837,453.437z"/>
			<path style="fill:#EAC1A4;" d="M906.466,293.875c0.542-2.221-0.499-4.482-0.992-6.715c-0.125-0.564-0.148-1.147-0.113-1.737
				c3.966-0.685,7.968-2.158,10.882-3.43c6.067-2.648,17.882-5.469,24.181-2.342c4.981,2.474,3.452,10.361,3.201,15.348
				c-0.064,1.282-0.163,2.588,0.132,3.835c0.304,1.284,1.103,2.151,1.601,3.231c-0.555,1.944-1.465,3.788-2.947,5.461
				c-3.992,4.507-8.053,6.723-9.129,11.81c-0.289,1.365-0.375,2.924-0.173,4.805c-0.143,0.017-0.287,0.034-0.431,0.051
				c-2.759,0.326-5.517,0.653-8.276,0.979c-0.713,0.085-1.453,0.166-2.134-0.058c-0.343-0.113-0.64-0.289-0.897-0.513
				c-0.104-0.09-0.199-0.192-0.291-0.297c-0.761-0.873-1.105-2.207-1.252-3.41c-0.034-0.276-0.089-0.539-0.149-0.798
				c-1.078-4.643-6.207-6.733-8.971-10.852c-3.132-4.668-4.771-10.107-5.48-15.645c-0.012-0.094-0.024-0.189-0.036-0.283
				C905.599,293.536,906.023,293.724,906.466,293.875z"/>
			<path style="fill:#3B455A;" d="M890.135,260.858c2.062-1.392,4.439-2.547,5.691-4.76c0.972-1.718,1.115-3.844,2.078-5.568
				c1.744-3.121,5.53-4.039,8.824-5.097c8.239-2.646,12.675-5.701,21.402-2.313c6.204,2.408,14.221,2.731,19.98,6.244
				c2.405,1.467,4.451,3.824,6.13,6.449c5.818,9.095,7.214,21.885,3.425,31.372c-0.848,2.124-1.926,4.076-3.078,5.946
				c-2.304,3.739-4.771,8.339-8.85,10.169c-0.066-0.456-0.205-0.857-0.378-1.234c-0.498-1.08-1.297-1.948-1.601-3.231
				c-0.296-1.246-0.197-2.552-0.132-3.835c0.251-4.988,1.781-12.874-3.201-15.348c-6.299-3.128-18.115-0.306-24.181,2.342
				c-2.914,1.272-6.917,2.745-10.882,3.43c-0.035,0.59-0.012,1.172,0.113,1.737c0.494,2.234,1.535,4.494,0.992,6.715
				c-0.443-0.151-0.867-0.339-1.273-0.561c-2.73-1.492-4.6-4.494-5.718-7.594c-1.208-0.128-2.351-0.395-3.383-0.847
				c-5.313-2.329-9.633-11.616-9.453-17.333C886.724,264.864,887.743,262.473,890.135,260.858z"/>
		</g>
		<g id="XMLID_265_">
			<g>
				<path style="fill:#BCBEC0;" d="M782.336,148.579l-5.225,1.815c-0.831,0.289-1.182,1.284-0.784,2.222l21.543,50.698
					c1.061,2.499,1.191,5.163,0.365,7.499c-0.826,2.336-2.501,4.047-4.716,4.815l-58.04,20.159c-2.218,0.772-4.728,0.517-7.071-0.72
					c-2.343-1.236-4.215-3.294-5.278-5.791l-20.996-49.418c-0.399-0.938-1.396-1.465-2.227-1.176l-5.225,1.816
					c-0.831,0.289-1.182,1.284-0.784,2.221l20.994,49.416c2.116,4.982,5.839,9.077,10.485,11.529
					c4.647,2.452,9.638,2.955,14.053,1.417l58.035-20.158c4.416-1.531,7.749-4.926,9.386-9.558c1.636-4.632,1.371-9.927-0.744-14.91
					l-21.544-50.699C784.164,148.817,783.167,148.29,782.336,148.579z"/>
				<path style="fill:#BCBEC0;" d="M962.096,540.219c14.624,5.038,30.565-2.734,35.603-17.358c2.656-7.71,1.752-15.777-1.841-22.428
					l-4.609-6.28L822.871,264.875c14.595-21.983,14.99-53.518-1.382-80.278c-9.566-15.636-23.264-27.041-38.292-33.349
					l22.468,52.882c3.286,7.737,0.361,16.014-6.497,18.391l-58.039,20.159c-6.848,2.388-15.156-1.99-18.443-9.726l-22.015-51.831
					c-9.534,21.108-8.004,48.074,6.28,71.415c15.346,25.087,41.336,39.306,66.426,39.002l174.197,237.206l2.258,3.081
					C952.977,535.556,957.143,538.513,962.096,540.219z"/>
				<path style="fill:#DBDBDB;" d="M956.866,539.764c14.625,5.038,30.565-2.734,35.604-17.358c2.656-7.71,1.752-15.777-1.841-22.428
					l-4.609-6.28L817.642,264.42c14.596-21.983,14.99-53.518-1.382-80.278c-9.566-15.636-23.264-27.041-38.292-33.349l22.467,52.882
					c3.286,7.737,0.361,16.013-6.497,18.391l-58.039,20.159c-6.848,2.388-15.156-1.99-18.443-9.726l-22.015-51.831
					c-9.534,21.108-8.004,48.074,6.28,71.415c15.346,25.087,41.336,39.306,66.426,39.002l174.197,237.206l2.258,3.081
					C947.748,535.101,951.913,538.058,956.866,539.764z"/>
				<path style="fill:#BCBEC0;" d="M780.079,149.309l-5.225,1.815c-0.831,0.289-1.182,1.284-0.784,2.222l21.543,50.698
					c1.061,2.499,1.191,5.163,0.365,7.499c-0.826,2.336-2.501,4.047-4.716,4.815l-58.04,20.159c-2.218,0.773-4.728,0.517-7.071-0.72
					c-2.343-1.236-4.215-3.294-5.278-5.792l-20.996-49.418c-0.399-0.938-1.396-1.465-2.227-1.176l-5.225,1.816
					c-0.831,0.289-1.182,1.284-0.784,2.221l20.994,49.416c2.116,4.982,5.838,9.077,10.485,11.529
					c4.647,2.452,9.638,2.955,14.053,1.417l58.035-20.158c4.416-1.531,7.749-4.926,9.385-9.558c1.636-4.632,1.372-9.927-0.744-14.91
					l-21.544-50.699C781.908,149.546,780.911,149.02,780.079,149.309z"/>
				<path style="fill:#BCBEC0;" d="M974.824,495.516L833.456,303.011c-2.621-3.569-7.217-4.617-10.215-2.329l-17.16,13.094
					c-2.998,2.288-3.306,7.079-0.685,10.647l141.368,192.505c2.621,3.569,7.218,4.617,10.215,2.329l17.16-13.095
					C977.136,503.876,977.445,499.084,974.824,495.516z"/>
				<path style="fill:#DBDBDB;" d="M944.603,531.372l-2.258-3.081C943.024,529.367,943.775,530.393,944.603,531.372z"/>
			</g>
			<polygon id="XMLID_267_" style="fill:#EAC1A4;" points="881.764,423.021 873.688,423.989 868.119,419.469 866.561,420.163 
				867.338,422.114 861.641,419.685 856.823,421.116 854.644,427.44 856.885,433.976 863.393,435.474 870.985,433.143 
				882.097,432.297 			"/>
			<polygon id="XMLID_266_" style="fill:#3B455A;" points="876.855,419.949 920.69,412.965 946.994,344.919 976.674,366.612 
				950.59,432.4 936.18,444.128 873.105,436.248 			"/>
		</g>
		<g>
			<g>
				<path style="fill:#587BC9;" d="M877.15,599.701l-0.098,78.229l-95.355-0.125c0.17-1.793,0.25-3.612,0.25-5.441
					c0.045-34.467-27.857-62.449-62.324-62.494c-34.467-0.035-62.44,27.866-62.485,62.333c0,1.837,0.071,3.648,0.232,5.441
					l-490.164-0.624l0.071-54.983c0.045-36.59,20.936-69.959,53.823-85.998l93.696-29.382l4.656-0.036l46.5-102.75
					c13.354-29.507,41.657-48.284,72.707-48.248l279.571,0.357c29.418,0.036,38.98,37.286,49.586,59.059
					c12.069,24.744,24.138,49.497,36.206,74.241c2.284,4.692,4.576,9.384,6.86,14.067l1.204-0.009l40.042,38.008
					C868.132,556.538,877.177,577.633,877.15,599.701z"/>
				<path style="fill:#D7E8F4;" d="M579.183,495.141l186.526,0.238L723.48,390.987c-2.103-5.197-6.948-8.573-12.315-8.58
					l-131.838-0.168L579.183,495.141z"/>
				<path style="fill:#D7E8F4;" d="M547.42,382.199l-106.848-0.136c-22.642-0.029-43.279,13.666-53.016,35.183l-35.118,77.606
					l194.838,0.248L547.42,382.199z"/>
				<g style="opacity:0.2;">
					<path style="fill:#F4F4F2;" d="M728.572,416.237c2.478,1.329,4.954,2.665,7.432,3.998l-11.555-28.563
						c-2.103-5.197-6.948-8.573-12.315-8.58l-45.672-0.058C687.093,394.232,707.885,405.141,728.572,416.237z"/>
					<path style="fill:#F4F4F2;" d="M732.156,441.138c-34.213-18.571-70.195-39.637-104.057-58.836l-42.847,0.629
						c29.334,25.225,66.411,47.654,99.168,67.852c19.69,12.14,39.795,23.618,60.39,34.154c6.75,3.453,13.816,6.586,20.9,9.752
						l-18.281-45.19C742.347,446.694,737.256,443.906,732.156,441.138z"/>
					<path style="fill:#F4F4F2;" d="M513.71,449.714c-14.387-9.326-29.296-17.929-44.298-26.221
						c-15.193-8.398-30.596-16.83-46.518-23.778c-5.249-2.29-10.559-4.421-15.853-6.576c-8.214,6.012-15.008,14.219-19.483,24.106
						L387.216,418c16.107,11.286,32.323,22.429,48.32,33.805c23.664,16.828,49.785,29.579,75.339,43.249l36.402,0.046l0.026-20.459
						C536.112,466.317,525.423,457.307,513.71,449.714z"/>
				</g>
				<g>
					<path style="opacity:0.1;" d="M435.933,677.364c0.628-3.186,0.956-6.458,0.96-9.795c0.042-32.854-31.336-59.527-70.086-59.576
						c-15.131-0.019-29.137,4.038-40.606,10.93c23.889,5.058,44.929,17.025,62.09,32.693c8.742,7.981,15.546,16.513,20.787,25.545
						L435.933,677.364z"/>
				</g>
				<g>
					<path style="opacity:0.1;" d="M803.5,677.832c0.613-3.186,0.934-6.458,0.938-9.795c0.042-32.854-30.593-59.526-68.426-59.574
						c-14.773-0.019-28.447,4.039-39.645,10.931c23.323,5.057,43.866,17.024,60.621,32.691c8.534,7.98,15.177,16.512,20.295,25.545
						L803.5,677.832z"/>
				</g>
				<g>
					
						<ellipse transform="matrix(0.044 -0.999 0.999 0.044 -333.0067 992.7686)" style="fill:#3B455A;" cx="352.215" cy="670.379" rx="62.406" ry="62.405"/>
					<g>
						<g>
							<path style="fill:#F4F4F2;" d="M339.373,703.389c-18.231-7.092-27.26-27.621-20.168-45.852
								c7.092-18.231,27.621-27.26,45.852-20.168c18.231,7.093,27.26,27.621,20.168,45.852
								C378.133,701.452,357.604,710.482,339.373,703.389z"/>
						</g>
						<path style="opacity:0.1;" d="M358.403,695.061c6.765-0.507,13.59-2.884,18.38-7.688c-2.106,6.182-7.413,11.175-13.712,12.9
							c-2.139,0.586-4.36,0.813-6.574,0.959c-2.344,0.154-4.708,0.219-7.033-0.119c-6.262-0.909-12.002-4.893-15.043-10.442
							c0.996,1.798,7.939,3.073,9.663,3.388C348.798,694.918,353.612,695.42,358.403,695.061z"/>
					</g>
				</g>
				<path style="opacity:0.3;fill:#3B455A;" d="M781.947,672.364c0,1.829-0.08,3.649-0.25,5.441l-124.327-0.161
					c-0.161-1.793-0.232-3.604-0.232-5.441c0.045-34.467,28.018-62.369,62.485-62.333
					C754.09,609.915,781.991,637.897,781.947,672.364z"/>
				<g>
					<g>
						<g>
							
								<ellipse transform="matrix(0.9154 -0.4026 0.4026 0.9154 -208.5312 346.4091)" style="fill:#EFEFEA;" cx="719.719" cy="669.227" rx="20" ry="20"/>
						</g>
						<path style="opacity:0.1;" d="M723.213,683.163c3.82-0.286,7.673-1.628,10.378-4.341c-1.189,3.491-4.186,6.31-7.742,7.284
							c-1.208,0.331-2.462,0.459-3.712,0.541c-1.323,0.087-2.658,0.123-3.971-0.067c-3.536-0.513-6.777-2.763-8.494-5.896
							c0.562,1.015,4.482,1.735,5.456,1.913C717.79,683.082,720.508,683.365,723.213,683.163z"/>
					</g>
				</g>
			</g>
			<path style="fill:#305399;" d="M528.566,541.569l-28.532-0.036c-1.49-0.002-2.696-1.211-2.694-2.701l0.012-9.19
				c0.002-1.49,1.211-2.696,2.701-2.694l28.532,0.036c1.49,0.002,2.696,1.211,2.694,2.701l-0.012,9.19
				C531.266,540.364,530.056,541.571,528.566,541.569z"/>
		</g>
		<g>
			<g>
				<polygon style="fill:#2D3544;" points="487.697,713.764 492.674,722.474 492.052,728.074 484.586,729.318 473.387,722.474 
					477.12,698.832 487.697,695.721 				"/>
				<path style="fill:#BCBEC0;" d="M492.674,634.748c0,0-11.821,21.776,4.355,35.464c16.176,13.688,44.174,35.464,44.174,35.464
					l-52.885-11.821l-3.733,18.665c0,0,80.26,26.753,82.127,24.887c1.867-1.866,21.776-19.287,21.776-19.287l-42.93-93.948
					l-47.285,5.6L492.674,634.748z"/>
			</g>
			<g>
				<path style="fill:#F7F7F7;" d="M618.334,621.056c-2.824-3.022-5.496-6.169-7.951-9.463l0,0l-14.755-14.072l-19.757-43.172
					l3.168-27.989c0,0,3.23-3.356,7.248-7.385c-3.808-5.475-8.261-9.116-17.203-10.081c-37.654-4.063-35.519-1.774-48.321,13.788
					c-5.148,6.258-14.656,24.213-17.943,31.54c-3.981,8.875-7.854,17.797-11.428,26.838c-3.989,10.088-7.612,20.324-10.585,30.752
					c-0.331,1.158-1.386,4.369-2.515,8.251c-2.133,7.337-4.526,17.067-2.785,19.882c0.905,2.346,3.296,4.846,9.079,6.003
					c12.443,2.489,22.398,2.489,36.086-4.355c13.688-6.844,36.363-1.985,36.363-1.985v-0.001c3.604,0.988,7.373,1.962,11.385,2.857
					c29.173,6.507,44.251-11.36,48.982-14.605c4.137-2.837,0.932-6.795,0.932-6.795L618.334,621.056z"/>
			</g>
			<path style="fill:#EAC1A4;" d="M665.732,534.321c-0.013-0.298,2.573-2.488,2.908-2.835c1.028-1.067,1.985-2.228,2.574-3.6
				c0.622-1.448,0.801-3.042,0.974-4.609c0.104-0.944,0.208-1.889,0.312-2.833c0.04-0.359,0.083-0.732,0.273-1.039
				c0.17-0.276,0.441-0.471,0.707-0.655c1.371-0.947,2.823-1.777,4.334-2.48c0.017,1.696-0.915,8.625,1.207,8.816
				c4.842,0.434,9.783,0.13,14.643,0.071c0.354-0.004,0.732-0.001,1.026,0.196c0.217,0.146,0.356,0.379,0.483,0.608
				c1.593,2.875,2.226,6.272,1.775,9.527c-0.028,0.205-0.064,0.416-0.177,0.589c-0.134,0.205-0.358,0.329-0.573,0.444
				c-2.942,1.574-5.96,2.949-8.995,4.329c-1.122,0.511-1.997,1.29-3.111,1.816c-0.544,0.257-2.078,1.289-2.688,1.205
				c-0.001,0-13.048-1.8-13.048-1.8L665.732,534.321z"/>
			<polygon style="fill:#F7F7F7;" points="585.619,519.103 599.019,541.366 666.957,530.797 672.406,544.845 588.819,572.46 
				532.657,513.743 			"/>
			<polygon style="fill:#2D3544;" points="604.585,717.497 617.109,725.846 617.109,731.586 606.151,733.674 588.931,725.324 
				590.496,717.497 			"/>
			<g>
				<path style="fill:#EAC1A4;" d="M561.041,510.306c-5.07,0.614-10.141,1.229-15.211,1.843c-0.935-3.964-1.552-8.004-1.844-12.066
					c-4.459-0.532-9.723-1.646-11.408-5.809c-0.53-1.311-0.605-2.755-0.674-4.168c-0.283-5.84-0.565-11.68-0.847-17.521
					c-0.098-2.02-0.187-4.102,0.499-6.004c1.204-3.338,4.521-5.421,7.801-6.774c8.371-3.454,18.281-3.684,26.305,0.514
					c2.135,1.117,4.167,2.579,5.453,4.618c1.983,3.143,1.909,7.113,1.771,10.826c-0.128,3.427-0.256,6.855-0.384,10.283
					c-0.147,3.942-0.615,8.491-3.892,10.687c-1.74,1.166-4.037,1.451-5.518,2.933C560.483,502.283,561.902,506.714,561.041,510.306z
					"/>
			</g>
			<path style="fill:#BCBEC0;" d="M544.407,642.156l76.436-35.406l17.421,22.398l-29.864,91.459l-19.91-2.489l5.6-54.751
				c0,0-16.799,14.31-46.663,13.066c-13.688-13.688-13.688-13.066-13.688-13.066L544.407,642.156z"/>
			<g>
				
					<ellipse transform="matrix(0.7071 -0.7071 0.7071 0.7071 -185.1 653.9869)" style="fill:#3B455A;" cx="696.882" cy="550.429" rx="62.406" ry="62.406"/>
				<g>
					<g>
						
							<ellipse transform="matrix(0.8719 -0.4897 0.4897 0.8719 -180.2621 411.7397)" style="fill:#F4F4F2;" cx="696.882" cy="550.429" rx="35.42" ry="35.42"/>
					</g>
					<path style="opacity:0.1;" d="M703.07,575.11c6.765-0.507,13.59-2.884,18.38-7.688c-2.106,6.182-7.413,11.175-13.712,12.9
						c-2.14,0.586-4.36,0.813-6.574,0.959c-2.344,0.154-4.708,0.219-7.033-0.119c-6.262-0.909-12.002-4.894-15.043-10.442
						c0.996,1.798,7.939,3.073,9.663,3.388C693.465,574.967,698.279,575.469,703.07,575.11z"/>
				</g>
			</g>
			<polygon style="fill:#F7F7F7;" points="667.167,579.508 614.092,566.388 586.105,518.879 566.39,510.254 582.002,587.467 
				670.512,595.794 			"/>
			<polygon style="fill:#3B455A;" points="562.141,461.624 536.167,468.904 536.99,491.408 518.843,484.29 513.896,445.528 
				567.917,419.847 590.755,448.001 570.746,466.257 			"/>
			<path style="fill:#EAC1A4;" d="M661.272,585.166c-0.013-0.298,2.574-2.488,2.908-2.835c1.028-1.067,1.985-2.227,2.574-3.6
				c0.622-1.448,0.801-3.042,0.974-4.609c0.104-0.944,0.208-1.889,0.312-2.833c0.039-0.359,0.083-0.732,0.273-1.039
				c0.17-0.275,0.441-0.471,0.707-0.655c1.371-0.947,2.823-1.777,4.334-2.48c0.017,1.696-0.915,8.625,1.207,8.816
				c4.842,0.434,9.783,0.13,14.643,0.071c0.354-0.004,0.732-0.001,1.026,0.196c0.217,0.146,0.356,0.379,0.483,0.608
				c1.593,2.875,2.226,6.272,1.775,9.527c-0.028,0.205-0.063,0.416-0.176,0.589c-0.134,0.205-0.358,0.329-0.573,0.444
				c-2.942,1.573-5.961,2.949-8.995,4.329c-1.122,0.511-1.996,1.29-3.111,1.816c-0.543,0.256-2.077,1.289-2.688,1.205
				c-0.001,0-13.047-1.8-13.047-1.8L661.272,585.166z"/>
		</g>
		<g>
			<path style="fill:#C9C9C9;" d="M733.263,719.783l-33.454-33.454c-1.314-1.314-1.314-3.465,0-4.779l0,0
				c1.314-1.314,3.465-1.314,4.779,0l33.454,33.454c1.314,1.314,1.314,3.465,0,4.779l0,0
				C736.728,721.097,734.578,721.097,733.263,719.783z"/>
			<path style="fill:#ADADAD;" d="M699.656,681.732c-1.086,1.387-0.281,4.162,1.891,6.335l29.979,29.979
				c2.172,2.172,4.948,2.977,6.335,1.891L699.656,681.732z"/>
		</g>
		<g>
			<path style="fill:#C9C9C9;" d="M706.372,719.783l33.454-33.454c1.314-1.314,1.314-3.465,0-4.779l0,0
				c-1.314-1.314-3.465-1.314-4.779,0l-33.454,33.454c-1.314,1.314-1.314,3.465,0,4.779l0,0
				C702.907,721.097,705.058,721.097,706.372,719.783z"/>
			<path style="fill:#ADADAD;" d="M739.979,681.732c1.086,1.387,0.281,4.162-1.891,6.335l-29.979,29.979
				c-2.172,2.172-4.948,2.977-6.335,1.891L739.979,681.732z"/>
		</g>
		<g>
			<path style="fill:#C9C9C9;" d="M752.537,730.264h-66.008c-3.434,0-6.244-2.81-6.244-6.244l0,0c0-3.434,2.81-6.244,6.244-6.244
				h66.008c3.434,0,6.244,2.81,6.244,6.244l0,0C758.781,727.454,755.972,730.264,752.537,730.264z"/>
			<path style="fill:#ADADAD;" d="M680.316,724.458c0.309,3.231,3.984,5.806,8.444,5.806h61.548c4.46,0,8.135-2.575,8.444-5.806
				H680.316z"/>
		</g>
	</g>
</g>
</svg>
